<svg width="108" height="87" viewBox="0 0 108 87" fill="none" xmlns="http://www.w3.org/2000/svg">
<path d="M107.815 74.1621L84.042 61.3405C92.9789 60.0577 98.8944 58.7119 98.8944 58.7119L78.898 45.7697C85.5942 44.5286 89.9741 43.2803 89.9741 43.2803L73.1357 29.6165C77.9345 28.3337 81.0519 27.0754 81.0519 27.0754L54.2872 0.0045166L27.5263 27.0754C27.5263 27.0754 30.6437 28.3337 35.4407 29.6165L18.6059 43.2803C18.6059 43.2803 22.984 44.5286 29.6784 45.7683L9.68376 58.7119C9.68376 58.7119 15.5993 60.0577 24.5344 61.3405L0.763428 74.1621C0.763428 74.1621 19.3184 77.686 41.7991 78.7664V86.0941H66.779V78.7664C89.2579 77.686 107.815 74.1621 107.815 74.1621Z" fill="black"/>
</svg>
