<svg width="108" height="87" viewBox="0 0 108 87" fill="none" xmlns="http://www.w3.org/2000/svg">
<path d="M107.961 74.1621L84.1882 61.3405C93.1251 60.0577 99.0407 58.7119 99.0407 58.7119L79.0442 45.7697C85.7405 44.5286 90.1203 43.2803 90.1203 43.2803L73.2819 29.6165C78.0807 28.3337 81.1982 27.0754 81.1982 27.0754L54.4335 0.0045166L27.6725 27.0754C27.6725 27.0754 30.7899 28.3337 35.5869 29.6165L18.7522 43.2803C18.7522 43.2803 23.1302 44.5286 29.8246 45.7683L9.83 58.7119C9.83 58.7119 15.7455 60.0577 24.6806 61.3405L0.909668 74.1621C0.909668 74.1621 19.4646 77.686 41.9454 78.7664V86.0941H66.9253V78.7664C89.4042 77.686 107.961 74.1621 107.961 74.1621Z" fill="black"/>
</svg>
