<svg width="63" height="117" viewBox="0 0 63 117" fill="none" xmlns="http://www.w3.org/2000/svg">
<path d="M62.6758 100.714L48.9074 83.3098C54.0834 81.5686 57.5095 79.7417 57.5095 79.7417L45.9282 62.1737C49.8065 60.489 52.3431 58.7945 52.3431 58.7945L42.5909 40.2469C45.3702 38.5057 47.1757 36.7976 47.1757 36.7976L31.6745 0.0510254L16.1754 36.7976C16.1754 36.7976 17.9809 38.5057 20.7592 40.2469L11.0091 58.7945C11.0091 58.7945 13.5447 60.489 17.4219 62.1718L5.84165 79.7417C5.84165 79.7417 9.26771 81.5686 14.4426 83.3098L0.675293 100.714C0.675293 100.714 11.4217 105.498 24.4418 106.964V116.911H38.9093V106.964C51.9284 105.498 62.6758 100.714 62.6758 100.714Z" fill="black"/>
</svg>
