<svg width="63" height="117" viewBox="0 0 63 117" fill="none" xmlns="http://www.w3.org/2000/svg">
<path d="M62.5357 100.714L48.7673 83.3098C53.9433 81.5686 57.3694 79.7417 57.3694 79.7417L45.7881 62.1737C49.6663 60.489 52.203 58.7945 52.203 58.7945L42.4507 40.2469C45.2301 38.5057 47.0356 36.7976 47.0356 36.7976L31.5344 0.0510254L16.0353 36.7976C16.0353 36.7976 17.8408 38.5057 20.6191 40.2469L10.8689 58.7945C10.8689 58.7945 13.4045 60.489 17.2817 62.1718L5.70151 79.7417C5.70151 79.7417 9.12758 81.5686 14.3025 83.3098L0.535156 100.714C0.535156 100.714 11.2816 105.498 24.3017 106.964V116.911H38.7692V106.964C51.7882 105.498 62.5357 100.714 62.5357 100.714Z" fill="black"/>
</svg>
