<svg width="349" height="167" viewBox="0 0 349 167" fill="none" xmlns="http://www.w3.org/2000/svg">
<path d="M338.04 66.5541C342.216 66.5541 345.601 64.3498 345.601 61.6306C345.601 58.9115 342.216 56.7072 338.04 56.7072C333.865 56.7072 330.479 58.9115 330.479 61.6306C330.479 64.3498 333.865 66.5541 338.04 66.5541Z" fill="#FFD200"/>
<path d="M157.133 75.932C161.309 75.932 164.694 73.7277 164.694 71.0086C164.694 68.2894 161.309 66.0851 157.133 66.0851C152.957 66.0851 149.572 68.2894 149.572 71.0086C149.572 73.7277 152.957 75.932 157.133 75.932Z" fill="#FFD200"/>
<path d="M143.824 46.1729C138.207 50.0335 138.495 59.7631 142.804 64.2879C145.348 66.9606 149.669 69.3286 156.929 70.282C177.668 73.0016 174.751 80.8165 173.299 85.318C171.847 89.8194 183.488 98.111 202.042 92.8985C220.596 87.6859 229.957 105.934 229.957 105.934L258.076 107.106C258.076 107.106 261.34 86.7403 286.447 88.3971C311.554 90.0538 315.55 83.3955 318.454 71.6809C321.359 59.9663 358.119 62.342 345.385 42.6796C332.652 23.0172 315.55 34.3879 309.381 19.4614C303.213 4.53481 279.894 -3.04569 266.045 3.11249C252.195 9.27067 240.17 8.8643 233.641 4.36288C227.113 -0.138528 202.93 -0.716835 194.925 13.7408C186.921 28.1985 168.067 2.79989 155.321 23.2516C151.577 29.1832 164.346 32.0825 143.824 46.1729Z" fill="#8E8E8E"/>
<path opacity="0.3" d="M79.8808 166.289C123.633 166.289 159.101 163.269 159.101 159.544C159.101 155.82 123.633 152.8 79.8808 152.8C36.1286 152.8 0.6604 155.82 0.6604 159.544C0.6604 163.269 36.1286 166.289 79.8808 166.289Z" fill="#E6E6E6"/>
<path d="M100.583 94.774C99.9112 88.7409 89.7821 85.1851 81.4532 87.8656C72.4043 90.7806 61.3031 97.4624 58.9988 112.78C54.9904 139.499 112.933 138.569 112.933 138.569L115.201 133.88C115.201 133.88 77.3008 128.613 77.9968 117.719C78.8249 105.527 101.627 104.59 100.583 94.774Z" fill="#68E1FD"/>
<path opacity="0.46" d="M100.583 94.774C99.9112 88.7409 89.7821 85.1851 81.4532 87.8656C72.4043 90.7806 61.3031 97.4624 58.9988 112.78C54.9904 139.499 112.933 138.569 112.933 138.569L115.201 133.88C115.201 133.88 77.3008 128.613 77.9968 117.719C78.8249 105.527 101.627 104.59 100.583 94.774Z" fill="white"/>
<path d="M52.506 156.794C52.506 156.794 53.7061 158.904 56.6465 159.052C59.5868 159.201 60.3669 161.068 57.7386 161.568C55.1103 162.069 48.2576 159.888 48.2576 159.888L48.4136 157.122L52.506 156.794Z" fill="#68E1FD"/>
<path d="M80.925 156.794C80.925 156.794 82.1251 158.904 85.0654 159.052C88.0057 159.201 88.7978 161.068 86.1575 161.568C83.5172 162.069 76.6765 159.888 76.6765 159.888L76.8445 157.122L80.925 156.794Z" fill="#68E1FD"/>
<path d="M116.521 71.5403C115.13 73.1416 113.415 74.6136 111.42 75.9167C110.909 76.2041 110.245 76.3489 109.571 76.3196C108.897 76.2904 108.268 76.0894 107.82 75.7604C107.064 75.2533 106.548 74.6149 106.335 73.9218C106.122 73.2287 106.221 72.5104 106.62 71.8529L107.82 68.9067C108.167 68.3339 108.778 67.8453 109.569 67.508C110.359 67.1707 111.292 67.0013 112.236 67.0232C115.753 66.9764 118.177 69.8288 116.521 71.5403Z" fill="#F4A28C"/>
<path d="M106.716 69.9147L94.1982 77.081L100.751 81.2933L107.064 74.5646L106.716 69.9147Z" fill="#F4A28C"/>
<path d="M115.357 71.1885C114.027 70.6413 112.799 69.9962 111.696 69.266C111.681 69.8044 111.424 70.328 110.957 70.7724C110.49 71.2168 109.833 71.5625 109.068 71.7668C108.334 71.9755 107.511 72.0116 106.741 71.8691C105.97 71.7265 105.3 71.4141 104.844 70.9853L108.6 67.5076C109.115 66.9951 109.832 66.5828 110.678 66.3145C111.523 66.0462 112.464 65.9319 113.401 65.9837C114.208 66.028 115.009 66.1063 115.801 66.2182C117.781 66.4995 119.401 68.1875 121.454 68.125C121.672 68.1076 121.894 68.1298 122.095 68.1891C122.296 68.2484 122.467 68.3425 122.591 68.4612C122.715 68.5798 122.787 68.7184 122.798 68.8618C122.809 69.0051 122.759 69.1477 122.654 69.2738C121.778 70.4539 119.713 72.0012 116.881 71.6183C116.338 71.5353 115.822 71.3898 115.357 71.1885Z" fill="#24285B"/>
<path d="M109.596 71.8919C109.596 71.8919 110.676 70.8213 109.38 70.3289C108.084 69.8366 106.512 71.4074 108.012 72.2827L109.596 71.8919Z" fill="#F4A28C"/>
<path d="M114.829 73.3298L114.889 74.8928C114.892 74.9819 114.861 75.0701 114.798 75.1493C114.735 75.2285 114.642 75.2962 114.529 75.346C114.415 75.3958 114.284 75.4262 114.148 75.4344C114.011 75.4426 113.874 75.4283 113.748 75.3929L111.936 74.8693L114.829 73.3298Z" fill="#F4A28C"/>
<path opacity="0.31" d="M106.884 74.7522C106.23 74.1517 105.84 73.4465 105.756 72.7125C105.756 72.7125 102.803 74.1113 105.084 76.6824L106.884 74.7522Z" fill="#CE8172"/>
<path d="M79.137 74.1114C79.137 74.1114 103.812 76.2996 121.741 88.8426C139.671 101.386 77.7448 127.136 77.7448 127.136L45.3414 119.884C45.3414 119.884 43.1692 68.7034 79.137 74.1114Z" fill="#68E1FD"/>
<path d="M117.229 133.575C117.172 133.568 117.118 133.552 117.073 133.528L113.112 132.184C110.429 131.212 108.435 129.597 107.555 127.681C106.675 125.766 106.978 123.702 108.401 121.931C109.824 120.159 112.254 118.82 115.172 118.198C118.09 117.576 121.265 117.721 124.022 118.602L127.982 119.954C128.112 119.998 128.227 120.058 128.322 120.131C128.416 120.205 128.487 120.289 128.531 120.38C128.575 120.471 128.591 120.567 128.578 120.662C128.565 120.757 128.524 120.85 128.456 120.934C128.388 121.019 128.295 121.094 128.183 121.156C128.071 121.217 127.941 121.263 127.801 121.292C127.661 121.321 127.514 121.331 127.368 121.323C127.222 121.314 127.08 121.287 126.95 121.243L122.989 119.891C120.745 119.14 118.137 118.995 115.73 119.486C113.322 119.978 111.308 121.066 110.124 122.517C108.954 123.974 108.721 125.674 109.475 127.244C110.228 128.813 111.908 130.123 114.144 130.887L118.105 132.239C118.369 132.318 118.575 132.461 118.68 132.638C118.785 132.814 118.779 133.01 118.665 133.185C118.551 133.359 118.337 133.497 118.069 133.57C117.801 133.643 117.499 133.645 117.229 133.575Z" fill="#FFD200"/>
<path opacity="0.08" d="M83.4574 81.3714C83.4574 81.3714 91.9543 92.6093 77.8288 102.628C63.7033 112.647 90.106 121.525 90.106 121.525L77.7447 127.175L45.3413 119.923C45.3413 119.923 45.8454 110.154 46.3374 105.449C46.8295 100.745 83.4574 81.3714 83.4574 81.3714Z" fill="black"/>
<path opacity="0.6" d="M117.229 133.575C117.172 133.568 117.118 133.552 117.073 133.528L113.112 132.184C110.429 131.212 108.435 129.597 107.555 127.681C106.675 125.766 106.978 123.702 108.401 121.931C109.824 120.159 112.254 118.82 115.172 118.198C118.09 117.576 121.265 117.721 124.022 118.602L127.982 119.954C128.112 119.998 128.227 120.058 128.322 120.131C128.416 120.205 128.487 120.289 128.531 120.38C128.575 120.471 128.591 120.567 128.578 120.662C128.565 120.757 128.524 120.85 128.456 120.934C128.388 121.019 128.295 121.094 128.183 121.156C128.071 121.217 127.941 121.263 127.801 121.292C127.661 121.321 127.514 121.331 127.368 121.323C127.222 121.314 127.08 121.287 126.95 121.243L122.989 119.891C120.745 119.14 118.137 118.995 115.73 119.486C113.322 119.978 111.308 121.066 110.124 122.517C108.954 123.974 108.721 125.674 109.475 127.244C110.228 128.813 111.908 130.123 114.144 130.887L118.105 132.239C118.369 132.318 118.575 132.461 118.68 132.638C118.785 132.814 118.779 133.01 118.665 133.185C118.551 133.359 118.337 133.497 118.069 133.57C117.801 133.643 117.499 133.645 117.229 133.575Z" fill="white"/>
<path d="M83.4572 81.3715C81.561 75.4478 70.7958 72.7751 63.055 76.1824C54.6541 79.8554 45.0531 87.4438 45.9052 102.824C47.4054 129.652 104.639 123.736 104.639 123.736L105.924 118.868C105.924 118.868 67.2795 116.937 65.7433 106.075C64.0511 93.9145 86.5415 91.023 83.4572 81.3715Z" fill="#68E1FD"/>
<path opacity="0.46" d="M83.4572 81.3715C81.561 75.4478 70.7958 72.7751 63.055 76.1824C54.6541 79.8554 45.0531 87.4438 45.9052 102.824C47.4054 129.652 104.639 123.736 104.639 123.736L105.924 118.868C105.924 118.868 67.2795 116.937 65.7433 106.075C64.0511 93.9145 86.5415 91.023 83.4572 81.3715Z" fill="white"/>
<path d="M127.922 115.319L108.456 133.669L135.663 142.945L145.468 121.298L127.922 115.319Z" fill="#FFD200"/>
<path d="M130.61 136.287L159.233 126.003L166.23 128.347C166.454 128.421 166.632 128.542 166.735 128.691C166.839 128.839 166.862 129.006 166.801 129.164C166.739 129.323 166.597 129.462 166.397 129.561C166.198 129.66 165.953 129.711 165.702 129.707L162.51 129.668C161.664 129.664 160.833 129.813 160.109 130.098L132.963 140.695L130.61 136.287Z" fill="#FFD200"/>
<path d="M105.576 120.305C105.576 120.305 112.416 118.742 114.541 121.314C116.665 123.885 111.864 124.862 104.664 123.736L105.576 120.305Z" fill="#F4A28C"/>
<path d="M127.922 115.319L139.575 115.569L145.468 121.298L127.922 115.319Z" fill="#FFD200"/>
<path opacity="0.17" d="M127.922 115.319L139.575 115.569L145.468 121.298L127.922 115.319Z" fill="black"/>
<path d="M113.28 137.889C113.28 137.889 119.593 139.921 122.041 137.397L114.336 135.693L113.28 137.889Z" fill="#F4A28C"/>
<g opacity="0.48">
<path d="M166.866 127.027L167.417 126.886" stroke="#606E24" stroke-width="1.4478" stroke-linecap="round" stroke-linejoin="round"/>
<path d="M173.359 125.917C183.284 124.963 202.39 126.112 214.559 145.868" stroke="#606E24" stroke-width="1.4478" stroke-linecap="round" stroke-linejoin="round" stroke-dasharray="0.74 3.7"/>
<path d="M215.639 147.728C215.639 147.853 215.771 147.978 215.843 148.103" stroke="#606E24" stroke-width="1.4478" stroke-linecap="round" stroke-linejoin="round"/>
</g>
<path d="M45.2812 119.923L46.8534 157.239H53.6221L57.7026 136.576C58.0438 134.857 59.1457 133.24 60.8739 131.922C62.6022 130.604 64.882 129.641 67.4356 129.152L77.7927 127.175L45.2812 119.923Z" fill="#24285B"/>
<path d="M77.7448 127.175L82.2212 157.239H75.7285L61.519 129.136L77.7448 127.175Z" fill="#24285B"/>
<path d="M206.398 158.919H287.167C287.167 158.919 272.982 156.786 265.337 152.284C257.692 147.783 256.612 66.5231 256.612 66.5231L305.361 46.6262V42.3593C305.361 42.3593 272.249 53.9645 255.52 56.3402L254.044 39.0457H233.329L230.785 78.308L190.437 61.0761V67.711C190.437 67.711 218.04 76.9092 230.041 90.9057L229.741 139.945C229.724 143.115 228.415 146.226 225.948 148.959C223.481 151.693 219.945 153.951 215.699 155.504L206.398 158.919Z" fill="#E6E6E6"/>
<path d="M175.051 55.2302C175.051 55.2302 165.654 55.9414 168.654 61.4822C171.655 67.023 181.412 64.319 177.115 70.3131C172.819 76.3072 185.936 79.8552 190.401 76.7135C194.865 73.5719 191.421 68.3984 200.854 69.0002C210.287 69.6019 213.407 58.6376 204.682 57.9264C195.957 57.2152 201.082 50.4631 192.945 49.7598C191.493 49.6013 190.001 49.733 188.667 50.1376C187.332 50.5422 186.217 51.2006 185.468 52.0261C184.324 53.1155 182.758 53.9885 180.928 54.5566C179.099 55.1248 177.071 55.368 175.051 55.2615V55.2302Z" fill="#C4C4C4"/>
<path d="M282.282 39.7255C282.282 39.7255 272.885 40.4367 275.898 45.9775C278.91 51.5183 288.643 48.8065 284.299 54.8006C279.954 60.7946 293.132 64.3505 297.584 61.201C302.036 58.0516 298.604 52.8937 308.037 53.4877C317.47 54.0816 320.59 43.1329 311.866 42.4217C303.141 41.7105 308.265 34.9584 300.128 34.2473C298.678 34.0916 297.19 34.2246 295.858 34.629C294.526 35.0334 293.413 35.6903 292.663 36.5136C291.514 37.5921 289.951 38.456 288.13 39.0195C286.308 39.5829 284.293 39.8263 282.282 39.7255Z" fill="#C4C4C4"/>
<path d="M222.684 45.9775C222.684 45.9775 219.684 52.0185 233.869 51.448C248.055 50.8775 257.344 56.7778 261.16 45.9775C264.976 35.1773 247.791 24.0957 233.329 28.7846C218.868 33.4736 222.684 45.9775 222.684 45.9775Z" fill="#8E8E8E"/>
<path d="M194.925 78.2221C199.101 78.2221 202.486 76.0179 202.486 73.2987C202.486 70.5796 199.101 68.3753 194.925 68.3753C190.75 68.3753 187.365 70.5796 187.365 73.2987C187.365 76.0179 190.75 78.2221 194.925 78.2221Z" fill="#FFD200"/>
<path d="M231.085 57.7858C235.261 57.7858 238.646 55.5815 238.646 52.8624C238.646 50.1433 235.261 47.939 231.085 47.939C226.909 47.939 223.524 50.1433 223.524 52.8624C223.524 55.5815 226.909 57.7858 231.085 57.7858Z" fill="#FFD200"/>
<path d="M264.377 30.113C268.552 30.113 271.938 27.9087 271.938 25.1896C271.938 22.4705 268.552 20.2662 264.377 20.2662C260.201 20.2662 256.816 22.4705 256.816 25.1896C256.816 27.9087 260.201 30.113 264.377 30.113Z" fill="#FFD200"/>
<path d="M192.681 38.2954C196.857 38.2954 200.242 36.0912 200.242 33.372C200.242 30.6529 196.857 28.4486 192.681 28.4486C188.505 28.4486 185.12 30.6529 185.12 33.372C185.12 36.0912 188.505 38.2954 192.681 38.2954Z" fill="#FFD200"/>
<path d="M283.783 93.719C287.958 93.719 291.343 91.5147 291.343 88.7956C291.343 86.0765 287.958 83.8722 283.783 83.8722C279.607 83.8722 276.222 86.0765 276.222 88.7956C276.222 91.5147 279.607 93.719 283.783 93.719Z" fill="#FFD200"/>
<path d="M305.361 60.1147C309.537 60.1147 312.922 57.9104 312.922 55.1912C312.922 52.4721 309.537 50.2678 305.361 50.2678C301.185 50.2678 297.8 52.4721 297.8 55.1912C297.8 57.9104 301.185 60.1147 305.361 60.1147Z" fill="#FFD200"/>
</svg>
