<svg width="202" height="225" viewBox="0 0 202 225" fill="none" xmlns="http://www.w3.org/2000/svg">
<path d="M195.399 89.0334C197.817 89.0334 199.778 86.0413 199.778 82.3503C199.778 78.6593 197.817 75.6671 195.399 75.6671C192.981 75.6671 191.02 78.6593 191.02 82.3503C191.02 86.0413 192.981 89.0334 195.399 89.0334Z" fill="#FFD200"/>
<path d="M90.6236 101.763C93.042 101.763 95.0026 98.7711 95.0026 95.0801C95.0026 91.3891 93.042 88.3969 90.6236 88.3969C88.2052 88.3969 86.2446 91.3891 86.2446 95.0801C86.2446 98.7711 88.2052 101.763 90.6236 101.763Z" fill="#FFD200"/>
<path d="M82.9154 61.3675C79.6624 66.608 79.8292 79.8152 82.3246 85.9573C83.7981 89.5853 86.3004 92.7996 90.5056 94.0938C102.516 97.7854 100.827 108.394 99.9864 114.504C99.1453 120.614 105.888 131.87 116.633 124.794C127.379 117.718 132.801 142.488 132.801 142.488L149.086 144.08C149.086 144.08 150.977 116.435 165.518 118.684C180.059 120.932 182.373 111.894 184.056 95.9926C185.738 80.091 207.028 83.3159 199.653 56.6257C192.278 29.9355 182.373 45.3704 178.801 25.1087C175.228 4.84711 161.723 -5.44282 153.702 2.91643C145.681 11.2757 138.716 10.724 134.935 4.61373C131.153 -1.49658 117.148 -2.28159 112.512 17.3436C107.875 36.9687 96.9559 2.49209 89.5742 30.2537C87.4055 38.3053 94.8011 42.241 82.9154 61.3675Z" fill="#8E8E8E"/>
<path opacity="0.3" d="M45.8818 224.415C71.2216 224.415 91.7636 220.317 91.7636 215.261C91.7636 210.204 71.2216 206.106 45.8818 206.106C20.542 206.106 0 210.204 0 215.261C0 220.317 20.542 224.415 45.8818 224.415Z" fill="#E6E6E6"/>
<path d="M57.8718 127.34C57.4826 119.15 51.6161 114.324 46.7923 117.962C41.5515 121.919 35.122 130.989 33.7875 151.781C31.4659 188.051 65.0241 186.788 65.0241 186.788L66.3378 180.423C66.3378 180.423 44.3874 173.273 44.7905 158.486C45.2701 141.937 58.4765 140.664 57.8718 127.34Z" fill="#68E1FD"/>
<path opacity="0.46" d="M57.8718 127.34C57.4826 119.15 51.6161 114.324 46.7923 117.962C41.5515 121.919 35.122 130.989 33.7875 151.781C31.4659 188.051 65.0241 186.788 65.0241 186.788L66.3378 180.423C66.3378 180.423 44.3874 173.273 44.7905 158.486C45.2701 141.937 58.4765 140.664 57.8718 127.34Z" fill="white"/>
<path d="M30.027 211.526C30.027 211.526 30.722 214.391 32.425 214.592C34.1279 214.794 34.5797 217.329 33.0575 218.008C31.5353 218.687 27.5664 215.727 27.5664 215.727L27.6568 211.972L30.027 211.526Z" fill="#68E1FD"/>
<path d="M46.4864 211.526C46.4864 211.526 47.1815 214.391 48.8844 214.592C50.5874 214.794 51.0461 217.329 49.517 218.008C47.9878 218.687 44.0259 215.727 44.0259 215.727L44.1232 211.972L46.4864 211.526Z" fill="#68E1FD"/>
<path d="M67.1027 95.8018C66.2972 97.9755 65.3036 99.9737 64.1486 101.742C63.8526 102.133 63.4677 102.329 63.0775 102.289C62.6872 102.25 62.3229 101.977 62.0634 101.53C61.6254 100.842 61.3269 99.9754 61.2036 99.0346C61.0803 98.0937 61.1375 97.1186 61.3683 96.2262L62.0634 92.2269C62.2642 91.4494 62.6181 90.7861 63.0761 90.3283C63.5342 89.8704 64.074 89.6405 64.6212 89.6703C66.6578 89.6066 68.0619 93.4786 67.1027 95.8018Z" fill="#F4A28C"/>
<path d="M61.4235 93.5953L54.1738 103.323L57.9689 109.041L61.625 99.9072L61.4235 93.5953Z" fill="#F4A28C"/>
<path d="M66.4282 95.3242C65.6583 94.5814 64.9469 93.7058 64.3082 92.7146C64.2993 93.4454 64.1504 94.1563 63.8799 94.7595C63.6094 95.3627 63.2291 95.8319 62.786 96.1092C62.3608 96.3925 61.8844 96.4416 61.4381 96.2481C60.9918 96.0546 60.6035 95.6305 60.3394 95.0484L62.5149 90.3278C62.8129 89.6321 63.2287 89.0724 63.7182 88.7082C64.2077 88.344 64.7526 88.1889 65.2952 88.2592C65.7626 88.3192 66.227 88.4255 66.6854 88.5774C67.8323 88.9593 68.7706 91.2507 69.9592 91.1658C70.0859 91.1422 70.2144 91.1723 70.3307 91.2528C70.4469 91.3332 70.5464 91.4611 70.6182 91.6221C70.69 91.7832 70.7313 91.9714 70.7377 92.1659C70.7441 92.3605 70.7152 92.554 70.6543 92.7252C70.1469 94.3271 68.9513 96.4275 67.311 95.9077C66.9963 95.7951 66.6973 95.5975 66.4282 95.3242Z" fill="#24285B"/>
<path d="M63.0921 96.2792C63.0921 96.2792 63.7176 94.8259 62.9669 94.1576C62.2163 93.4893 61.3057 95.6215 62.1746 96.8096L63.0921 96.2792Z" fill="#F4A28C"/>
<path d="M66.1224 98.231L66.1572 100.353C66.159 100.474 66.1409 100.593 66.1045 100.701C66.068 100.808 66.0145 100.9 65.9487 100.968C65.8829 101.035 65.8071 101.077 65.7281 101.088C65.6491 101.099 65.5696 101.08 65.4968 101.032L64.4473 100.321L66.1224 98.231Z" fill="#F4A28C"/>
<path opacity="0.31" d="M61.5213 100.162C61.1426 99.3467 60.9167 98.3894 60.8679 97.393C60.8679 97.393 59.158 99.2919 60.4787 102.782L61.5213 100.162Z" fill="#CE8172"/>
<path d="M45.4507 99.2919C45.4507 99.2919 59.7414 102.262 70.1258 119.288C80.5102 136.314 44.6444 171.268 44.6444 171.268L25.8774 161.424C25.8774 161.424 24.6193 91.9511 45.4507 99.2919Z" fill="#68E1FD"/>
<path d="M67.5126 180.009C67.4797 179.999 67.4487 179.977 67.4223 179.946L65.1285 178.121C63.5744 176.802 62.4194 174.609 61.9097 172.009C61.4 169.409 61.5759 166.608 62.4001 164.203C63.2242 161.798 64.6312 159.98 66.3213 159.136C68.0113 158.291 69.8505 158.488 71.4468 159.684L73.7405 161.519C73.8158 161.579 73.8826 161.661 73.9372 161.76C73.9918 161.86 74.033 161.975 74.0584 162.098C74.0839 162.222 74.0932 162.352 74.0858 162.481C74.0783 162.61 74.0543 162.736 74.0151 162.851C73.9758 162.966 73.9221 163.068 73.857 163.151C73.792 163.234 73.7168 163.297 73.6358 163.336C73.5548 163.375 73.4695 163.389 73.3849 163.378C73.3003 163.366 73.2181 163.33 73.1427 163.27L70.849 161.434C69.5493 160.415 68.0389 160.218 66.6445 160.885C65.2501 161.552 64.0838 163.03 63.3978 164.999C62.7204 166.977 62.5851 169.285 63.0217 171.415C63.4583 173.545 64.431 175.324 65.7263 176.36L68.02 178.195C68.173 178.303 68.2925 178.497 68.3531 178.737C68.4137 178.976 68.4107 179.243 68.3446 179.479C68.2785 179.715 68.1545 179.903 67.9992 180.002C67.8438 180.101 67.6693 180.104 67.5126 180.009Z" fill="#FFD200"/>
<path opacity="0.08" d="M47.953 109.147C47.953 109.147 52.8741 124.401 44.6931 138.001C36.5121 151.601 51.8037 163.652 51.8037 163.652L44.6444 171.321L25.8774 161.477C25.8774 161.477 26.1694 148.217 26.4544 141.831C26.7393 135.444 47.953 109.147 47.953 109.147Z" fill="black"/>
<path opacity="0.6" d="M67.5126 180.009C67.4797 179.999 67.4487 179.977 67.4223 179.946L65.1285 178.121C63.5744 176.802 62.4194 174.609 61.9097 172.009C61.4 169.409 61.5759 166.608 62.4001 164.203C63.2242 161.798 64.6312 159.98 66.3213 159.136C68.0113 158.291 69.8505 158.488 71.4468 159.684L73.7405 161.519C73.8158 161.579 73.8826 161.661 73.9372 161.76C73.9918 161.86 74.033 161.975 74.0584 162.098C74.0839 162.222 74.0932 162.352 74.0858 162.481C74.0783 162.61 74.0543 162.736 74.0151 162.851C73.9758 162.966 73.9221 163.068 73.857 163.151C73.792 163.234 73.7168 163.297 73.6358 163.336C73.5548 163.375 73.4695 163.389 73.3849 163.378C73.3003 163.366 73.2181 163.33 73.1427 163.27L70.849 161.434C69.5493 160.415 68.0389 160.218 66.6445 160.885C65.2501 161.552 64.0838 163.03 63.3978 164.999C62.7204 166.977 62.5851 169.285 63.0217 171.415C63.4583 173.545 64.431 175.324 65.7263 176.36L68.02 178.195C68.173 178.303 68.2925 178.497 68.3531 178.737C68.4137 178.976 68.4107 179.243 68.3446 179.479C68.2785 179.715 68.1545 179.903 67.9992 180.002C67.8438 180.101 67.6693 180.104 67.5126 180.009Z" fill="white"/>
<path d="M47.9533 109.147C46.8551 101.106 40.6203 97.478 36.1371 102.103C31.2716 107.089 25.711 117.39 26.2045 138.267C27.0733 174.684 60.2214 166.654 60.2214 166.654L60.9651 160.045C60.9651 160.045 38.5837 157.425 37.694 142.68C36.714 126.173 49.7397 122.248 47.9533 109.147Z" fill="#68E1FD"/>
<path opacity="0.46" d="M47.9533 109.147C46.8551 101.106 40.6203 97.478 36.1371 102.103C31.2716 107.089 25.711 117.39 26.2045 138.267C27.0733 174.684 60.2214 166.654 60.2214 166.654L60.9651 160.045C60.9651 160.045 38.5837 157.425 37.694 142.68C36.714 126.173 49.7397 122.248 47.9533 109.147Z" fill="white"/>
<path d="M73.7057 155.229L62.4316 180.137L78.189 192.729L83.8677 163.344L73.7057 155.229Z" fill="#FFD200"/>
<path d="M75.2627 183.691L91.8402 169.73L95.8925 172.913C96.0219 173.013 96.1251 173.177 96.1851 173.379C96.2452 173.581 96.2585 173.807 96.2229 174.022C96.1873 174.237 96.105 174.427 95.9894 174.561C95.8737 174.694 95.7317 174.764 95.5867 174.759L93.7378 174.705C93.2479 174.7 92.7667 174.902 92.3476 175.289L76.625 189.674L75.2627 183.691Z" fill="#FFD200"/>
<path d="M60.7636 161.997C60.7636 161.997 64.7255 159.875 65.9558 163.365C67.1861 166.855 64.4058 168.181 60.2354 166.654L60.7636 161.997Z" fill="#F4A28C"/>
<path d="M73.7056 155.229L80.4547 155.568L83.8675 163.344L73.7056 155.229Z" fill="#FFD200"/>
<path opacity="0.17" d="M73.7056 155.229L80.4547 155.568L83.8675 163.344L73.7056 155.229Z" fill="black"/>
<path d="M65.2256 185.865C65.2256 185.865 68.8817 188.623 70.2996 185.197L65.8372 182.884L65.2256 185.865Z" fill="#F4A28C"/>
<g opacity="0.48">
<path d="M96.2607 171.121L96.5801 170.929" stroke="#C9C9C9" stroke-width="1.4478" stroke-linecap="round" stroke-linejoin="round"/>
<path d="M100.021 169.614C105.769 168.319 116.835 169.879 123.883 196.696" stroke="#C9C9C9" stroke-width="1.4478" stroke-linecap="round" stroke-linejoin="round" stroke-dasharray="0.74 3.7"/>
<path d="M124.509 199.221C124.509 199.391 124.585 199.56 124.626 199.73" stroke="#C9C9C9" stroke-width="1.4478" stroke-linecap="round" stroke-linejoin="round"/>
</g>
<path d="M25.8428 161.477L26.7533 212.131H30.6735L33.0368 184.083C33.2344 181.75 33.8726 179.555 34.8735 177.765C35.8745 175.976 37.1949 174.669 38.6738 174.005L44.6723 171.321L25.8428 161.477Z" fill="#24285B"/>
<path d="M44.6445 171.321L47.2371 212.131H43.4767L35.2471 173.984L44.6445 171.321Z" fill="#24285B"/>
<path d="M119.157 214.412H165.935C165.935 214.412 157.719 211.516 153.292 205.406C148.864 199.295 148.238 88.9914 148.238 88.9914L176.472 61.9829V56.1909C176.472 56.1909 157.295 71.944 147.606 75.1689L146.751 51.693H134.754L133.28 104.989L109.912 81.5975V90.6038C109.912 90.6038 125.899 103.09 132.85 122.089L132.676 188.655C132.666 192.959 131.908 197.182 130.479 200.892C129.05 204.603 127.002 207.668 124.543 209.776L119.157 214.412Z" fill="#E6E6E6"/>
<path d="M101.001 73.6623C101.001 73.6623 95.5588 74.6276 97.2965 82.1488C99.0341 89.67 104.685 85.9996 102.197 94.1361C99.7084 102.273 107.306 107.089 109.891 102.824C112.477 98.5597 110.482 91.5371 115.945 92.3539C121.409 93.1707 123.216 78.2874 118.163 77.3221C113.109 76.3567 116.077 67.1913 111.365 66.2365C110.524 66.0214 109.66 66.2003 108.887 66.7494C108.114 67.2986 107.468 68.1924 107.034 69.3129C106.372 70.7916 105.465 71.9766 104.405 72.7479C103.346 73.5192 102.171 73.8492 101.001 73.7047V73.6623Z" fill="#C4C4C4"/>
<path d="M163.106 52.6158C163.106 52.6158 157.664 53.5812 159.408 61.1024C161.153 68.6236 166.79 64.9425 164.274 73.079C161.758 81.2155 169.39 86.0422 171.968 81.7671C174.547 77.492 172.559 70.4906 178.022 71.2968C183.486 72.1031 185.293 57.241 180.24 56.2756C175.187 55.3103 178.154 46.1448 173.442 45.1795C172.602 44.9682 171.74 45.1488 170.969 45.6977C170.197 46.2466 169.552 47.1383 169.119 48.2559C168.453 49.7199 167.547 50.8925 166.493 51.6574C165.438 52.4222 164.27 52.7526 163.106 52.6158Z" fill="#C4C4C4"/>
<path d="M128.588 61.1023C128.588 61.1023 126.851 69.3025 135.067 68.5281C143.282 67.7537 148.662 75.7629 150.873 61.1023C153.083 46.4418 143.129 31.3994 134.754 37.7643C126.378 44.1292 128.588 61.1023 128.588 61.1023Z" fill="#8E8E8E"/>
<path d="M112.512 104.872C114.93 104.872 116.891 101.88 116.891 98.1888C116.891 94.4978 114.93 91.5057 112.512 91.5057C110.093 91.5057 108.133 94.4978 108.133 98.1888C108.133 101.88 110.093 104.872 112.512 104.872Z" fill="#FFD200"/>
<path d="M133.454 77.1312C135.873 77.1312 137.833 74.139 137.833 70.448C137.833 66.757 135.873 63.7649 133.454 63.7649C131.036 63.7649 129.075 66.757 129.075 70.448C129.075 74.139 131.036 77.1312 133.454 77.1312Z" fill="#FFD200"/>
<path d="M152.736 39.5675C155.154 39.5675 157.115 36.5754 157.115 32.8844C157.115 29.1934 155.154 26.2012 152.736 26.2012C150.317 26.2012 148.357 29.1934 148.357 32.8844C148.357 36.5754 150.317 39.5675 152.736 39.5675Z" fill="#FFD200"/>
<path d="M111.212 50.6746C113.63 50.6746 115.591 47.6825 115.591 43.9914C115.591 40.3004 113.63 37.3083 111.212 37.3083C108.794 37.3083 106.833 40.3004 106.833 43.9914C106.833 47.6825 108.794 50.6746 111.212 50.6746Z" fill="#FFD200"/>
<path d="M163.975 125.908C166.394 125.908 168.354 122.916 168.354 119.225C168.354 115.534 166.394 112.541 163.975 112.541C161.557 112.541 159.596 115.534 159.596 119.225C159.596 122.916 161.557 125.908 163.975 125.908Z" fill="#FFD200"/>
<path d="M176.473 80.2925C178.891 80.2925 180.852 77.3003 180.852 73.6093C180.852 69.9183 178.891 66.9261 176.473 66.9261C174.054 66.9261 172.094 69.9183 172.094 73.6093C172.094 77.3003 174.054 80.2925 176.473 80.2925Z" fill="#FFD200"/>
</svg>
