<svg width="92" height="127" viewBox="0 0 92 127" fill="none" xmlns="http://www.w3.org/2000/svg">
<path d="M88.9316 50.7084C90.02 50.7084 90.9023 49.0333 90.9023 46.9669C90.9023 44.9006 90.02 43.2255 88.9316 43.2255C87.8432 43.2255 86.9609 44.9006 86.9609 46.9669C86.9609 49.0333 87.8432 50.7084 88.9316 50.7084Z" fill="#FFD200"/>
<path d="M41.7788 57.8349C42.8672 57.8349 43.7495 56.1598 43.7495 54.0935C43.7495 52.0271 42.8672 50.3521 41.7788 50.3521C40.6904 50.3521 39.8081 52.0271 39.8081 54.0935C39.8081 56.1598 40.6904 57.8349 41.7788 57.8349Z" fill="#FFD200"/>
<path d="M38.3099 35.2202C36.846 38.154 36.9211 45.5477 38.044 48.9863C38.7072 51.0173 39.8333 52.8168 41.7258 53.5413C47.1311 55.608 46.371 61.5468 45.9925 64.9675C45.614 68.3882 48.6482 74.6893 53.4842 70.7281C58.3202 66.767 60.7601 80.634 60.7601 80.634L68.0892 81.5248C68.0892 81.5248 68.94 66.0484 75.484 67.3074C82.0279 68.5664 83.0695 63.5066 83.8265 54.6044C84.5835 45.7021 94.1648 47.5075 90.8459 32.5656C87.527 17.6236 83.0695 26.2645 81.4617 14.9215C79.8539 3.57842 73.776 -2.18218 70.1662 2.49757C66.5564 7.17732 63.4221 6.8685 61.7204 3.44777C60.0188 0.0270381 53.7157 -0.412431 51.6293 10.5743C49.5428 21.561 44.6286 2.26002 41.3066 17.8018C40.3307 22.3093 43.6589 24.5126 38.3099 35.2202Z" fill="#8E8E8E"/>
<path opacity="0.3" d="M21.6435 126.499C33.0473 126.499 42.2919 124.205 42.2919 121.374C42.2919 118.543 33.0473 116.249 21.6435 116.249C10.2397 116.249 0.995117 118.543 0.995117 121.374C0.995117 124.205 10.2397 126.499 21.6435 126.499Z" fill="#E6E6E6"/>
<path d="M27.0395 72.1535C26.8643 67.5687 24.2242 64.8666 22.0534 66.9036C19.6948 69.1188 16.8013 74.1964 16.2007 85.8364C15.156 106.141 30.2583 105.434 30.2583 105.434L30.8495 101.871C30.8495 101.871 20.971 97.8683 21.1525 89.5897C21.3683 80.3252 27.3117 79.6126 27.0395 72.1535Z" fill="#68E1FD"/>
<path opacity="0.46" d="M27.0395 72.1535C26.8643 67.5687 24.2242 64.8666 22.0534 66.9036C19.6948 69.1188 16.8013 74.1964 16.2007 85.8364C15.156 106.141 30.2583 105.434 30.2583 105.434L30.8495 101.871C30.8495 101.871 20.971 97.8683 21.1525 89.5897C21.3683 80.3252 27.3117 79.6126 27.0395 72.1535Z" fill="white"/>
<path d="M14.5082 119.284C14.5082 119.284 14.821 120.887 15.5874 121C16.3538 121.113 16.5571 122.532 15.8721 122.912C15.187 123.292 13.4009 121.635 13.4009 121.635L13.4415 119.533L14.5082 119.284Z" fill="#68E1FD"/>
<path d="M21.9159 119.284C21.9159 119.284 22.2287 120.887 22.9951 121C23.7615 121.113 23.9679 122.532 23.2798 122.912C22.5916 123.292 20.8086 121.635 20.8086 121.635L20.8524 119.533L21.9159 119.284Z" fill="#68E1FD"/>
<path d="M31.1936 54.4975C30.8311 55.7144 30.384 56.833 29.8642 57.8232C29.7309 58.0417 29.5578 58.1517 29.3821 58.1294C29.2065 58.1072 29.0425 57.9545 28.9257 57.7045C28.7286 57.3191 28.5943 56.834 28.5388 56.3073C28.4833 55.7806 28.5091 55.2347 28.6129 54.7351L28.9257 52.4962C29.0161 52.0609 29.1754 51.6896 29.3815 51.4333C29.5877 51.177 29.8306 51.0483 30.0769 51.0649C30.9934 51.0293 31.6253 53.1969 31.1936 54.4975Z" fill="#F4A28C"/>
<path d="M28.6381 53.2623L25.3755 58.7081L27.0834 61.9091L28.7288 56.7958L28.6381 53.2623Z" fill="#F4A28C"/>
<path d="M30.8901 54.2301C30.5436 53.8143 30.2235 53.3241 29.936 52.7692C29.932 53.1783 29.865 53.5763 29.7433 53.914C29.6215 54.2517 29.4504 54.5144 29.251 54.6696C29.0596 54.8282 28.8452 54.8557 28.6444 54.7473C28.4435 54.639 28.2688 54.4016 28.1499 54.0757L29.129 51.433C29.2631 51.0435 29.4502 50.7302 29.6705 50.5263C29.8908 50.3224 30.136 50.2356 30.3802 50.2749C30.5906 50.3085 30.7995 50.3681 31.0058 50.4531C31.522 50.6669 31.9443 51.9497 32.4792 51.9021C32.5362 51.8889 32.594 51.9058 32.6463 51.9508C32.6987 51.9959 32.7434 52.0674 32.7757 52.1576C32.8081 52.2478 32.8267 52.3531 32.8295 52.462C32.8324 52.571 32.8194 52.6793 32.792 52.7751C32.5636 53.6719 32.0256 54.8478 31.2874 54.5568C31.1457 54.4937 31.0112 54.3831 30.8901 54.2301Z" fill="#24285B"/>
<path d="M29.3887 54.7648C29.3887 54.7648 29.6703 53.9512 29.3324 53.577C28.9946 53.2029 28.5848 54.3966 28.9758 55.0617L29.3887 54.7648Z" fill="#F4A28C"/>
<path d="M30.7524 55.8574L30.768 57.0452C30.7689 57.1129 30.7607 57.18 30.7443 57.2402C30.7279 57.3003 30.7038 57.3517 30.6742 57.3896C30.6446 57.4274 30.6105 57.4506 30.575 57.4568C30.5394 57.463 30.5036 57.4522 30.4709 57.4253L29.9985 57.0274L30.7524 55.8574Z" fill="#F4A28C"/>
<path opacity="0.31" d="M28.6818 56.9383C28.5114 56.482 28.4097 55.9461 28.3878 55.3883C28.3878 55.3883 27.6183 56.4513 28.2126 58.4052L28.6818 56.9383Z" fill="#CE8172"/>
<path d="M21.4495 56.4514C21.4495 56.4514 27.8808 58.1142 32.5542 67.646C37.2275 77.1777 21.0867 96.7459 21.0867 96.7459L12.6409 91.2348C12.6409 91.2348 12.0747 52.3418 21.4495 56.4514Z" fill="#68E1FD"/>
<path d="M31.3778 101.639C31.363 101.634 31.3491 101.621 31.3372 101.604L30.3049 100.582C29.6055 99.8439 29.0857 98.6161 28.8563 97.1605C28.6269 95.7049 28.7061 94.1368 29.077 92.7905C29.4479 91.4442 30.0811 90.4262 30.8417 89.9536C31.6022 89.481 32.43 89.5912 33.1483 90.2607L34.1806 91.2881C34.2145 91.3216 34.2446 91.3675 34.2691 91.4231C34.2937 91.4787 34.3122 91.543 34.3237 91.6122C34.3352 91.6814 34.3393 91.7542 34.336 91.8265C34.3326 91.8988 34.3218 91.9691 34.3042 92.0334C34.2865 92.0978 34.2623 92.1549 34.233 92.2015C34.2037 92.2481 34.1699 92.2833 34.1335 92.3051C34.097 92.3269 34.0586 92.3348 34.0206 92.3284C33.9825 92.3221 33.9455 92.3015 33.9116 92.268L32.8793 91.2406C32.2944 90.67 31.6147 90.5594 30.9871 90.9328C30.3596 91.3062 29.8347 92.1336 29.526 93.236C29.2212 94.3434 29.1603 95.6353 29.3568 96.8279C29.5532 98.0205 29.991 99.0162 30.5739 99.5964L31.6062 100.624C31.675 100.684 31.7288 100.793 31.7561 100.927C31.7834 101.061 31.782 101.21 31.7522 101.343C31.7225 101.475 31.6667 101.58 31.5968 101.635C31.5269 101.691 31.4483 101.692 31.3778 101.639Z" fill="#FFD200"/>
<path opacity="0.08" d="M22.5759 61.9684C22.5759 61.9684 24.7906 70.5083 21.1088 78.1218C17.4271 85.7354 24.3088 92.4818 24.3088 92.4818L21.0869 96.7755L12.6411 91.2643C12.6411 91.2643 12.7725 83.8409 12.9007 80.2657C13.029 76.6906 22.5759 61.9684 22.5759 61.9684Z" fill="black"/>
<path opacity="0.6" d="M31.3778 101.639C31.363 101.634 31.3491 101.621 31.3372 101.604L30.3049 100.582C29.6055 99.8439 29.0857 98.6161 28.8563 97.1605C28.6269 95.7049 28.7061 94.1368 29.077 92.7905C29.4479 91.4442 30.0811 90.4262 30.8417 89.9536C31.6022 89.481 32.43 89.5912 33.1483 90.2607L34.1806 91.2881C34.2145 91.3216 34.2446 91.3675 34.2691 91.4231C34.2937 91.4787 34.3122 91.543 34.3237 91.6122C34.3352 91.6814 34.3393 91.7542 34.336 91.8265C34.3326 91.8988 34.3218 91.9691 34.3042 92.0334C34.2865 92.0978 34.2623 92.1549 34.233 92.2015C34.2037 92.2481 34.1699 92.2833 34.1335 92.3051C34.097 92.3269 34.0586 92.3348 34.0206 92.3284C33.9825 92.3221 33.9455 92.3015 33.9116 92.268L32.8793 91.2406C32.2944 90.67 31.6147 90.5594 30.9871 90.9328C30.3596 91.3062 29.8347 92.1336 29.526 93.236C29.2212 94.3434 29.1603 95.6353 29.3568 96.8279C29.5532 98.0205 29.991 99.0162 30.5739 99.5964L31.6062 100.624C31.675 100.684 31.7288 100.793 31.7561 100.927C31.7834 101.061 31.782 101.21 31.7522 101.343C31.7225 101.475 31.6667 101.58 31.5968 101.635C31.5269 101.691 31.4483 101.692 31.3778 101.639Z" fill="white"/>
<path d="M22.5759 61.9686C22.0817 57.467 19.2758 55.4359 17.2582 58.0252C15.0686 60.8164 12.5661 66.583 12.7882 78.2705C13.1792 98.6583 28.097 94.1626 28.097 94.1626L28.4317 90.4628C28.4317 90.4628 18.3593 88.9959 17.9589 80.741C17.5179 71.5003 23.3799 69.3029 22.5759 61.9686Z" fill="#68E1FD"/>
<path opacity="0.46" d="M22.5759 61.9686C22.0817 57.467 19.2758 55.4359 17.2582 58.0252C15.0686 60.8164 12.5661 66.583 12.7882 78.2705C13.1792 98.6583 28.097 94.1626 28.097 94.1626L28.4317 90.4628C28.4317 90.4628 18.3593 88.9959 17.9589 80.741C17.5179 71.5003 23.3799 69.3029 22.5759 61.9686Z" fill="white"/>
<path d="M34.165 87.7664L29.0913 101.711L36.1827 108.76L38.7383 92.3095L34.165 87.7664Z" fill="#FFD200"/>
<path d="M34.8657 103.7L42.3262 95.8848L44.1498 97.6664C44.2081 97.7225 44.2545 97.8146 44.2815 97.9275C44.3086 98.0403 44.3146 98.1673 44.2985 98.2875C44.2825 98.4077 44.2455 98.514 44.1934 98.5889C44.1414 98.6638 44.0775 98.7029 44.0122 98.6997L43.1801 98.6701C42.9597 98.667 42.7431 98.7801 42.5545 98.9967L35.4788 107.05L34.8657 103.7Z" fill="#FFD200"/>
<path d="M28.3408 91.5554C28.3408 91.5554 30.1238 90.3677 30.6774 92.3215C31.2311 94.2754 29.9799 95.0177 28.103 94.1625L28.3408 91.5554Z" fill="#F4A28C"/>
<path d="M34.165 87.7664L37.2024 87.9564L38.7383 92.3095L34.165 87.7664Z" fill="#FFD200"/>
<path opacity="0.17" d="M34.165 87.7664L37.2024 87.9564L38.7383 92.3095L34.165 87.7664Z" fill="black"/>
<path d="M30.3491 104.918C30.3491 104.918 31.9945 106.462 32.6326 104.543L30.6244 103.249L30.3491 104.918Z" fill="#F4A28C"/>
<g opacity="0.48">
<path d="M44.3159 96.6629L44.4596 96.5558" stroke="#606E24" stroke-width="1.4478" stroke-linecap="round" stroke-linejoin="round"/>
<path d="M46.0083 95.8195C48.5952 95.095 53.5751 95.968 56.747 110.981" stroke="#606E24" stroke-width="1.4478" stroke-linecap="round" stroke-linejoin="round" stroke-dasharray="0.74 3.7"/>
<path d="M57.0283 112.395C57.0283 112.49 57.0627 112.585 57.0815 112.68" stroke="#606E24" stroke-width="1.4478" stroke-linecap="round" stroke-linejoin="round"/>
</g>
<path d="M12.6255 91.2644L13.0353 119.622H14.7995L15.863 103.92C15.952 102.614 16.2392 101.385 16.6896 100.383C17.1401 99.3811 17.7343 98.6498 18.3999 98.2781L21.0994 96.7756L12.6255 91.2644Z" fill="#24285B"/>
<path d="M21.0866 96.7756L22.2533 119.622H20.5611L16.8574 98.2662L21.0866 96.7756Z" fill="#24285B"/>
<path d="M54.6198 120.899H75.6717C75.6717 120.899 71.9744 119.278 69.9818 115.857C67.9892 112.436 67.7077 50.6849 67.7077 50.6849L80.4139 35.5647V32.3222C80.4139 32.3222 71.7836 41.1413 67.423 42.9466L67.0383 29.8041H61.6392L60.9761 59.6405L50.4595 46.5455V51.5876C50.4595 51.5876 57.654 58.5775 60.7821 69.2138L60.7039 106.48C60.6994 108.889 60.3582 111.253 59.7153 113.33C59.0723 115.408 58.1505 117.124 57.0441 118.304L54.6198 120.899Z" fill="#E6E6E6"/>
<path d="M46.4493 42.1031C46.4493 42.1031 44 42.6436 44.782 46.8542C45.564 51.0648 48.1071 49.0099 46.9873 53.565C45.8674 58.12 49.2864 60.8162 50.4501 58.4288C51.6137 56.0414 50.716 52.11 53.1746 52.5673C55.6333 53.0246 56.4466 44.6925 54.1725 44.152C51.8984 43.6116 53.2341 38.4805 51.1132 37.946C50.7348 37.8256 50.346 37.9257 49.9981 38.2331C49.6502 38.5406 49.3596 39.0409 49.1644 39.6683C48.8662 40.4961 48.4579 41.1595 47.9811 41.5913C47.5043 42.023 46.9758 42.2078 46.4493 42.1269V42.1031Z" fill="#C4C4C4"/>
<path d="M74.3984 30.3207C74.3984 30.3207 71.9492 30.8612 72.7343 35.0718C73.5194 39.2823 76.0563 37.2216 74.924 41.7766C73.7916 46.3317 77.2262 49.0338 78.3867 46.6405C79.5472 44.2472 78.6526 40.3276 81.1113 40.7789C83.5699 41.2303 84.3832 32.91 82.1091 32.3696C79.835 31.8292 81.1707 26.6981 79.0499 26.1577C78.6719 26.0394 78.284 26.1405 77.9368 26.4478C77.5897 26.7551 77.2995 27.2542 77.1042 27.8799C76.8045 28.6995 76.3971 29.356 75.9225 29.7842C75.4478 30.2124 74.9224 30.3973 74.3984 30.3207Z" fill="#C4C4C4"/>
<path d="M58.8643 35.0717C58.8643 35.0717 58.0823 39.6624 61.7797 39.2289C65.4771 38.7953 67.8982 43.2791 68.8929 35.0717C69.8877 26.8643 65.4083 18.4432 61.6389 22.0064C57.8696 25.5697 58.8643 35.0717 58.8643 35.0717Z" fill="#8E8E8E"/>
<path d="M51.6294 59.5753C52.7178 59.5753 53.6001 57.9002 53.6001 55.8338C53.6001 53.7675 52.7178 52.0924 51.6294 52.0924C50.541 52.0924 49.6587 53.7675 49.6587 55.8338C49.6587 57.9002 50.541 59.5753 51.6294 59.5753Z" fill="#FFD200"/>
<path d="M61.0542 44.0452C62.1426 44.0452 63.0249 42.3701 63.0249 40.3037C63.0249 38.2374 62.1426 36.5623 61.0542 36.5623C59.9658 36.5623 59.0835 38.2374 59.0835 40.3037C59.0835 42.3701 59.9658 44.0452 61.0542 44.0452Z" fill="#FFD200"/>
<path d="M69.7314 23.0159C70.8198 23.0159 71.7021 21.3408 71.7021 19.2745C71.7021 17.2082 70.8198 15.5331 69.7314 15.5331C68.643 15.5331 67.7607 17.2082 67.7607 19.2745C67.7607 21.3408 68.643 23.0159 69.7314 23.0159Z" fill="#FFD200"/>
<path d="M51.0444 29.2339C52.1328 29.2339 53.0151 27.5589 53.0151 25.4925C53.0151 23.4262 52.1328 21.7511 51.0444 21.7511C49.956 21.7511 49.0737 23.4262 49.0737 25.4925C49.0737 27.5589 49.956 29.2339 51.0444 29.2339Z" fill="#FFD200"/>
<path d="M74.7895 71.3517C75.8779 71.3517 76.7602 69.6766 76.7602 67.6103C76.7602 65.5439 75.8779 63.8688 74.7895 63.8688C73.7012 63.8688 72.8188 65.5439 72.8188 67.6103C72.8188 69.6766 73.7012 71.3517 74.7895 71.3517Z" fill="#FFD200"/>
<path d="M80.4141 45.8149C81.5024 45.8149 82.3847 44.1399 82.3847 42.0735C82.3847 40.0072 81.5024 38.3321 80.4141 38.3321C79.3257 38.3321 78.4434 40.0072 78.4434 42.0735C78.4434 44.1399 79.3257 45.8149 80.4141 45.8149Z" fill="#FFD200"/>
</svg>
