<svg width="42" height="42" viewBox="0 0 42 42" fill="none" xmlns="http://www.w3.org/2000/svg">
<path d="M36.2104 4.66724H6.75129C6.04283 4.66724 5.47046 5.23961 5.47046 5.94807V35.4072C5.47046 36.1156 6.04283 36.688 6.75129 36.688H36.2104C36.9189 36.688 37.4912 36.1156 37.4912 35.4072V5.94807C37.4912 5.23961 36.9189 4.66724 36.2104 4.66724ZM32.512 14.0133H29.9543C27.949 14.0133 27.5608 14.9659 27.5608 16.3668V19.4528H32.3479L31.7235 24.284H27.5608V36.688H22.5696V24.288H18.3948V19.4528H22.5696V15.8905C22.5696 11.7558 25.0952 9.50237 28.7856 9.50237C30.5547 9.50237 32.0717 9.63446 32.516 9.6945V14.0133H32.512Z" fill="#C7FF00"/>
</svg>
