<svg width="42" height="42" viewBox="0 0 42 42" fill="none" xmlns="http://www.w3.org/2000/svg">
<path d="M36.198 4.66724H6.73884C6.03038 4.66724 5.45801 5.23961 5.45801 5.94807V35.4072C5.45801 36.1156 6.03038 36.688 6.73884 36.688H36.198C36.9064 36.688 37.4788 36.1156 37.4788 35.4072V5.94807C37.4788 5.23961 36.9064 4.66724 36.198 4.66724ZM14.9562 31.9529H10.2051V16.671H14.9562V31.9529ZM12.5826 14.5817C12.038 14.5817 11.5056 14.4202 11.0527 14.1176C10.5999 13.815 10.2469 13.3849 10.0385 12.8817C9.83004 12.3785 9.7755 11.8248 9.88176 11.2906C9.98801 10.7565 10.2503 10.2658 10.6354 9.88066C11.0205 9.49554 11.5112 9.23326 12.0454 9.12701C12.5796 9.02075 13.1333 9.07529 13.6365 9.28372C14.1396 9.49214 14.5697 9.8451 14.8723 10.298C15.1749 10.7508 15.3364 11.2832 15.3364 11.8279C15.3324 13.3489 14.0996 14.5817 12.5826 14.5817ZM32.7437 31.9529H27.9966V24.5201C27.9966 22.747 27.9646 20.4695 25.527 20.4695C23.0574 20.4695 22.6772 22.3987 22.6772 24.392V31.9529H17.9341V16.671H22.4891V18.7604H22.5531C23.1855 17.5596 24.7345 16.2908 27.048 16.2908C31.8591 16.2908 32.7437 19.4568 32.7437 23.5715V31.9529V31.9529Z" fill="#C7FF00"/>
</svg>
