<svg width="42" height="42" viewBox="0 0 42 42" fill="none" xmlns="http://www.w3.org/2000/svg">
<path d="M35.5075 5.23975H6.04841C5.33995 5.23975 4.76758 5.81212 4.76758 6.52058V35.9797C4.76758 36.6882 5.33995 37.2605 6.04841 37.2605H35.5075C36.216 37.2605 36.7884 36.6882 36.7884 35.9797V6.52058C36.7884 5.81212 36.216 5.23975 35.5075 5.23975ZM14.2657 32.5255H9.51466V17.2435H14.2657V32.5255ZM11.8922 15.1542C11.3476 15.1542 10.8151 14.9927 10.3623 14.6901C9.90942 14.3875 9.55646 13.9574 9.34803 13.4542C9.13961 12.951 9.08507 12.3973 9.19133 11.8632C9.29758 11.329 9.55986 10.8383 9.94498 10.4532C10.3301 10.068 10.8208 9.80577 11.355 9.69952C11.8891 9.59326 12.4428 9.6478 12.946 9.85622C13.4492 10.0647 13.8793 10.4176 14.1819 10.8705C14.4845 11.3233 14.646 11.8557 14.646 12.4004C14.642 13.9214 13.4092 15.1542 11.8922 15.1542ZM32.0533 32.5255H27.3062V25.0926C27.3062 23.3195 27.2742 21.042 24.8366 21.042C22.367 21.042 21.9868 22.9713 21.9868 24.9645V32.5255H17.2437V17.2435H21.7986V19.3329H21.8627C22.4951 18.1321 24.0441 16.8633 26.3576 16.8633C31.1687 16.8633 32.0533 20.0293 32.0533 24.144V32.5255V32.5255Z" fill="#C7FF00"/>
</svg>
