<svg width="41" height="42" viewBox="0 0 41 42" fill="none" xmlns="http://www.w3.org/2000/svg">
<path d="M37.145 10.363C35.9202 10.8913 34.5873 11.2716 33.2144 11.4197C34.6398 10.5728 35.7072 9.23503 36.2164 7.65721C34.8788 8.45288 33.4136 9.01082 31.8855 9.30628C31.2469 8.62354 30.4745 8.07964 29.6165 7.70847C28.7585 7.3373 27.8332 7.14682 26.8983 7.14888C23.1159 7.14888 20.0739 10.2149 20.0739 13.9773C20.0739 14.5057 20.1379 15.034 20.242 15.5423C14.5783 15.2461 9.52705 12.5404 6.16887 8.39769C5.55697 9.44283 5.23632 10.6328 5.24026 11.8439C5.24026 14.2135 6.44505 16.3028 8.28224 17.5316C7.19955 17.489 6.14222 17.1914 5.19624 16.6631V16.7471C5.19624 20.0653 7.54176 22.815 10.6678 23.4475C10.0808 23.5999 9.47704 23.6779 8.87062 23.6796C8.42633 23.6796 8.00606 23.6356 7.58178 23.5755C8.44634 26.2813 10.964 28.2466 13.9619 28.3106C11.6164 30.1478 8.6785 31.2285 5.48843 31.2285C4.91605 31.2285 4.38771 31.2085 3.83936 31.1445C6.86532 33.0857 10.4556 34.2064 14.3222 34.2064C26.8743 34.2064 33.7428 23.8077 33.7428 14.7818C33.7428 14.4856 33.7428 14.1894 33.7227 13.8933C35.0516 12.9206 36.2164 11.7158 37.145 10.363Z" fill="#C7FF00"/>
</svg>
