<svg width="42" height="42" viewBox="0 0 42 42" fill="none" xmlns="http://www.w3.org/2000/svg">
<path d="M35.5202 5.23975H6.0611C5.35264 5.23975 4.78027 5.81212 4.78027 6.52058V35.9797C4.78027 36.6882 5.35264 37.2605 6.0611 37.2605H35.5202C36.2287 37.2605 36.8011 36.6882 36.8011 35.9797V6.52058C36.8011 5.81212 36.2287 5.23975 35.5202 5.23975ZM31.8218 14.5858H29.2642C27.2589 14.5858 26.8706 15.5384 26.8706 16.9393V20.0253H31.6577L31.0333 24.8565H26.8706V37.2605H21.8794V24.8605H17.7047V20.0253H21.8794V16.463C21.8794 12.3283 24.405 10.0749 28.0954 10.0749C29.8646 10.0749 31.3815 10.207 31.8258 10.267V14.5858H31.8218Z" fill="#C7FF00"/>
</svg>
