<svg width="42" height="42" viewBox="0 0 42 42" fill="none" xmlns="http://www.w3.org/2000/svg">
<path d="M37.4545 10.9355C36.2297 11.4639 34.8969 11.8441 33.524 11.9922C34.9494 11.1454 36.0168 9.8076 36.5259 8.22978C35.1884 9.02545 33.7231 9.58339 32.1951 9.87885C31.5565 9.19611 30.7841 8.65222 29.9261 8.28104C29.068 7.90987 28.1428 7.71939 27.2079 7.72145C23.4254 7.72145 20.3835 10.7874 20.3835 14.5499C20.3835 15.0782 20.4475 15.6066 20.5516 16.1149C14.8879 15.8187 9.83662 13.113 6.47844 8.97026C5.86654 10.0154 5.54589 11.2054 5.54983 12.4165C5.54983 14.786 6.75462 16.8754 8.59181 18.1042C7.50912 18.0616 6.45179 17.764 5.50581 17.2356V17.3197C5.50581 20.6378 7.85133 23.3876 10.9774 24.02C10.3904 24.1725 9.78661 24.2505 9.18019 24.2522C8.7359 24.2522 8.31563 24.2082 7.89135 24.1481C8.75591 26.8539 11.2735 28.8191 14.2715 28.8832C11.926 30.7204 8.98807 31.8011 5.798 31.8011C5.22562 31.8011 4.69728 31.7811 4.14893 31.717C7.17489 33.6583 10.7652 34.779 14.6317 34.779C27.1839 34.779 34.0523 24.3803 34.0523 15.3544C34.0523 15.0582 34.0523 14.762 34.0323 14.4658C35.3612 13.4932 36.5259 12.2884 37.4545 10.9355Z" fill="#C7FF00"/>
</svg>
