<svg width="12" height="12" viewBox="0 0 12 12" fill="none" xmlns="http://www.w3.org/2000/svg">
<path fill-rule="evenodd" clip-rule="evenodd" d="M8.51495 1.23456C8.54987 1.26939 8.57758 1.31078 8.59648 1.35633C8.61539 1.40189 8.62512 1.45073 8.62512 1.50006C8.62512 1.54939 8.61539 1.59823 8.59648 1.64379C8.57758 1.68934 8.54987 1.73073 8.51495 1.76556L4.2797 6.00006L8.51495 10.2346C8.58536 10.305 8.62492 10.4005 8.62492 10.5001C8.62492 10.5996 8.58536 10.6951 8.51495 10.7656C8.44453 10.836 8.34903 10.8755 8.24945 10.8755C8.14987 10.8755 8.05436 10.836 7.98395 10.7656L3.48395 6.26556C3.44903 6.23073 3.42132 6.18934 3.40241 6.14378C3.38351 6.09823 3.37378 6.04939 3.37378 6.00006C3.37378 5.95073 3.38351 5.90189 3.40241 5.85633C3.42132 5.81078 3.44903 5.76939 3.48395 5.73456L7.98395 1.23456C8.01878 1.19964 8.06017 1.17193 8.10572 1.15303C8.15128 1.13412 8.20012 1.12439 8.24945 1.12439C8.29878 1.12439 8.34762 1.13412 8.39317 1.15303C8.43873 1.17193 8.48012 1.19964 8.51495 1.23456V1.23456Z" fill="white"/>
</svg>
