<svg width="12" height="12" viewBox="0 0 12 12" fill="none" xmlns="http://www.w3.org/2000/svg">
<path fill-rule="evenodd" clip-rule="evenodd" d="M3.48395 1.23456C3.51878 1.19964 3.56017 1.17193 3.60572 1.15303C3.65128 1.13412 3.70012 1.12439 3.74945 1.12439C3.79877 1.12439 3.84762 1.13412 3.89317 1.15303C3.93873 1.17193 3.98012 1.19964 4.01495 1.23456L8.51495 5.73456C8.54987 5.76939 8.57758 5.81078 8.59648 5.85633C8.61539 5.90189 8.62512 5.95073 8.62512 6.00006C8.62512 6.04939 8.61539 6.09823 8.59648 6.14378C8.57758 6.18934 8.54987 6.23073 8.51495 6.26556L4.01495 10.7656C3.94453 10.836 3.84903 10.8755 3.74945 10.8755C3.64987 10.8755 3.55436 10.836 3.48395 10.7656C3.41353 10.6951 3.37398 10.5996 3.37398 10.5001C3.37398 10.4005 3.41353 10.305 3.48395 10.2346L7.7192 6.00006L3.48395 1.76556C3.44903 1.73073 3.42132 1.68934 3.40241 1.64379C3.38351 1.59823 3.37378 1.54939 3.37378 1.50006C3.37378 1.45073 3.38351 1.40189 3.40241 1.35633C3.42132 1.31078 3.44903 1.26939 3.48395 1.23456V1.23456Z" fill="white"/>
</svg>
