<svg width="83" height="15" viewBox="0 0 83 15" fill="none" xmlns="http://www.w3.org/2000/svg">
<path d="M7.00147 0.0585938C3.13542 0.0585938 0.00146484 3.19255 0.00146484 7.05859C0.00146484 10.9246 3.13542 14.0586 7.00147 14.0586C10.8675 14.0586 14.0015 10.9246 14.0015 7.05859C14.0015 3.19255 10.8675 0.0585938 7.00147 0.0585938ZM8.65959 4.89589H7.6074C7.48272 4.89589 7.34418 5.05995 7.34418 5.27797V6.03776H8.66032L8.46126 7.1213H7.34418V10.3741H6.1024V7.1213H4.97584V6.03776H6.1024V5.40047C6.1024 4.48609 6.73678 3.74307 7.6074 3.74307H8.65959V4.89589V4.89589Z" fill="#191919"/>
<path d="M75.0015 0.0585938C71.1354 0.0585938 68.0015 3.19255 68.0015 7.05859C68.0015 10.9246 71.1354 14.0586 75.0015 14.0586C78.8675 14.0586 82.0015 10.9246 82.0015 7.05859C82.0015 3.19255 78.8675 0.0585938 75.0015 0.0585938ZM77.8489 5.79276C77.8518 5.85255 77.8525 5.91234 77.8525 5.97068C77.8525 7.79359 76.4664 9.89432 73.9303 9.89432C73.181 9.89557 72.4472 9.68035 71.8172 9.27453C71.9244 9.28766 72.0345 9.29276 72.146 9.29276C72.7921 9.29276 73.3864 9.07328 73.8581 8.70286C73.5706 8.69722 73.2921 8.60202 73.0612 8.43053C72.8304 8.25905 72.6588 8.01982 72.5704 7.7462C72.7769 7.78546 72.9896 7.77723 73.1924 7.72214C72.8804 7.65903 72.5997 7.48995 72.3981 7.24356C72.1965 6.99716 72.0863 6.68862 72.0863 6.37026V6.35349C72.2722 6.4563 72.4851 6.51901 72.7112 6.5263C72.4186 6.33156 72.2115 6.03242 72.1322 5.69004C72.0529 5.34767 72.1074 4.98794 72.2846 4.68443C72.6309 5.11026 73.0628 5.45862 73.5523 5.70695C74.0418 5.95527 74.578 6.09803 75.1262 6.12599C75.0565 5.83017 75.0865 5.51962 75.2115 5.24261C75.3365 4.9656 75.5495 4.73765 75.8175 4.5942C76.0854 4.45076 76.3932 4.39985 76.6931 4.4494C76.9929 4.49894 77.268 4.64616 77.4755 4.86818C77.7841 4.80713 78.08 4.69395 78.3505 4.53349C78.2477 4.85296 78.0324 5.12424 77.7446 5.29693C78.0179 5.26401 78.2848 5.19053 78.5365 5.07891C78.3516 5.35591 78.1188 5.59766 77.8489 5.79276V5.79276Z" fill="#191919"/>
<path d="M43.189 7.05859C43.189 7.63875 42.9585 8.19515 42.5483 8.60539C42.138 9.01563 41.5816 9.24609 41.0015 9.24609C40.4213 9.24609 39.8649 9.01563 39.4547 8.60539C39.0444 8.19515 38.814 7.63875 38.814 7.05859C38.814 6.93391 38.8271 6.81214 38.8497 6.69401H38.0848V9.60849C38.0848 9.8112 38.2489 9.97526 38.4516 9.97526H43.5521C43.6492 9.97507 43.7423 9.93634 43.811 9.86758C43.8796 9.79882 43.9181 9.70564 43.9181 9.60849V6.69401H43.1532C43.1758 6.81214 43.189 6.93391 43.189 7.05859V7.05859ZM41.0015 8.51693C41.193 8.51688 41.3827 8.4791 41.5597 8.40575C41.7366 8.3324 41.8974 8.22491 42.0328 8.08943C42.1682 7.95394 42.2756 7.79311 42.3489 7.61611C42.4222 7.43912 42.4598 7.24942 42.4598 7.05786C42.4598 6.86631 42.422 6.67663 42.3486 6.49967C42.2753 6.32271 42.1678 6.16193 42.0323 6.02652C41.8968 5.8911 41.736 5.78369 41.559 5.71043C41.382 5.63717 41.1923 5.59948 41.0007 5.59953C40.6139 5.59963 40.2429 5.7534 39.9694 6.02703C39.6959 6.30066 39.5423 6.67172 39.5424 7.05859C39.5425 7.44546 39.6963 7.81645 39.9699 8.08994C40.2435 8.36343 40.6146 8.51702 41.0015 8.51693V8.51693ZM42.7515 5.52734H43.6257C43.6838 5.52734 43.7395 5.50432 43.7807 5.46332C43.8218 5.42231 43.845 5.36668 43.8452 5.30859V4.43432C43.8452 4.37611 43.8221 4.32029 43.7809 4.27913C43.7398 4.23797 43.6839 4.21484 43.6257 4.21484H42.7515C42.6933 4.21484 42.6374 4.23797 42.5963 4.27913C42.5551 4.32029 42.532 4.37611 42.532 4.43432V5.30859C42.5327 5.42891 42.6312 5.52734 42.7515 5.52734V5.52734ZM41.0015 0.0585938C39.145 0.0585938 37.3645 0.796091 36.0517 2.10885C34.739 3.4216 34.0015 5.20208 34.0015 7.05859C34.0015 8.91511 34.739 10.6956 36.0517 12.0083C37.3645 13.3211 39.145 14.0586 41.0015 14.0586C41.9207 14.0586 42.831 13.8775 43.6803 13.5258C44.5295 13.174 45.3012 12.6584 45.9512 12.0083C46.6012 11.3583 47.1168 10.5867 47.4686 9.73738C47.8204 8.8881 48.0015 7.97785 48.0015 7.05859C48.0015 6.13934 47.8204 5.22909 47.4686 4.37981C47.1168 3.53053 46.6012 2.75886 45.9512 2.10885C45.3012 1.45884 44.5295 0.94322 43.6803 0.591437C42.831 0.239654 41.9207 0.0585938 41.0015 0.0585938V0.0585938ZM44.6473 9.89432C44.6473 10.3398 44.2827 10.7044 43.8372 10.7044H38.1657C37.7202 10.7044 37.3556 10.3398 37.3556 9.89432V4.22286C37.3556 3.77734 37.7202 3.41276 38.1657 3.41276H43.8372C44.2827 3.41276 44.6473 3.77734 44.6473 4.22286V9.89432V9.89432Z" fill="#191919"/>
</svg>
