<svg width="25" height="25" viewBox="0 0 25 25" fill="none" xmlns="http://www.w3.org/2000/svg">
<g opacity="0.5">
<circle cx="12.5806" cy="12.6598" r="11.65" stroke="white" stroke-width="0.7"/>
<g clip-path="url(#clip0_112_115)">
<path fill-rule="evenodd" clip-rule="evenodd" d="M8.86272 9.52281C8.41307 9.52281 8.04918 9.88671 8.04918 10.3364V14.9834C8.04918 15.433 8.41307 15.7969 8.86272 15.7969H13.5098C13.9594 15.7969 14.3233 15.433 14.3233 14.9834V10.3364C14.3233 9.88671 13.9594 9.52281 13.5098 9.52281H8.86272ZM7.35205 10.3364C7.35205 9.50189 8.02826 8.82568 8.86272 8.82568H13.5098C14.3442 8.82568 15.0204 9.50189 15.0204 10.3364V14.9834C15.0204 15.8178 14.3442 16.4941 13.5098 16.4941H8.86272C8.46207 16.4941 8.07782 16.3349 7.79452 16.0516C7.51121 15.7683 7.35205 15.384 7.35205 14.9834V10.3364Z" fill="white"/>
<path fill-rule="evenodd" clip-rule="evenodd" d="M14.8461 11.0217L16.7757 9.90283C16.8089 9.88285 16.8467 9.87189 16.8854 9.87106C16.9241 9.87024 16.9624 9.87956 16.9963 9.8981C17.0303 9.91664 17.0589 9.94376 17.0791 9.97676C17.0993 10.0098 17.1106 10.0475 17.1117 10.0862V15.2337C17.1117 15.3927 16.9305 15.5077 16.7757 15.4178L14.8468 14.2989L14.4968 14.9019L16.4258 16.0208C17.0246 16.368 17.8089 15.9546 17.8089 15.2337V10.0862C17.8089 9.36604 17.0246 8.95265 16.4258 9.29981L14.4975 10.4187L14.8475 11.0217H14.8461Z" fill="white"/>
</g>
</g>
<defs>
<clipPath id="clip0_112_115">
<rect width="11.154" height="11.154" fill="white" transform="translate(7.00342 7.08289)"/>
</clipPath>
</defs>
</svg>
