<svg width="159" height="37" viewBox="0 0 159 37" fill="none" xmlns="http://www.w3.org/2000/svg">
<path d="M18.2855 0.7314C8.59054 0.7314 0.731445 8.59049 0.731445 18.2854C0.731445 27.9804 8.59054 35.8395 18.2855 35.8395C27.9804 35.8395 35.8395 27.9804 35.8395 18.2854C35.8395 8.59049 27.9804 0.7314 18.2855 0.7314ZM22.4436 12.862H19.805C19.4923 12.862 19.1449 13.2734 19.1449 13.8201V15.7255H22.4454L21.9462 18.4427H19.1449V26.5998H16.0309V18.4427H13.2058V15.7255H16.0309V14.1273C16.0309 11.8343 17.6217 9.97104 19.805 9.97104H22.4436V12.862V12.862Z" fill="white"/>
<path d="M140.189 0.7314C130.494 0.7314 122.635 8.59049 122.635 18.2854C122.635 27.9804 130.494 35.8395 140.189 35.8395C149.884 35.8395 157.743 27.9804 157.743 18.2854C157.743 8.59049 149.884 0.7314 140.189 0.7314ZM147.329 15.1111C147.336 15.261 147.338 15.411 147.338 15.5573C147.338 20.1286 143.862 25.3967 137.502 25.3967C135.623 25.3998 133.783 24.8601 132.203 23.8424C132.472 23.8753 132.748 23.8881 133.028 23.8881C134.648 23.8881 136.138 23.3377 137.321 22.4088C136.6 22.3947 135.902 22.1559 135.323 21.7259C134.744 21.2958 134.314 20.6959 134.092 20.0098C134.61 20.1082 135.143 20.0876 135.652 19.9494C134.869 19.7912 134.166 19.3672 133.66 18.7493C133.155 18.1314 132.878 17.3577 132.878 16.5593V16.5172C133.344 16.7751 133.878 16.9323 134.445 16.9506C133.711 16.4622 133.192 15.7121 132.993 14.8535C132.794 13.9949 132.931 13.0928 133.375 12.3317C134.244 13.3996 135.327 14.2731 136.554 14.8959C137.782 15.5186 139.127 15.8766 140.501 15.9467C140.326 15.2049 140.402 14.4261 140.715 13.7315C141.029 13.0368 141.563 12.4652 142.235 12.1054C142.907 11.7457 143.679 11.6181 144.431 11.7423C145.183 11.8666 145.872 12.2357 146.393 12.7925C147.167 12.6394 147.909 12.3556 148.587 11.9532C148.329 12.7543 147.789 13.4346 147.068 13.8677C147.753 13.7851 148.422 13.6008 149.053 13.3209C148.59 14.0156 148.006 14.6218 147.329 15.1111V15.1111Z" fill="white"/>
<path d="M84.7228 18.2854C84.7228 19.7403 84.1448 21.1356 83.1161 22.1644C82.0873 23.1931 80.692 23.7711 79.2372 23.7711C77.7823 23.7711 76.387 23.1931 75.3582 22.1644C74.3295 21.1356 73.7515 19.7403 73.7515 18.2854C73.7515 17.9728 73.7844 17.6674 73.8411 17.3712H71.923V24.6799C71.923 25.1882 72.3344 25.5996 72.8427 25.5996H85.6334C85.877 25.5991 86.1105 25.502 86.2826 25.3296C86.4547 25.1572 86.5513 24.9235 86.5513 24.6799V17.3712H84.6332C84.6899 17.6674 84.7228 17.9728 84.7228 18.2854V18.2854ZM79.2372 21.9425C79.7175 21.9424 80.1932 21.8477 80.6369 21.6637C81.0807 21.4798 81.4839 21.2102 81.8235 20.8705C82.1631 20.5307 82.4324 20.1274 82.6161 19.6835C82.7999 19.2397 82.8944 18.764 82.8942 18.2836C82.8941 17.8032 82.7994 17.3276 82.6154 16.8838C82.4315 16.4401 82.162 16.0369 81.8222 15.6973C81.4824 15.3577 81.0791 15.0883 80.6353 14.9046C80.1914 14.7209 79.7157 14.6264 79.2353 14.6265C78.2652 14.6268 77.3348 15.0124 76.649 15.6986C75.9632 16.3848 75.578 17.3153 75.5782 18.2854C75.5785 19.2556 75.9641 20.1859 76.6503 20.8718C77.3365 21.5576 78.267 21.9428 79.2372 21.9425V21.9425ZM83.6257 14.4455H85.8181C85.9637 14.4455 86.1035 14.3878 86.2066 14.2849C86.3098 14.1821 86.368 14.0426 86.3685 13.8969V11.7045C86.3685 11.5585 86.3105 11.4185 86.2073 11.3153C86.1041 11.2121 85.9641 11.1541 85.8181 11.1541H83.6257C83.4797 11.1541 83.3397 11.2121 83.2365 11.3153C83.1333 11.4185 83.0753 11.5585 83.0753 11.7045V13.8969C83.0771 14.1986 83.324 14.4455 83.6257 14.4455V14.4455ZM79.2372 0.7314C74.5815 0.7314 70.1166 2.58084 66.8246 5.87286C63.5325 9.16488 61.6831 13.6298 61.6831 18.2854C61.6831 22.9411 63.5325 27.406 66.8246 30.698C70.1166 33.99 74.5815 35.8395 79.2372 35.8395C81.5424 35.8395 83.825 35.3854 85.9548 34.5033C88.0845 33.6211 90.0197 32.3281 91.6497 30.698C93.2798 29.068 94.5728 27.1328 95.455 25.0031C96.3371 22.8733 96.7912 20.5907 96.7912 18.2854C96.7912 15.9802 96.3371 13.6976 95.455 11.5678C94.5728 9.43805 93.2798 7.5029 91.6497 5.87286C90.0197 4.24282 88.0845 2.94979 85.9548 2.06762C83.825 1.18545 81.5424 0.7314 79.2372 0.7314V0.7314ZM88.3799 25.3967C88.3799 26.5139 87.4656 27.4282 86.3484 27.4282H72.1259C71.0087 27.4282 70.0944 26.5139 70.0944 25.3967V11.1742C70.0944 10.057 71.0087 9.14271 72.1259 9.14271H86.3484C87.4656 9.14271 88.3799 10.057 88.3799 11.1742V25.3967V25.3967Z" fill="white"/>
</svg>
