<svg width="17" height="18" viewBox="0 0 17 18" fill="none" xmlns="http://www.w3.org/2000/svg">
<path d="M0.979738 9.95767C0.590455 9.95767 0.330933 9.69815 0.330933 9.30886C0.330933 8.91958 0.590455 8.66006 0.979738 8.66006L16.2915 8.27075C16.6808 8.27075 16.9403 8.53027 16.9403 8.91956C16.9403 9.30884 16.6808 9.56836 16.2915 9.56836L0.979738 9.95767Z" fill="#F4A28C"/>
<path d="M8.76537 17.4838C8.37608 17.4838 8.11656 17.2243 8.11656 16.835L7.72729 1.39343C7.72729 1.00415 7.98682 0.744629 8.3761 0.744629C8.76538 0.744629 9.02491 1.00415 9.02491 1.39343L9.41417 16.835C9.54393 17.0945 9.15465 17.4838 8.76537 17.4838Z" fill="#F4A28C"/>
</svg>
