<svg width="60" height="61" viewBox="0 0 60 61" fill="none" xmlns="http://www.w3.org/2000/svg">
<circle cx="30" cy="30.8901" r="30" fill="#E3F1FF"/>
<path fill-rule="evenodd" clip-rule="evenodd" d="M35.7366 25.2137C35.7366 27.2326 35.2349 29.8658 34.4632 29.4662C34.1476 30.4968 33.4851 31.3864 32.5881 31.984C31.6911 32.5815 30.6149 32.8502 29.5423 32.7444C28.4697 32.6386 27.4667 32.1648 26.7038 31.4035C25.9408 30.6422 25.4649 29.6403 25.3568 28.5679C24.5908 27.228 23.5863 24.5429 26.1688 22.4499C26.2154 22.4347 26.2434 22.3087 26.2854 22.1232C26.4453 21.4215 26.7993 19.8616 29.0329 20.1597C30.7555 20.389 35.7366 21.2786 35.7366 25.2143V25.2137ZM33.5164 26.4866C33.5164 26.4866 33.2528 27.2577 33.5001 28.117C33.4969 29.0331 33.1346 29.9115 32.4909 30.5635C31.8473 31.2155 30.9736 31.5892 30.0576 31.6042C29.1415 31.6193 28.2561 31.2745 27.5914 30.644C26.9267 30.0135 26.5357 29.1475 26.5024 28.2319C26.587 27.9111 26.587 27.368 26.5864 26.7642C26.5858 25.6751 26.5847 24.3901 27.0834 23.8662C30.577 26.1931 33.5164 26.4866 33.5164 26.4866V26.4866Z" fill="#191919"/>
<path d="M23.5833 38.1578C23.5833 37.5267 23.9176 36.9737 24.4192 36.6657C24.4001 36.5931 24.3823 36.5201 24.3656 36.4469C24.2771 36.0484 24.208 35.6458 24.1585 35.2406C24.1084 34.8523 24.0782 34.4618 24.0681 34.0704C21.6058 35.037 19.5 36.7217 19.5 38.4903V40.6578C19.5 41.2101 19.9477 41.6578 20.5 41.6578H39.5C40.0523 41.6578 40.5 41.2101 40.5 40.6578V38.4903C40.5 36.7963 38.5692 35.1799 36.2428 34.197V34.2133C36.2533 34.5692 36.2335 34.9775 36.195 35.3701C36.16 35.7341 36.1081 36.0969 36.0457 36.4078H36.4167C36.525 36.4079 36.6311 36.4381 36.7232 36.4951C36.8153 36.552 36.8898 36.6335 36.9382 36.7304L37.5215 37.8971C37.5623 37.9782 37.5833 38.0674 37.5833 38.1578V39.3245C37.5833 39.4792 37.5219 39.6276 37.4125 39.737C37.3031 39.8464 37.1547 39.9078 37 39.9078H35.8333V38.7412H36.4167V38.2955L36.0562 37.5745H34.4438L34.0833 38.2955V38.7412H34.6667V39.9078H33.5C33.3453 39.9078 33.1969 39.8464 33.0875 39.737C32.9781 39.6276 32.9167 39.4792 32.9167 39.3245V38.1578C32.9167 38.0674 32.9377 37.9782 32.9785 37.8971L33.5618 36.7304C33.6102 36.6335 33.6847 36.552 33.7768 36.4951C33.8689 36.4381 33.975 36.4079 34.0833 36.4078H34.8504C34.8632 36.3577 34.8761 36.3023 34.8889 36.241C34.9472 35.9663 34.9992 35.618 35.0342 35.2581C35.0692 34.8976 35.0855 34.54 35.0767 34.246C35.0746 34.1242 35.065 34.0026 35.0482 33.882C35.0353 33.7992 35.0225 33.7613 35.0202 33.7531V33.7519L35.0219 33.7513C34.7124 33.6552 34.3993 33.5709 34.0833 33.4988C33.7899 33.4317 33.4866 33.8353 33.3542 34.0879H26.5C26.483 34.0554 26.4662 34.0227 26.4498 33.9899C26.3262 33.7438 26.1739 33.4398 25.9167 33.4988C25.6921 33.5495 25.4675 33.6078 25.2429 33.672C25.2357 33.7743 25.2326 33.8769 25.2336 33.9794C25.2359 34.302 25.2668 34.6969 25.3164 35.0959C25.366 35.4938 25.4331 35.8811 25.5031 36.1867C25.5229 36.2748 25.5428 36.3542 25.5614 36.4224C25.8949 36.4663 26.2087 36.6053 26.4652 36.8228C26.7218 37.0404 26.9102 37.3273 27.0079 37.6492C27.1056 37.971 27.1085 38.3142 27.0162 38.6377C26.9239 38.9611 26.7403 39.2512 26.4874 39.473C26.2346 39.6948 25.9232 39.8391 25.5905 39.8885C25.2577 39.9379 24.9178 39.8904 24.6114 39.7516C24.305 39.6129 24.0451 39.3888 23.8627 39.1061C23.6804 38.8234 23.5834 38.4942 23.5833 38.1578Z" fill="#191919"/>
<path d="M25.9167 38.1579C25.9167 38.4927 25.6472 38.75 25.3333 38.75C25.0195 38.75 24.75 38.4933 24.75 38.1579C24.75 37.823 25.0195 37.5658 25.3333 37.5658C25.6472 37.5658 25.9167 37.8225 25.9167 38.1579Z" fill="#191919"/>
</svg>
