<svg width="84" height="106" viewBox="0 0 84 106" fill="none" xmlns="http://www.w3.org/2000/svg">
<path d="M42.5216 105.484C42.1323 105.484 42.0026 105.224 41.8728 104.965C41.0943 101.591 36.8121 96.9195 29.5455 91.2101C26.3015 88.7446 22.9277 86.4089 19.8134 84.203C18.2563 83.1649 16.6991 81.997 15.4015 81.0887C15.142 80.8292 15.0123 80.4399 15.2718 80.1804C15.5313 79.9209 15.9205 79.7911 16.1801 80.0506C17.4777 80.959 18.9051 81.997 20.592 83.0351C23.7062 85.1113 27.08 87.5768 30.3241 90.0422C36.8121 95.1029 40.9645 99.385 42.5216 102.759C44.5978 97.8279 47.0632 96.141 51.2156 93.2862C52.5132 92.3779 54.0703 91.3398 55.887 89.9124C56.406 89.5232 57.0548 89.1339 57.5739 88.6148C66.2679 82.3863 80.8011 72.0054 82.6177 19.582C70.9392 16.5975 54.7191 11.1475 42.7811 1.93448C29.805 11.2773 10.9896 17.1165 2.8147 19.3225C2.8147 19.8415 2.94451 20.6201 2.94451 21.3986C3.07427 24.1236 3.33379 27.8867 3.59331 28.795C3.72308 29.1843 3.46352 29.4438 3.07424 29.5736C2.68496 29.7033 2.42546 29.4438 2.2957 29.0545C2.03618 28.0164 1.90642 24.3831 1.6469 21.3986C1.51714 20.3606 1.51709 19.4522 1.51709 18.8034C1.51709 18.5439 1.64688 18.1546 2.03617 18.1546C9.82183 16.0784 29.286 10.1094 42.3918 0.636872C42.6513 0.507111 42.9109 0.507111 43.1704 0.636872C55.2382 10.1094 71.7179 15.5594 83.3964 18.4141C83.6559 18.5439 83.9154 18.8034 83.9154 19.0629C83.1368 42.5497 79.8928 59.8079 73.794 72.0054C68.7333 82.2566 62.6345 86.5387 58.3524 89.6529C57.7036 90.0422 57.1846 90.5613 56.6655 90.9506C54.8489 92.3779 53.2917 93.416 51.8644 94.3243C47.3227 97.4386 45.1168 98.866 43.0406 104.835C43.0406 105.354 42.7811 105.484 42.5216 105.484Z" fill="#F4A28C"/>
<path d="M42.6513 93.5457C42.5216 93.5457 42.5216 93.5457 42.5216 93.416C41.3538 91.5993 34.0871 84.8517 28.5074 81.3482C28.3776 81.2184 28.3776 81.0887 28.3776 81.0887C28.3776 80.9589 28.6372 80.9589 28.6372 80.9589C33.9574 84.3327 40.9645 90.691 42.5216 92.8969C43.8192 91.21 47.4525 88.2255 53.2918 83.8136C70.1607 71.2268 74.1832 53.19 75.8701 24.2533C61.2071 20.62 50.437 15.8189 42.7811 9.84985C34.9954 15.6891 21.6301 19.5819 13.4551 21.9176C11.7682 22.4367 10.3409 22.826 9.17301 23.2152V23.4748C9.30277 24.3831 9.43254 25.8105 9.43254 26.07C9.43254 26.1997 9.30277 26.3295 9.17301 26.3295C9.04325 26.3295 8.91347 26.1997 8.91347 26.07C8.91347 25.6807 8.78369 24.3831 8.65393 23.4748V23.0855C8.65393 22.9557 8.65398 22.826 8.78374 22.826C9.95159 22.4367 11.3789 22.0474 13.1956 21.5283C21.2408 19.1926 34.8657 15.1701 42.5216 9.33081C42.6514 9.33081 42.6513 9.33081 42.7811 9.33081C50.3072 15.4296 61.2072 20.101 75.9999 23.7343C76.1297 23.7343 76.1297 23.8641 76.1297 23.9938C74.4428 53.19 70.2905 71.3566 53.2918 84.0732C47.193 88.6148 43.5597 91.7291 42.3918 93.2862C42.7811 93.5457 42.7811 93.5457 42.6513 93.5457Z" fill="#F4A28C"/>
<path d="M29.9348 49.6866C25.9122 47.6105 20.2027 49.5569 18.386 53.839C17.9967 54.7473 17.7372 55.7854 17.0884 56.564C16.1801 57.8616 14.7527 58.6402 13.4551 59.5485C11.6384 60.8461 10.0813 62.6627 9.173 64.7389C8.26467 66.6853 8.00514 69.021 8.91346 70.8377C10.3408 73.6924 14.2337 74.6008 17.0884 73.3032C18.7753 72.5246 20.2027 71.0972 21.8896 70.5782C24.6145 69.7996 27.3395 71.0972 29.9348 72.2651C32.53 73.4329 35.5145 74.471 37.98 73.1734C40.0561 72.1353 41.0942 69.5401 40.8346 67.3341C40.5751 64.9984 39.2775 62.9223 37.5906 61.3651C36.8121 60.7163 36.0336 60.0675 35.3847 59.289C34.3467 57.9914 34.0871 56.4342 33.4383 54.8771C32.6598 52.8009 31.6217 50.595 29.9348 49.6866Z" fill="#FFD42E"/>
<path d="M14.3635 74.6007C11.7682 74.6007 9.43249 73.303 8.3944 71.0971C7.22655 68.6317 8.00514 65.7769 8.65394 64.4793C9.56227 62.2734 11.1194 60.327 13.0658 59.0294C13.4551 58.7698 13.7146 58.5103 14.1039 58.3805C15.0122 57.7317 15.9206 57.2127 16.5694 56.3044C16.9587 55.7853 17.0884 55.2663 17.3479 54.6175C17.4777 54.2282 17.6075 53.9687 17.7372 53.5794C18.7753 51.3734 20.7217 49.6865 23.1872 48.7782C25.6527 47.8699 28.2479 47.9997 30.3241 49.1675C32.1407 50.0758 33.3086 52.5413 34.0872 54.6175C34.2169 55.0067 34.3466 55.5258 34.6061 55.9151C34.9954 56.9532 35.3848 57.9913 36.0336 58.8996C36.4229 59.4186 36.9419 59.9377 37.4609 60.327C37.7204 60.4567 37.8502 60.7162 38.1097 60.9758C40.1859 62.7924 41.3538 65.1281 41.6133 67.334C41.8728 70.059 40.5752 72.784 38.3693 73.8221C35.6443 75.2495 32.2704 74.0816 29.805 72.9138L29.6752 72.784C27.2098 71.6162 24.6145 70.4483 22.2789 71.2269C21.3705 71.4864 20.4622 72.0055 19.5539 72.6543C18.9051 73.0435 18.2562 73.5626 17.4777 73.9519C16.4396 74.4709 15.4015 74.6007 14.3635 74.6007ZM26.4312 49.5568C25.5229 49.5568 24.6145 49.6865 23.5765 50.0758C21.5003 50.8544 19.8134 52.2818 18.9051 54.0984C18.7753 54.3579 18.6456 54.7472 18.5158 55.0068C18.2563 55.6556 17.9968 56.3044 17.6075 56.9532C16.8289 57.9913 15.7908 58.7698 14.7527 59.4186C14.3634 59.6781 14.1039 59.8079 13.7147 60.0674C11.898 61.365 10.6003 63.0519 9.69201 64.9983C8.78369 67.0745 8.65399 69.0209 9.43256 70.5781C10.7302 73.1733 14.3634 73.8221 16.6991 72.784C17.3479 72.5245 17.9968 72.1352 18.6456 71.6162C19.5539 70.9674 20.592 70.3186 21.63 70.059C24.4848 69.1507 27.3396 70.5781 29.9348 71.7459L30.0645 71.8757C32.4002 72.9138 35.255 73.9519 37.4609 72.784C39.1478 71.8757 40.1859 69.6697 40.0561 67.5936C39.9264 65.6472 38.7585 63.7007 36.9418 62.0138C36.6823 61.8841 36.5525 61.6246 36.293 61.4948C35.774 60.9758 35.1252 60.4567 34.6061 59.8079C33.8276 58.7698 33.4383 57.602 33.049 56.4341C32.9192 56.0448 32.7895 55.6556 32.6597 55.1365C31.8812 53.1901 30.9728 51.1139 29.4157 50.3353C28.6371 49.8163 27.5991 49.5568 26.4312 49.5568Z" fill="#F4A28C"/>
<path d="M3.59333 43.5876C1.64691 45.7935 1.12782 49.1673 2.16591 51.8923C2.94447 53.8387 4.76118 55.6554 6.83735 55.3959C8.78377 55.2661 10.2111 53.4495 10.4706 51.503C10.7302 49.5566 10.2111 47.74 9.17304 46.0531C8.13495 44.3662 5.40998 41.3817 3.59333 43.5876Z" fill="#FFD42E"/>
<path d="M6.44792 56.1745C4.11222 56.1745 2.29559 54.2281 1.51702 52.2816C0.34917 49.2971 0.997991 45.6638 3.07417 43.3281C3.72297 42.5496 4.50152 42.29 5.40985 42.29C7.35627 42.5496 9.17295 44.7555 9.82176 45.9234C10.9896 47.9995 11.5087 49.9459 11.1194 51.7626C10.7301 53.709 9.17297 55.9149 6.83727 56.1745C6.70751 56.1745 6.57768 56.1745 6.44792 56.1745ZM5.15031 43.4579C4.76103 43.4579 4.37176 43.5877 4.11224 43.9769C2.29559 46.0531 1.77654 49.0376 2.81463 51.6328C3.46343 53.3197 5.02061 54.8769 6.83727 54.7471C8.26464 54.6173 9.69196 53.19 9.95149 51.5031C10.211 49.9459 9.82177 48.259 8.78369 46.4424C8.00512 45.1448 6.5777 43.5877 5.40985 43.4579C5.28009 43.4579 5.15031 43.4579 5.15031 43.4579Z" fill="#F4A28C"/>
<path d="M44.2085 41.5116C41.4835 42.5497 39.4073 45.2746 39.018 48.1294C38.7585 50.2056 39.537 52.671 41.4834 53.4496C43.1703 54.2282 45.3763 53.3198 46.5441 51.7627C47.712 50.2056 48.1012 48.2591 47.9715 46.3127C47.9715 44.2366 46.9334 40.4735 44.2085 41.5116Z" fill="#FFD42E"/>
<path d="M42.9109 54.3579C42.3918 54.3579 41.8728 54.2281 41.3537 54.0983C39.018 53.0602 38.2395 50.3353 38.499 48.1293C38.8883 45.0151 41.0942 42.0305 44.0787 40.9925C44.987 40.6032 45.8953 40.7329 46.6739 41.252C48.3608 42.2901 48.7501 45.1448 48.8799 46.5722C48.8799 49.0376 48.3608 50.9841 47.3227 52.4114C46.1549 53.4495 44.468 54.3579 42.9109 54.3579ZM44.3382 42.0306C41.8728 42.9389 39.9263 45.4043 39.5371 48.1293C39.2775 49.946 39.9264 52.1519 41.6133 52.8007C43.1704 53.4495 44.9871 52.5412 45.8954 51.3733C46.8037 50.2055 47.3228 48.5186 47.193 46.3127C47.193 44.7555 46.5442 42.8091 45.6358 42.1603C45.3763 41.9008 44.987 41.9008 44.3382 42.0306Z" fill="#F4A28C"/>
<path d="M15.9206 30.0926C13.9742 32.2985 13.4551 35.6723 14.4932 38.3973C15.2717 40.3437 17.0884 42.1603 19.1646 41.9008C21.111 41.7711 22.5384 39.9544 22.7979 38.008C23.0574 36.0616 22.5384 34.2449 21.5003 32.558C20.592 30.7414 17.867 27.8866 15.9206 30.0926Z" fill="#FFD42E"/>
<path d="M18.9051 42.5497C16.5694 42.5497 14.7528 40.6033 13.9742 38.6569C12.8063 35.6724 13.4551 32.0391 15.5313 29.7034C16.1801 28.9248 16.9587 28.6653 17.867 28.6653C19.8134 28.9248 21.63 31.1307 22.2789 32.2986C23.4467 34.3748 23.9657 36.3212 23.5765 38.1378C23.1872 40.0843 21.6301 42.2902 19.2944 42.5497C19.1646 42.5497 19.0349 42.5497 18.9051 42.5497ZM17.4777 29.9629C17.0884 29.9629 16.6991 30.0927 16.4396 30.4819C14.623 32.5581 14.1039 35.5426 15.142 38.1378C15.7908 39.8247 17.348 41.3819 19.1646 41.2521C20.592 41.1223 22.0193 39.695 22.2789 38.0081C22.5384 36.4509 22.1491 34.7641 21.1111 32.9474C20.3325 31.6498 18.9051 30.0927 17.7372 29.9629C17.6075 29.9629 17.6074 29.9629 17.4777 29.9629Z" fill="#F4A28C"/>
<path d="M35.9037 29.9629C37.8501 32.1688 38.499 35.5426 37.4609 38.2676C36.6823 40.214 34.8657 42.0307 32.7895 41.9009C30.8431 41.7711 29.4157 39.9545 29.1561 38.1378C28.7669 36.3212 29.4157 34.3748 30.324 32.6879C31.3621 30.7415 33.9573 27.757 35.9037 29.9629Z" fill="#FFD42E"/>
<path d="M33.049 42.42C32.9192 42.42 32.7895 42.42 32.6597 42.42C30.324 42.1605 28.7669 40.0843 28.3776 38.1379C28.1181 36.3213 28.5074 34.3748 29.6752 32.1689C30.324 31.001 32.011 28.6654 34.0871 28.5356C34.9955 28.4058 35.774 28.7951 36.4228 29.4439C38.499 31.7796 39.1478 35.4129 38.1097 38.3974C37.3311 40.4736 35.5145 42.42 33.049 42.42ZM34.3466 29.8332H34.2169C33.049 29.963 31.6217 31.5201 30.8431 32.8177C29.805 34.6344 29.4157 36.3213 29.6752 37.8784C29.9348 39.3058 31.1026 40.9927 32.7895 41.1224C34.6062 41.2522 36.1633 39.695 36.8121 38.0081C37.7204 35.4129 37.2014 32.4284 35.3848 30.3523C35.1252 29.963 34.7359 29.8332 34.3466 29.8332Z" fill="#F4A28C"/>
<path d="M12.6765 71.3567H12.5467C11.5086 70.3186 10.9896 68.6317 11.3789 67.0746C11.3789 66.9448 11.5086 66.9448 11.6383 66.9448C11.7681 66.9448 11.7682 67.0746 11.7682 67.2043C11.3789 68.502 11.8979 70.0591 12.8062 71.0972C12.936 71.2269 12.936 71.3567 12.8062 71.3567C12.8062 71.3567 12.8063 71.3567 12.6765 71.3567Z" fill="#F4A28C"/>
</svg>
