<svg width="467" height="226" viewBox="0 0 467 226" fill="none" xmlns="http://www.w3.org/2000/svg">
<path d="M456.963 225.484H11.2342C4.22709 225.484 0.46402 218.996 0.46402 214.454L1.11282 9.95083C1.11282 5.66871 5.39495 0.478278 10.7152 0.478278L455.536 0.21875C460.856 0.21875 466.695 4.76039 466.695 11.1187V216.53C466.566 220.683 462.413 225.484 456.963 225.484ZM455.406 1.51636L10.5854 1.77589C6.04375 1.77589 2.41044 6.18776 2.41044 9.95083L1.76163 214.454C1.76163 217.698 4.61638 224.186 11.2342 224.186H456.963C461.635 224.186 465.138 220.034 465.138 216.53V11.1187C465.268 5.66872 460.078 1.51636 455.406 1.51636Z" fill="white"/>
<path d="M2.54019 20.8508C2.15091 20.8508 1.89139 20.5913 1.89139 20.202C1.89139 19.8127 2.15091 19.5532 2.54019 19.5532L465.398 19.0342C465.787 19.0342 466.047 19.2937 466.047 19.683C466.047 20.0723 465.787 20.3318 465.398 20.3318L2.54019 20.8508Z" fill="white"/>
<path d="M449.307 9.43189C448.659 9.30213 447.88 9.69142 447.621 10.2105C447.361 10.7295 447.231 11.2485 447.491 11.7676C447.75 12.2866 448.269 12.5462 448.918 12.5462C449.826 12.5462 450.475 11.8974 450.475 11.1188C450.605 10.3402 449.956 9.56165 449.307 9.43189Z" fill="white"/>
<path d="M434.385 9.43189C433.736 9.30213 432.958 9.69142 432.698 10.2105C432.438 10.7295 432.309 11.2485 432.568 11.7676C432.828 12.2866 433.347 12.5462 433.996 12.5462C434.904 12.5462 435.553 11.8974 435.553 11.1188C435.553 10.3402 434.904 9.56165 434.385 9.43189Z" fill="white"/>
<path d="M418.424 9.43189C417.775 9.30213 416.997 9.69142 416.737 10.2105C416.478 10.7295 416.348 11.2485 416.608 11.7676C416.867 12.2866 417.386 12.5462 418.035 12.5462C418.943 12.5462 419.592 11.8974 419.592 11.1188C419.592 10.3402 418.943 9.56165 418.424 9.43189Z" fill="white"/>
<path d="M262.192 178.9L222.615 178.64C222.485 178.64 222.355 178.51 222.355 178.381C222.355 178.251 222.485 178.121 222.615 178.121L262.192 178.381C262.322 178.381 262.452 178.51 262.452 178.64C262.452 178.9 262.322 178.9 262.192 178.9Z" fill="white"/>
<path d="M258.299 186.815L226.378 186.556C226.248 186.556 226.118 186.426 226.118 186.296C226.118 186.166 226.248 186.037 226.378 186.037L258.299 186.296C258.429 186.296 258.559 186.426 258.559 186.556C258.559 186.685 258.429 186.815 258.299 186.815Z" fill="white"/>
<path d="M262.192 194.73L222.615 194.471C222.485 194.471 222.355 194.341 222.355 194.211C222.355 194.082 222.485 193.952 222.615 193.952L262.192 194.211C262.322 194.211 262.452 194.341 262.452 194.471C262.452 194.601 262.322 194.73 262.192 194.73Z" fill="white"/>
<path d="M121.791 178.9L82.2135 178.64C82.0837 178.64 81.9539 178.51 81.9539 178.381C81.9539 178.251 82.0837 178.121 82.2135 178.121L121.791 178.381C121.92 178.381 122.05 178.51 122.05 178.64C122.05 178.9 121.92 178.9 121.791 178.9Z" fill="white"/>
<path d="M117.898 186.815L85.9765 186.556C85.8468 186.556 85.717 186.426 85.717 186.296C85.717 186.166 85.8468 186.037 85.9765 186.037L117.898 186.296C118.028 186.296 118.157 186.426 118.157 186.556C118.157 186.685 118.028 186.815 117.898 186.815Z" fill="white"/>
<path d="M121.791 194.73L82.2135 194.471C82.0837 194.471 81.9539 194.341 81.9539 194.211C81.9539 194.082 82.0837 193.952 82.2135 193.952L121.791 194.211C121.92 194.211 122.05 194.341 122.05 194.471C122.05 194.601 121.92 194.73 121.791 194.73Z" fill="white"/>
<path d="M402.593 178.9L363.016 178.64C362.887 178.64 362.757 178.51 362.757 178.381C362.757 178.251 362.887 178.121 363.016 178.121L402.593 178.381C402.723 178.381 402.853 178.51 402.853 178.64C402.853 178.9 402.723 178.9 402.593 178.9Z" fill="white"/>
<path d="M398.701 186.815L366.779 186.556C366.65 186.556 366.52 186.426 366.52 186.296C366.52 186.166 366.65 186.037 366.779 186.037L398.701 186.296C398.83 186.296 398.96 186.426 398.96 186.556C398.96 186.685 398.83 186.815 398.701 186.815Z" fill="white"/>
<path d="M402.593 194.73L363.016 194.471C362.887 194.471 362.757 194.341 362.757 194.211C362.757 194.082 362.887 193.952 363.016 193.952L402.593 194.211C402.723 194.211 402.853 194.341 402.853 194.471C402.853 194.601 402.723 194.73 402.593 194.73Z" fill="white"/>
<path d="M240.781 155.543C240.392 155.543 240.262 155.283 240.133 155.024C239.354 151.65 235.072 146.978 227.805 141.269C224.561 138.803 221.188 136.468 218.073 134.392C216.516 133.224 214.959 132.186 213.661 131.277C213.402 131.018 213.272 130.629 213.532 130.369C213.791 130.109 214.18 129.98 214.44 130.239C215.738 131.148 217.165 132.186 218.852 133.224C221.966 135.3 225.34 137.765 228.584 140.231C235.072 145.292 239.224 149.574 240.781 152.947C242.858 148.016 245.323 146.33 249.475 143.475C250.773 142.567 252.33 141.528 254.147 140.101C254.666 139.712 255.315 139.322 255.834 138.803C264.528 132.575 279.061 122.194 280.878 69.7706C269.199 66.7861 252.979 61.3361 241.041 52.1231C228.065 61.4659 209.25 67.3051 201.075 69.5111C201.075 70.0301 201.204 70.8087 201.204 71.5872C201.334 74.3122 201.594 78.0753 201.853 78.9836C201.983 79.3729 201.723 79.6324 201.334 79.7622C200.945 79.8919 200.685 79.6324 200.556 79.2431C200.296 78.2051 200.166 74.5717 199.907 71.717C199.777 70.6789 199.777 69.7706 199.777 69.1218C199.777 68.8623 199.907 68.473 200.296 68.473C208.082 66.3968 227.546 60.4278 240.652 50.9552C240.911 50.8255 241.171 50.8255 241.43 50.9552C253.498 60.4278 269.978 65.8778 281.656 68.8623C281.916 68.992 282.175 69.2515 282.175 69.5111C281.397 92.9978 278.153 110.256 272.054 122.454C266.993 132.705 260.894 136.987 256.612 140.101C255.964 140.49 255.444 141.009 254.925 141.399C253.109 142.826 251.552 143.864 250.124 144.772C245.583 147.887 243.377 149.314 241.3 155.283C241.3 155.283 241.041 155.543 240.781 155.543Z" fill="white"/>
<path d="M241.041 143.475C240.911 143.475 240.911 143.475 240.911 143.345C239.743 141.528 232.477 134.781 226.897 131.277C226.767 131.148 226.767 131.018 226.767 131.018C226.897 130.888 227.027 130.888 227.027 130.888C232.347 134.262 239.354 140.62 240.911 142.826C242.209 141.139 245.842 138.155 251.681 133.743C268.55 121.156 272.573 103.119 274.26 74.1825C259.597 70.5492 248.827 65.7481 241.171 59.779C233.385 65.6183 219.89 69.5111 211.845 71.8468C210.158 72.3659 208.73 72.7552 207.563 73.1444V73.404C207.692 74.3123 207.822 75.7397 207.822 75.9992C207.822 76.1289 207.692 76.2587 207.563 76.2587C207.433 76.2587 207.303 76.1289 207.303 75.9992C207.303 75.6099 207.173 74.3123 207.044 73.404V73.0147C207.044 72.8849 207.044 72.7552 207.173 72.7552C208.341 72.3659 209.769 71.9766 211.585 71.4575C219.63 69.1218 233.255 65.0993 240.911 59.26C241.041 59.26 241.041 59.26 241.171 59.26C248.697 65.3588 259.597 70.0302 274.39 73.6635C274.519 73.6635 274.519 73.7932 274.519 73.923C272.832 103.119 268.68 121.286 251.681 134.002C245.583 138.544 241.949 141.658 240.781 143.215C241.171 143.475 241.041 143.475 241.041 143.475Z" fill="white"/>
<path d="M235.591 82.7468C231.049 82.7468 228.195 85.0825 227.676 88.4563C227.157 91.5706 228.843 94.9444 232.088 96.3717C237.278 98.7074 243.117 95.2039 243.117 90.1432C243.117 85.0825 239.484 82.7468 235.591 82.7468Z" fill="white"/>
<path d="M235.461 97.799C234.293 97.799 232.996 97.5395 231.828 97.0204C228.454 95.593 226.508 91.9598 227.027 88.4562C227.676 84.5634 230.92 82.0979 235.591 82.0979C239.614 82.0979 243.766 84.5634 243.766 90.1431C243.766 92.6085 242.468 94.8145 240.262 96.3716C238.705 97.2799 237.148 97.799 235.461 97.799ZM235.591 83.3955C231.568 83.3955 228.843 85.3419 228.324 88.586C227.805 91.5705 229.492 94.555 232.347 95.7228C234.683 96.7609 237.408 96.5014 239.614 95.2038C241.43 94.0359 242.598 92.0895 242.598 90.1431C242.468 85.2122 238.705 83.3955 235.591 83.3955Z" fill="white"/>
<path d="M222.874 124.27C223.264 119.599 222.874 114.798 223.783 110.256C224.821 104.676 227.935 99.7454 232.087 97.7989C236.24 95.8525 241.171 97.2799 244.025 101.562C246.361 105.195 247.14 110.126 247.399 114.798C247.529 117.912 247.659 121.026 247.659 124.011L222.874 124.27Z" fill="white"/>
<path d="M195.884 85.9907C191.602 85.9907 188.877 88.1967 188.358 91.3109C187.839 94.1657 189.526 97.2799 192.51 98.5775C197.441 100.654 203.021 97.4097 203.021 92.8681C203.021 88.1967 199.517 85.9907 195.884 85.9907Z" fill="white"/>
<path d="M195.754 99.8751C194.587 99.8751 193.419 99.6156 192.251 99.0966C189.007 97.6692 187.19 94.4252 187.709 91.0514C188.358 87.4181 191.472 85.2122 195.884 85.2122C199.777 85.2122 203.67 87.5478 203.67 92.7383C203.67 94.9442 202.502 97.0204 200.426 98.4478C198.998 99.3561 197.441 99.8751 195.754 99.8751ZM195.884 86.6395C192.121 86.6395 189.526 88.4562 189.007 91.4407C188.488 94.1657 190.175 96.8906 192.77 98.0585C194.976 99.0966 197.701 98.8371 199.777 97.4097C201.464 96.2418 202.372 94.6847 202.372 92.8681C202.372 88.3264 198.869 86.6395 195.884 86.6395Z" fill="white"/>
<path d="M183.816 123.621C184.206 119.469 183.816 115.187 184.595 111.164C185.633 106.234 188.618 101.822 192.51 100.135C196.403 98.4478 201.204 99.7454 203.929 103.509C206.265 106.753 206.914 111.164 207.173 115.447C207.303 118.172 207.433 121.026 207.433 123.751L183.816 123.621Z" fill="white"/>
<path d="M207.433 124.27H183.816C183.687 124.27 183.427 124.141 183.297 124.011C183.168 123.881 183.168 123.751 183.168 123.492C183.297 121.935 183.297 120.378 183.427 118.82C183.427 116.225 183.557 113.5 184.076 110.905C185.244 105.585 188.358 101.043 192.381 99.3562C196.663 97.4098 201.723 98.967 204.578 102.99C207.044 106.493 207.692 111.424 207.952 115.187C208.082 117.912 208.211 120.767 208.211 123.492C208.211 123.622 208.082 123.881 208.082 124.011C207.822 124.141 207.692 124.27 207.433 124.27ZM184.595 122.973H206.914C206.914 120.507 206.784 117.912 206.654 115.317C206.395 111.684 205.876 107.012 203.54 103.768C201.075 100.265 196.663 98.9669 192.9 100.524C189.396 102.081 186.412 106.234 185.373 111.165C184.854 113.63 184.854 116.225 184.725 118.82C184.595 120.248 184.595 121.545 184.595 122.973Z" fill="white"/>
<path d="M216.516 95.9824C213.013 95.9824 210.807 97.7991 210.288 100.524C209.898 102.99 211.196 105.585 213.661 106.753C217.684 108.569 222.226 105.844 222.226 101.822C222.355 97.7991 219.501 95.9824 216.516 95.9824Z" fill="white"/>
<path d="M216.386 107.92C215.348 107.92 214.44 107.661 213.532 107.272C210.936 106.104 209.25 103.249 209.769 100.394C210.288 97.2799 212.883 95.3335 216.646 95.3335C219.89 95.3335 223.134 97.2799 223.134 101.822C223.134 103.768 222.096 105.714 220.279 106.752C218.982 107.531 217.684 107.92 216.386 107.92ZM216.516 96.6311C213.402 96.6311 211.326 98.0585 210.936 100.654C210.547 102.86 211.845 105.195 213.921 106.104C215.738 106.882 217.684 106.752 219.371 105.714C220.798 104.806 221.577 103.379 221.577 101.822C221.707 98.0585 218.852 96.6311 216.516 96.6311Z" fill="white"/>
<path d="M206.265 123.622C206.525 120.767 206.265 117.912 206.914 115.187C207.822 111.813 210.288 108.959 213.661 107.791C217.035 106.623 221.058 107.531 223.264 110.126C225.21 112.332 225.729 115.317 225.989 118.042C226.118 119.859 226.118 121.805 226.248 123.622H206.265Z" fill="#FFD42E"/>
<path d="M226.378 124.27H206.395C206.265 124.27 206.006 124.141 205.876 124.011C205.746 123.881 205.746 123.751 205.746 123.492C205.876 122.454 205.876 121.416 205.876 120.378C205.876 118.561 206.005 116.744 206.395 115.057C207.303 111.424 210.028 108.31 213.532 107.142C217.165 105.844 221.447 106.882 223.913 109.607C226.118 112.073 226.638 115.317 226.897 117.912C227.027 119.729 227.157 121.675 227.157 123.492C227.157 123.622 227.157 123.881 227.027 124.011C226.637 124.141 226.508 124.27 226.378 124.27ZM207.044 122.973H225.729C225.729 121.416 225.599 119.729 225.47 118.172C225.21 115.706 224.821 112.722 222.874 110.516C220.798 108.18 217.165 107.272 213.921 108.439C210.936 109.478 208.471 112.203 207.692 115.447C207.303 117.133 207.173 118.691 207.173 120.507C207.044 121.286 207.044 122.064 207.044 122.973Z" fill="white"/>
<path d="M187.45 121.545C187.32 121.545 187.19 121.415 187.19 121.286C187.06 119.209 187.06 117.133 187.32 115.057C187.32 114.927 187.45 114.798 187.579 114.798C187.709 114.798 187.839 114.927 187.839 115.057C187.579 117.133 187.579 119.209 187.709 121.156C187.709 121.415 187.579 121.545 187.45 121.545Z" fill="white"/>
<path d="M190.694 121.545C190.564 121.545 190.434 121.415 190.434 121.286L190.304 118.69C190.304 118.561 190.434 118.431 190.564 118.431C190.694 118.431 190.823 118.561 190.823 118.69L190.953 121.286C190.953 121.415 190.823 121.545 190.694 121.545Z" fill="white"/>
<path d="M244.415 121.156C244.285 121.156 244.155 121.026 244.155 120.897L243.896 115.447C243.896 115.317 244.025 115.187 244.155 115.187C244.285 115.187 244.415 115.317 244.415 115.447L244.544 120.897C244.674 121.026 244.545 121.156 244.415 121.156Z" fill="white"/>
<path d="M380.275 155.543C380.015 155.543 379.756 155.283 379.626 155.024C377.939 148.925 373.657 145.811 368.985 142.437C367.947 141.788 367.039 141.009 366.001 140.231C363.535 138.414 361.849 136.987 360.421 136.208C360.162 136.078 360.032 135.689 360.162 135.3C360.291 135.04 360.681 134.911 361.07 135.04C362.497 135.819 364.314 137.246 366.779 139.193C367.818 139.971 368.726 140.62 369.764 141.399C374.046 144.513 378.198 147.497 380.275 152.947C382.351 148.016 384.816 146.33 388.969 143.605C390.266 142.696 391.823 141.658 393.64 140.231C394.159 139.842 394.808 139.452 395.327 138.933C404.021 132.705 418.554 122.324 420.371 69.9004C408.692 66.9158 392.472 61.4659 380.534 52.2528C367.558 61.5956 348.743 67.4349 340.697 69.6408C340.697 70.1599 340.827 70.9384 340.827 71.717C340.957 74.442 341.217 78.205 341.476 79.1134C341.606 79.5027 341.346 79.7622 340.957 79.8919C340.568 80.0217 340.308 79.7622 340.178 79.3729C339.919 78.3348 339.789 74.7015 339.53 71.717C339.4 70.6789 339.4 69.7706 339.4 69.1218C339.4 68.8623 339.53 68.473 339.919 68.473C347.705 66.3968 367.169 60.4278 380.275 50.9552C380.534 50.8255 380.794 50.8255 381.053 50.9552C393.121 60.4278 409.601 65.8778 421.279 68.8623C421.539 68.992 421.798 69.2515 421.798 69.5111C421.02 92.9978 417.776 110.256 411.677 122.454C406.616 132.705 400.517 136.987 396.235 140.101C395.586 140.49 395.067 141.009 394.548 141.399C392.732 142.826 391.175 143.864 389.747 144.772C385.206 147.887 383 149.314 380.923 155.283C380.794 155.283 380.664 155.543 380.275 155.543Z" fill="white"/>
<path d="M380.534 143.475C380.404 143.475 380.404 143.475 380.404 143.345C379.107 141.528 374.695 137.895 372.748 136.597C372.619 136.468 372.619 136.338 372.748 136.338C372.878 136.208 373.008 136.208 373.008 136.338C374.954 137.636 379.107 141.009 380.664 142.956C381.962 141.269 385.595 138.284 391.434 133.872C408.303 121.286 412.326 103.249 414.013 74.3122C399.35 70.6789 388.579 65.8777 380.923 59.9087C373.138 65.748 359.643 69.6408 351.597 71.9765C349.911 72.4955 348.483 72.8848 347.315 73.2741V73.5336C347.445 74.4419 347.575 75.8693 347.575 76.1288C347.575 76.2586 347.445 76.3884 347.315 76.3884C347.186 76.3884 347.056 76.2586 347.056 76.1288C347.056 75.7396 346.926 74.4419 346.796 73.5336V73.1443C346.796 73.0146 346.796 72.8848 346.926 72.8848C348.094 72.4955 349.521 72.1062 351.338 71.5872C359.383 69.2515 373.008 65.2289 380.664 59.3896C380.794 59.3896 380.794 59.3896 380.923 59.3896C388.45 65.4884 399.349 70.1598 414.142 73.7931C414.272 73.7931 414.272 73.9229 414.272 74.0526C412.585 103.249 408.433 121.415 391.434 134.132C385.335 138.674 381.702 141.788 380.534 143.345C380.664 143.475 380.534 143.475 380.534 143.475Z" fill="white"/>
<path d="M365.093 128.293C379.282 128.293 390.785 117.022 390.785 103.119C390.785 89.2162 379.282 77.9456 365.093 77.9456C350.903 77.9456 339.4 89.2162 339.4 103.119C339.4 117.022 350.903 128.293 365.093 128.293Z" fill="white"/>
<path d="M365.093 129.071C350.559 129.071 338.751 117.523 338.751 103.249C338.751 88.9752 350.559 77.4265 365.093 77.4265C379.626 77.4265 391.434 88.9752 391.434 103.249C391.434 117.393 379.626 129.071 365.093 129.071ZM365.093 78.5944C351.338 78.5944 340.049 89.624 340.049 103.119C340.049 116.614 351.338 127.644 365.093 127.644C378.847 127.644 390.136 116.614 390.136 103.119C390.136 89.624 378.847 78.5944 365.093 78.5944Z" fill="white"/>
<path d="M361.329 99.6156L360.81 91.0514L368.337 90.6621L368.856 99.4859L377.42 99.3561L377.809 106.233L369.245 106.493L369.634 115.187L362.627 115.576L361.978 107.012L352.765 107.401L352.376 100.135L361.329 99.6156Z" fill="#FFD42E"/>
<path d="M362.627 116.225C362.238 116.225 361.978 115.966 361.978 115.576L361.329 107.661L352.765 108.05C352.376 108.05 352.116 107.791 352.116 107.401L351.727 100.135C351.727 99.7454 351.987 99.4859 352.376 99.4859L360.81 98.9668L360.291 91.0514C360.291 90.9216 360.291 90.6621 360.421 90.5324C360.551 90.4026 360.681 90.2728 360.94 90.2728L368.466 89.8835C368.856 89.8835 369.115 90.1431 369.115 90.5324L369.634 98.7073L377.55 98.5775C377.939 98.5775 378.198 98.8371 378.198 99.2263L378.588 106.104C378.588 106.233 378.588 106.493 378.458 106.623C378.328 106.752 378.198 106.882 377.939 106.882L370.023 107.142L370.413 115.187C370.413 115.576 370.153 115.836 369.764 115.836L362.627 116.225ZM361.978 106.363C362.368 106.363 362.627 106.623 362.627 107.012L363.276 114.927L368.985 114.538L368.596 106.493C368.596 106.363 368.596 106.104 368.726 105.974C368.856 105.844 368.985 105.714 369.245 105.714L377.16 105.455L376.771 99.8751L368.856 100.005C368.466 100.005 368.207 99.7454 368.207 99.3561L367.688 91.1812L361.459 91.4407L361.978 99.3561C361.978 99.4859 361.978 99.7454 361.849 99.8751C361.719 100.005 361.589 100.135 361.459 100.135L353.025 100.654L353.284 106.623L361.978 106.363Z" fill="white"/>
<path d="M51.7196 127.385H44.1935C43.5447 127.385 42.8959 126.736 42.8959 125.957L43.0256 105.325C43.0256 104.287 44.0637 103.768 44.5828 103.768L51.8494 103.898C52.4982 103.898 53.147 104.547 53.147 105.325V125.827C53.2768 126.606 52.628 127.385 51.7196 127.385Z" fill="white"/>
<path d="M107.776 127.385H100.25C99.6014 127.385 98.9526 126.736 98.9526 125.957L99.0824 105.325C99.0824 104.287 100.12 103.768 100.64 103.768L107.906 103.898C108.555 103.898 109.204 104.547 109.204 105.325V125.827C109.334 126.606 108.685 127.385 107.776 127.385Z" fill="white"/>
<path d="M111.28 115.966C111.41 109.607 112.059 103.638 111.929 97.28C111.929 96.761 111.929 96.1122 111.669 95.5931C111.28 94.9443 106.738 92.3491 103.884 91.1812C102.326 86.5098 98.0443 76.7778 97.136 75.6099C96.3574 74.4421 95.0598 73.5337 93.892 73.5337C83.3813 73.404 72.7409 73.5337 61.9708 73.5337C60.8029 73.5337 59.635 73.5337 58.597 74.3123C57.5589 74.9611 56.9101 76.2587 56.391 77.4266C54.1851 81.8385 52.1089 86.3801 49.7732 91.1812C47.697 92.2193 45.4911 93.3872 43.4149 94.4253C42.7661 94.6848 42.2471 95.0741 41.728 95.5931C40.8197 96.6312 40.6899 98.1883 40.5602 99.6157C40.1709 105.325 40.3007 109.867 40.8197 115.836C40.5602 119.08 48.0863 118.691 51.8494 118.691C70.9243 118.691 88.7015 118.82 107.776 118.82C108.685 118.82 109.593 118.82 110.372 118.301C110.891 117.652 111.28 116.744 111.28 115.966Z" fill="white"/>
<path d="M107.647 119.21H107.517L51.5899 119.08C51.2006 119.08 50.8113 119.08 50.422 119.08C47.0482 119.08 42.3768 119.08 40.6899 117.393C40.1709 116.874 40.0411 116.355 40.0411 115.576C39.5221 109.088 39.5221 104.676 39.7816 99.3562C39.9114 97.7991 40.0411 96.1122 41.0792 94.9443C41.5983 94.2955 42.3768 93.9062 43.0256 93.6467L49.1244 90.5324C51.3303 85.7313 53.5363 81.3194 55.6124 76.9075C56.1315 75.7397 56.9101 74.3123 58.0779 73.5338C59.2458 72.7552 60.6731 72.7552 61.841 72.7552C72.2219 72.7552 83.1218 72.6254 93.7622 72.7552C95.1896 72.7552 96.6169 73.6635 97.655 75.0909C98.5634 76.5183 102.845 85.9908 104.403 90.5324C106.868 91.5705 111.669 94.1657 112.188 95.0741C112.578 95.7229 112.578 96.5014 112.578 97.0205C112.707 100.913 112.448 104.676 112.318 108.439C112.188 110.775 112.059 113.241 112.059 115.836C112.059 116.744 111.669 118.042 110.501 118.561C109.463 119.21 108.425 119.21 107.647 119.21ZM51.4601 117.782H51.5899L107.517 117.912C108.295 117.912 109.204 117.912 109.853 117.523C110.372 117.263 110.631 116.485 110.761 115.836C110.761 113.37 110.891 110.775 111.02 108.439C111.15 104.806 111.41 101.043 111.28 97.1503C111.28 96.761 111.28 96.1122 111.02 95.7229C110.631 95.2038 106.479 92.8681 103.494 91.5705C103.365 91.4408 103.235 91.311 103.105 91.1812C101.548 86.5098 97.2658 76.9075 96.4872 75.7397C95.7086 74.5718 94.6705 73.923 93.7622 73.923C83.1218 73.7933 72.2219 73.923 61.841 73.923C60.8029 73.923 59.635 73.923 58.8565 74.5718C57.9481 75.2206 57.4291 76.3885 56.9101 77.4266C54.8339 81.8385 52.628 86.3801 50.2923 91.1812C50.2923 91.311 50.1625 91.4408 50.0327 91.4408L43.6744 94.6848C43.1554 94.9443 42.5066 95.2038 42.1173 95.7229C41.3387 96.6312 41.209 98.0586 41.209 99.3562C40.9495 104.676 40.9495 109.088 41.4685 115.447C41.4685 115.447 41.4685 115.447 41.4685 115.576C41.4685 115.966 41.5983 116.225 41.728 116.355C43.0256 117.782 47.697 117.653 50.5518 117.653C50.6815 117.782 51.0708 117.782 51.4601 117.782Z" fill="white"/>
<path d="M56.1315 91.4407C58.0779 87.2883 60.5434 79.892 62.2303 79.1134C63.3981 78.5943 78.3206 78.8539 86.4956 78.7241C88.1825 78.7241 90.1289 78.8539 91.2968 80.1515C91.9456 80.93 96.6169 91.0514 96.6169 91.0514L56.1315 91.4407Z" fill="#FFD42E"/>
<path d="M56.1315 92.0896C55.872 92.0896 55.7422 91.9598 55.6125 91.8301C55.4827 91.7003 55.4827 91.4408 55.6125 91.1813C56.1315 90.0134 56.6505 88.7158 57.2994 87.2884C59.3755 82.3575 60.6731 79.2432 62.1005 78.5944C63.0088 78.2052 67.9398 78.0754 79.4885 78.2052C82.0837 78.2052 84.5492 78.2052 86.6254 78.2052C88.442 78.2052 90.648 78.3349 91.9456 79.8921C92.5944 80.6706 96.6169 89.2348 97.3955 90.9217C97.5253 91.1813 97.5253 91.311 97.3955 91.5705C97.2657 91.7003 97.0062 91.8301 96.8765 91.8301L56.1315 92.0896ZM73.6493 79.373C68.3291 79.373 63.1386 79.373 62.4898 79.6325C61.4517 80.1516 59.6351 84.4337 58.3374 87.6777C57.9482 88.7158 57.4291 89.7539 57.0398 90.792L95.5789 90.5325C93.7622 86.6396 91.167 81.1897 90.7777 80.6706C89.8694 79.5028 88.0527 79.373 86.4956 79.5028C84.4194 79.5028 81.954 79.5028 79.3587 79.5028C77.5421 79.373 75.5957 79.373 73.6493 79.373Z" fill="white"/>
<path d="M70.7945 108.44C67.6802 108.44 64.566 108.44 61.5815 108.44C61.4517 108.44 61.322 108.31 61.322 108.18C61.322 108.05 61.4517 107.921 61.5815 107.921C71.3136 108.05 81.0456 107.921 90.7777 107.791C90.9075 107.791 91.0372 107.921 91.0372 108.05C91.0372 108.18 90.9075 108.31 90.7777 108.31C84.1599 108.44 77.5421 108.44 70.7945 108.44Z" fill="white"/>
<path d="M70.7945 102.99C67.6802 102.99 64.566 102.99 61.5815 102.99C61.4517 102.99 61.322 102.86 61.322 102.73C61.322 102.6 61.4517 102.471 61.5815 102.471C71.3136 102.6 81.0456 102.471 90.7777 102.341C90.9075 102.341 91.0372 102.471 91.0372 102.6C91.0372 102.73 90.9075 102.86 90.7777 102.86C84.1599 102.99 77.5421 102.99 70.7945 102.99Z" fill="white"/>
<path d="M102.845 88.8456C102.586 88.8456 102.326 88.5861 102.197 88.3266C102.067 87.9373 102.326 87.6778 102.716 87.548C105.181 87.029 107.776 86.8992 110.372 87.029C110.761 87.029 111.02 87.2885 111.02 87.6778C111.02 88.0671 110.631 88.3266 110.372 88.3266C107.906 88.0671 105.441 88.3266 102.845 88.8456C102.975 88.8456 102.975 88.8456 102.845 88.8456Z" fill="white"/>
<path d="M50.422 88.9753C50.2922 88.9753 50.2922 88.9753 50.1625 88.9753C48.4756 88.3265 44.1935 88.0669 42.3768 88.1967C41.9875 88.1967 41.728 87.9372 41.5983 87.6777C41.5983 87.2884 41.8578 87.0288 42.1173 86.8991C44.0637 86.6396 48.6054 86.8991 50.5518 87.6777C50.9411 87.8074 51.0708 88.1967 50.9411 88.586C50.8113 88.8455 50.6815 88.9753 50.422 88.9753Z" fill="white"/>
<path d="M100.769 155.543C100.51 155.543 100.25 155.413 100.12 155.024C98.6931 150.482 95.5788 146.33 91.4265 143.475C86.2361 140.491 74.4278 132.316 70.6647 127.125C70.4052 126.866 70.535 126.476 70.7945 126.217C71.054 125.957 71.4433 126.087 71.7028 126.347C75.3361 131.148 86.7551 139.193 92.2051 142.307C96.0979 145.032 99.0824 148.795 100.899 152.948C103.105 147.887 105.7 146.33 109.982 143.475C111.41 142.567 112.967 141.529 114.913 140.101C115.432 139.712 116.081 139.323 116.73 138.804C125.813 132.575 140.995 122.194 142.812 69.9005C130.614 66.916 113.745 61.466 101.288 52.253C97.0062 55.6268 82.2135 64.191 78.5802 66.2672C78.3206 66.397 77.8016 66.397 77.6719 66.0077C77.5421 65.7481 77.5421 65.2291 77.9314 65.0993C81.5647 63.0232 97.2658 53.9399 100.769 50.9554C101.029 50.6959 101.288 50.6959 101.548 50.9554C114.135 60.4279 131.263 65.8779 143.461 68.8624C143.72 68.9922 143.98 69.2517 143.98 69.5112C143.201 92.998 139.698 110.256 133.469 122.454C128.149 132.705 121.92 136.987 117.379 140.101C116.73 140.49 116.211 141.01 115.562 141.399C113.616 142.826 112.059 143.864 110.631 144.773C105.83 147.887 103.624 149.314 101.418 155.283C101.288 155.283 101.029 155.543 100.769 155.543Z" fill="white"/>
<path d="M100.769 142.567C100.64 142.567 100.64 142.567 100.769 142.567C100.64 142.567 100.64 142.567 100.64 142.437C99.9907 141.529 96.3574 139.063 92.5944 136.468C88.1825 133.354 83.1218 129.98 81.6944 128.293C81.5646 128.163 81.5646 128.034 81.6944 128.034C81.8242 127.904 81.9539 127.904 81.9539 128.034C83.3813 129.72 88.3122 133.094 92.8539 136.079C96.6169 138.674 99.861 140.88 100.899 141.918C103.235 139.452 105.051 138.285 108.944 135.949C109.982 135.3 111.02 134.651 112.318 133.873C129.836 122.843 133.988 105.196 135.935 74.3124C120.752 70.6791 109.463 65.878 101.548 59.909C99.7312 61.5959 95.5788 63.8018 92.9836 65.0994C92.2051 65.4887 91.686 65.7482 91.2967 66.0077C91.167 66.0077 91.0372 66.0077 91.0372 65.878C91.0372 65.7482 91.0372 65.6184 91.167 65.6184C91.5563 65.3589 92.0753 65.0994 92.8539 64.7101C95.4491 63.4125 99.7312 61.0768 101.418 59.5197C101.548 59.3899 101.678 59.3899 101.678 59.5197C109.593 65.6185 120.882 70.2898 136.194 73.9231C136.324 73.9231 136.324 74.0529 136.324 74.1827C135.545 86.8993 134.248 100.265 130.485 111.035C126.851 121.416 121.142 128.812 112.448 134.262C111.15 135.041 109.982 135.819 109.074 136.338C105.051 138.804 103.235 139.972 100.899 142.437C100.769 142.567 100.769 142.567 100.769 142.567Z" fill="white"/>
<path d="M45.4911 102.47C45.1018 102.47 44.8423 102.211 44.8423 101.822C44.8423 101.432 45.1018 101.173 45.4911 101.173C48.3458 101.043 51.3304 100.913 54.1851 100.913C54.5744 100.913 54.8339 101.173 54.8339 101.562C54.8339 101.951 54.5744 102.211 54.1851 102.211C51.3304 102.341 48.4756 102.341 45.4911 102.47Z" fill="white"/>
<path d="M98.5634 102.341C98.1741 102.341 97.9146 102.081 97.9146 101.692C97.9146 101.303 98.1741 101.043 98.5634 101.043C101.418 100.913 104.403 100.784 107.257 100.784C107.647 100.784 107.906 101.043 107.906 101.432C107.906 101.822 107.647 102.081 107.257 102.081C104.403 102.211 101.418 102.211 98.5634 102.341Z" fill="white"/>
</svg>
