<svg width="146" height="122" viewBox="0 0 146 122" fill="none" xmlns="http://www.w3.org/2000/svg">
<path d="M29.2924 61.0153L0.874727 59.8474C0.485444 59.8474 0.225922 59.5879 0.225922 59.1986C0.225922 58.8093 0.485444 58.5498 0.874727 58.5498L29.2924 59.7176C29.6817 59.7176 29.9412 59.9772 29.9412 60.3665C29.9412 60.7557 29.6817 61.0153 29.2924 61.0153Z" fill="#F4A28C"/>
<path d="M9.56871 76.5864C9.30919 76.5864 9.17943 76.4566 9.04967 76.3269C8.79014 76.0673 8.9199 75.6781 9.17942 75.4185C13.5913 72.5638 18.3925 70.3579 23.5829 68.9305C23.9722 68.8007 24.2317 69.0602 24.3615 69.4495C24.4912 69.8388 24.2317 70.0983 23.8424 70.2281C18.9115 71.5257 14.1103 73.7316 9.82823 76.4566C9.82823 76.4566 9.69847 76.5864 9.56871 76.5864Z" fill="#F4A28C"/>
<path d="M24.2317 52.451C24.102 52.451 24.102 52.451 23.9722 52.451C20.4687 50.7641 17.0949 48.9475 13.8508 46.7416C13.5913 46.482 13.4616 46.0928 13.7211 45.8332C13.9806 45.5737 14.3699 45.4439 14.6294 45.7035C17.7437 47.7796 21.1175 49.7261 24.4912 51.2832C24.8805 51.413 25.0103 51.8022 24.7508 52.1915C24.621 52.3213 24.3615 52.451 24.2317 52.451Z" fill="#F4A28C"/>
<path d="M112.469 63.7403L97.5467 1.84423L84.4408 1.06567L80.548 120.316L92.2265 120.835L112.469 63.7403Z" fill="white"/>
<path d="M92.2265 121.484L80.548 120.965C80.1587 120.965 79.8992 120.705 79.8992 120.316L83.792 1.06555C83.792 0.935792 83.9218 0.676258 84.0515 0.546497C84.1813 0.416736 84.311 0.416748 84.5706 0.416748L97.6764 1.1953C97.936 1.1953 98.1955 1.45484 98.3252 1.71436L113.248 63.6104C113.248 63.7401 113.248 63.8699 113.248 63.9997L93.005 121.095C92.7455 121.354 92.486 121.484 92.2265 121.484ZM81.1968 119.667L91.7074 120.186L111.82 63.7401L97.0276 2.49291L85.0896 1.84411L81.1968 119.667Z" fill="#F4A28C"/>
<path d="M62.9005 61.145L49.1458 36.3606L38.7649 43.3677L45.5125 60.4962L37.4673 76.7163L47.3292 83.7234L62.9005 61.145Z" fill="white"/>
<path d="M47.3292 84.3721C47.1994 84.3721 47.0696 84.3721 46.9399 84.2423L37.078 77.365C36.8185 77.2352 36.6888 76.8459 36.8185 76.5864L44.7339 60.6258L37.9864 43.7569C37.8566 43.4973 37.9864 43.1081 38.2459 42.9783L48.6268 36.101C48.7565 35.9712 49.0161 35.9712 49.1458 35.9712C49.2756 35.9712 49.5351 36.1009 49.5351 36.2307L63.4195 60.8853C63.5493 61.1448 63.5493 61.4044 63.4195 61.5341L47.8482 84.1125C47.8482 84.2423 47.5887 84.2423 47.3292 84.3721ZM38.3757 76.4566L47.1994 82.6852L62.2517 61.0151L49.0161 37.2688L39.6733 43.4973L46.2911 60.1068C46.4208 60.2365 46.2911 60.496 46.2911 60.6258L38.3757 76.4566Z" fill="#F4A28C"/>
<path d="M39.284 58.6795C40.4519 55.695 43.6959 53.7486 47.0697 53.0998C50.9625 52.3212 49.7946 52.1914 92.6158 51.1534C106.37 50.7641 130.117 48.0391 143.612 62.3128C144.261 62.9616 144.909 63.7402 144.78 64.6485C144.78 65.4271 144.131 66.0759 143.612 66.5949C132.193 77.4949 114.286 74.3806 97.936 73.083C78.9909 71.6556 61.9922 69.1902 48.2375 67.5033C39.1542 66.4652 38.5054 60.4962 39.284 58.6795Z" fill="white"/>
<path d="M118.957 75.1591C114.026 75.1591 108.836 74.6401 103.775 74.2508C101.829 74.1211 99.8824 73.8615 97.936 73.7318C83.4027 72.6937 70.0374 71.0068 58.3589 69.4497C54.8553 69.0604 51.4815 68.5413 48.3673 68.152C42.9173 67.5032 40.5816 65.2973 39.5435 63.4806C38.3757 61.5342 38.3757 59.5878 38.8947 58.42C40.0626 55.4355 43.1768 53.2295 47.0697 52.451L47.5887 52.3212C50.9625 51.6724 52.0006 51.4129 92.6158 50.5045C94.0431 50.5045 95.7301 50.3748 97.4169 50.3748C111.172 49.8557 131.933 48.9474 144.131 61.9235C144.909 62.7021 145.558 63.6104 145.429 64.7783C145.299 65.8163 144.65 66.4652 144.001 67.114C137.254 73.4722 128.43 75.1591 118.957 75.1591ZM107.409 51.2831C103.905 51.2831 100.531 51.4129 97.4169 51.5426C95.7301 51.6724 94.0431 51.6724 92.6158 51.6724C52.1303 52.7105 51.0923 52.8402 47.7185 53.489L47.1994 53.6188C44.4744 54.1379 41.2304 55.695 39.9328 58.8093C39.6733 59.4581 39.5435 61.0152 40.4518 62.7021C41.3602 64.2592 43.4364 66.2056 48.3673 66.7247C51.4815 67.114 54.8553 67.5032 58.3589 68.0223C70.0374 69.4497 83.4027 71.1366 97.936 72.3044C99.8824 72.4342 101.829 72.5639 103.775 72.8235C118.179 74.1211 133.231 75.4187 143.093 65.9461C143.612 65.4271 144.001 64.908 144.131 64.389C144.131 63.7402 143.612 63.0914 143.093 62.5723C134.01 52.97 119.606 51.2831 107.409 51.2831Z" fill="#F4A28C"/>
<path d="M123.888 55.6948C129.079 56.0841 130.506 60.6257 130.376 63.4805C130.246 66.7245 127.781 68.9305 125.056 69.8388C124.148 70.0983 123.11 70.3578 122.331 69.9685C121.423 69.709 120.644 68.8007 120.904 67.8924C121.033 66.984 121.942 66.465 122.591 65.6864C123.369 64.6484 123.888 62.4424 123.369 61.2746C122.98 60.3662 121.423 59.0686 121.552 57.771C121.682 55.9544 123.11 55.6948 123.888 55.6948Z" fill="#F4A28C"/>
<path d="M88.4634 15.7285C88.3336 15.7285 88.2039 15.5988 88.2039 15.469L88.5932 5.8667C88.5932 5.73693 88.7229 5.60718 88.8527 5.60718C88.9824 5.60718 89.1122 5.73693 89.1122 5.8667L88.7229 15.469C88.5932 15.5988 88.5932 15.7285 88.4634 15.7285Z" fill="#F4A28C"/>
<path d="M92.7455 10.2786C92.6158 10.2786 92.486 10.1488 92.486 10.019V5.8667C92.486 5.73693 92.6158 5.60718 92.7455 5.60718C92.8753 5.60718 93.0051 5.73693 93.0051 5.8667V10.019C93.0051 10.1488 92.8753 10.2786 92.7455 10.2786Z" fill="#F4A28C"/>
<path d="M84.3111 116.942C84.1813 116.942 84.0515 116.812 84.0515 116.683C84.4408 114.087 84.7003 111.362 84.8301 108.637C84.8301 108.508 84.9599 108.378 85.0896 108.378C85.2194 108.378 85.3492 108.508 85.3492 108.637C85.2194 111.362 84.9599 114.087 84.5706 116.683C84.5706 116.812 84.4408 116.942 84.3111 116.942Z" fill="#F4A28C"/>
</svg>
