<svg width="128" height="75" viewBox="0 0 128 75" fill="none" xmlns="http://www.w3.org/2000/svg">
<path d="M9.8194 58.8903C13.971 58.8903 17.3365 56.686 17.3365 53.9669C17.3365 51.2477 13.971 49.0435 9.8194 49.0435C5.66779 49.0435 2.30225 51.2477 2.30225 53.9669C2.30225 56.686 5.66779 58.8903 9.8194 58.8903Z" fill="#FFD200"/>
<path d="M45.7701 38.454C49.9217 38.454 53.2872 36.2497 53.2872 33.5305C53.2872 30.8114 49.9217 28.6071 45.7701 28.6071C41.6185 28.6071 38.2529 30.8114 38.2529 33.5305C38.2529 36.2497 41.6185 38.454 45.7701 38.454Z" fill="#FFD200"/>
<path d="M78.8692 10.7812C83.0208 10.7812 86.3864 8.57688 86.3864 5.85775C86.3864 3.13862 83.0208 0.934326 78.8692 0.934326C74.7176 0.934326 71.3521 3.13862 71.3521 5.85775C71.3521 8.57688 74.7176 10.7812 78.8692 10.7812Z" fill="#FFD200"/>
<path d="M7.58745 18.9636C11.7391 18.9636 15.1046 16.7593 15.1046 14.0402C15.1046 11.3211 11.7391 9.11676 7.58745 9.11676C3.43584 9.11676 0.0703125 11.3211 0.0703125 14.0402C0.0703125 16.7593 3.43584 18.9636 7.58745 18.9636Z" fill="#FFD200"/>
<path d="M98.1631 74.3871C102.315 74.3871 105.68 72.1829 105.68 69.4637C105.68 66.7446 102.315 64.5403 98.1631 64.5403C94.0115 64.5403 90.646 66.7446 90.646 69.4637C90.646 72.1829 94.0115 74.3871 98.1631 74.3871Z" fill="#FFD200"/>
<path d="M119.617 40.7828C123.769 40.7828 127.134 38.5785 127.134 35.8594C127.134 33.1403 123.769 30.936 119.617 30.936C115.466 30.936 112.1 33.1403 112.1 35.8594C112.1 38.5785 115.466 40.7828 119.617 40.7828Z" fill="#FFD200"/>
</svg>
