<svg width="26" height="26" viewBox="0 0 26 26" fill="none" xmlns="http://www.w3.org/2000/svg">
<g opacity="0.5">
<circle cx="12.5865" cy="13.1951" r="11.65" transform="rotate(-2.37345 12.5865 13.1951)" stroke="white" stroke-width="0.7"/>
<path fill-rule="evenodd" clip-rule="evenodd" d="M14.1697 15.1783L12.209 17.3085C11.271 18.3277 9.68433 18.3935 8.66517 17.4554C7.64601 16.5174 7.58025 14.9308 8.51829 13.9116L10.479 11.7814L14.1697 15.1783ZM14.694 14.6086L16.6545 12.4786C17.5926 11.4594 17.5268 9.87277 16.5076 8.93474C15.4885 7.9967 13.9019 8.06246 12.9638 9.08162L11.0033 11.2117L14.694 14.6086ZM12.3942 8.55732C13.6218 7.22356 15.6982 7.1375 17.0319 8.3651C18.3657 9.5927 18.4518 11.6691 17.2242 13.0029L12.7786 17.8328C11.551 19.1666 9.47464 19.2527 8.14088 18.0251C6.80711 16.7975 6.72105 14.7211 7.94865 13.3873L12.3942 8.55732Z" fill="white"/>
</g>
</svg>
