<svg width="41" height="41" viewBox="0 0 41 41" fill="none" xmlns="http://www.w3.org/2000/svg">
<path d="M39.4474 24.0042C37.6307 22.7066 36.3331 22.5768 34.9057 21.5387C34.776 19.8518 34.3867 16.8673 34.1272 15.1804C35.8141 13.7531 36.5926 13.3638 38.02 12.0662C38.02 11.8067 37.8903 11.5471 37.7605 11.4174C37.3712 10.8983 37.1117 10.3793 36.7224 9.73048C35.4248 7.78406 33.7379 5.96741 32.051 4.28052C30.4939 5.70789 29.0665 7.26502 27.7689 8.69239C25.8225 7.91382 23.7463 7.39479 21.5404 7.26503C21.2808 5.31861 20.8916 3.3722 20.5023 1.42578C17.6475 1.81506 14.9226 2.59362 12.3273 3.89123C12.7166 5.70789 13.2357 6.87575 13.8845 8.56264C12.1976 10.1198 10.6404 11.5471 9.34282 13.1043C7.39641 12.0662 5.83928 11.5471 4.02262 10.5091C2.07621 13.3638 0.778595 16.6078 0.778595 19.8518C2.85477 20.1114 4.02262 19.9816 5.83928 20.1114C6.0988 22.1875 6.7476 24.3935 7.65592 26.4696C6.09879 27.897 5.32023 29.1946 4.02262 30.2327C5.06071 32.6982 6.87736 34.9041 8.95353 36.591C10.2511 35.1637 11.1595 34.2553 12.3273 33.0875C14.144 33.7363 16.3499 34.7744 18.2963 34.9041C18.9451 36.7208 18.9451 37.7589 19.2047 39.5755C22.1892 40.0946 25.1737 39.8351 28.0284 39.1863C27.7689 37.1101 28.0284 35.9422 27.5094 34.2553C29.1963 33.0875 30.8832 31.4006 32.051 29.8434C33.9974 30.2327 34.776 30.622 36.4629 31.1411C38.02 28.8054 38.9283 26.4697 39.4474 24.0042ZM22.7082 26.5994C21.4106 27.1185 20.113 27.5077 16.7392 25.3018C15.4416 24.3935 12.5868 20.8899 16.0904 16.4781C17.2582 15.0507 19.0749 14.2721 20.8916 14.5316C22.7082 14.7912 24.0058 15.3102 25.0439 16.2185C26.7308 17.6459 27.3796 19.9816 26.8606 22.1875C26.4713 24.134 24.7844 25.8208 22.7082 26.5994Z" fill="#FFD42E"/>
<path d="M22.4487 40.4837C21.2808 40.4837 20.113 40.354 19.0749 40.2242C18.8153 40.2242 18.5558 39.9647 18.5558 39.7052V39.4456C18.4261 38.0183 18.2963 36.9802 17.907 35.5528C16.2201 35.2933 14.2737 34.5147 12.7166 33.8659H12.5868C11.5487 34.904 10.7702 35.6826 9.47255 37.1099C9.21303 37.3695 8.82375 37.3695 8.56423 37.2397C6.22853 35.5528 4.41187 33.2171 3.37379 30.6219C3.24402 30.3624 3.37378 30.1028 3.50354 29.8433C4.15235 29.3243 4.80116 28.6755 5.3202 28.0267C5.70948 27.5076 6.22853 26.9886 6.74757 26.4695C5.969 24.5231 5.44996 22.7065 5.19044 20.8898C4.6714 20.8898 4.28211 20.8898 3.76306 20.8898C2.72497 20.8898 1.81665 20.8898 0.519036 20.6303C0.129753 20.6303 0 20.3708 0 19.9815C0 16.8672 1.16785 13.6232 3.37379 10.2494C3.50355 9.98987 3.89283 9.86012 4.28211 9.98988C5.19044 10.5089 5.969 10.8982 6.87733 11.2875C7.52613 11.547 8.30471 11.9363 9.08327 12.3256C10.1214 11.028 11.419 9.86012 12.7166 8.69227L12.9761 8.43275C12.4571 7.00538 11.938 5.83752 11.5487 4.15063C11.419 3.89111 11.6785 3.50184 11.938 3.37208C14.2737 2.20423 17.1285 1.2959 20.3725 0.776855C20.7618 0.776855 21.0213 0.906609 21.151 1.29589C21.5403 3.11255 21.9296 4.9292 22.1891 6.74585C24.0058 7.00537 25.8224 7.39466 27.6391 8.04346C28.8069 6.74585 30.1046 5.31848 31.6617 3.89111C31.9212 3.63159 32.3105 3.63159 32.57 3.89111C34.3867 5.57801 35.9438 7.39466 37.3712 9.47084C37.7605 9.98989 38.1497 10.5089 38.4093 11.028C38.6688 11.2875 38.7985 11.6768 38.7985 12.0661C38.7985 12.1958 38.6688 12.4553 38.539 12.5851C37.8902 13.2339 37.2414 13.6232 36.7224 14.0125C36.2033 14.4018 35.5545 14.791 34.9057 15.4398C35.0355 15.9589 35.0355 16.6077 35.1652 17.2565C35.295 18.5541 35.5545 20.1112 35.6843 21.1493C36.2033 21.5386 36.7224 21.6684 37.2414 21.9279C38.02 22.3172 38.9283 22.7065 39.9664 23.485C40.2259 23.6148 40.2259 23.8743 40.2259 24.1338C39.7069 26.8588 38.6688 29.3243 37.1117 31.4005C36.9819 31.66 36.5926 31.7897 36.3331 31.66C35.814 31.5302 35.4248 31.4005 35.0355 31.2707C34.1272 31.0112 33.4783 30.7516 32.4403 30.4921C31.4022 31.9195 29.845 33.3469 28.4177 34.5147C28.5474 35.4231 28.6772 36.2016 28.6772 36.9802C28.6772 37.629 28.6772 38.2778 28.8069 39.0564C28.8069 39.4456 28.6772 39.7052 28.2879 39.8349C26.2117 40.2242 24.3951 40.4837 22.4487 40.4837ZM19.8534 39.0564C22.3189 39.4456 24.7844 39.3159 27.3796 38.6671C27.3796 38.0183 27.2498 37.4992 27.2498 37.1099C27.2498 36.2016 27.1201 35.423 26.9903 34.385C26.8605 34.1254 26.9903 33.8659 27.2498 33.7362C28.807 32.5683 30.4938 31.0112 31.6617 29.454C31.7914 29.1945 32.051 29.1945 32.3105 29.1945C33.7379 29.454 34.5164 29.7136 35.5545 30.1028C35.814 30.2326 36.0736 30.2326 36.3331 30.3624C37.5009 28.5457 38.4093 26.5993 38.9283 24.3934C38.1497 23.8743 37.5009 23.6148 36.8521 23.2255C36.2033 22.966 35.5545 22.5767 34.776 22.0577C34.6462 21.9279 34.5164 21.7981 34.5164 21.5386C34.3867 20.5005 34.2569 18.8136 33.9974 17.3863C33.8676 16.6077 33.7379 15.8291 33.7379 15.1803C33.7379 14.9208 33.7379 14.791 33.9974 14.6613C34.9057 13.8827 35.5545 13.3637 36.2033 12.8446C36.5926 12.5851 37.1117 12.1958 37.6307 11.8065C37.6307 11.8065 37.6307 11.6768 37.5009 11.6768C37.1116 11.1577 36.8521 10.6387 36.4629 10.1196C35.295 8.30299 33.8676 6.74586 32.3105 5.18872C30.8831 6.48633 29.7153 7.78394 28.5474 9.08155C28.4177 9.34108 28.0284 9.34108 27.7689 9.21132C25.8224 8.43276 23.876 8.04347 21.7998 7.78394C21.5403 7.78394 21.2808 7.52443 21.151 7.26491C20.8915 5.57801 20.632 3.76136 20.2427 2.07447C17.6475 2.46375 15.3118 3.2423 13.2356 4.15063C13.6249 5.578 14.0142 6.6161 14.5332 7.91371L14.663 8.17323C14.7928 8.43275 14.663 8.69226 14.5332 8.95179L13.8844 9.60059C12.4571 10.8982 11.1594 12.1958 9.9916 13.4934C9.73207 13.7529 9.47255 13.753 9.21303 13.6232C8.3047 13.1041 7.39638 12.7149 6.61781 12.3256C5.96901 12.0661 5.19044 11.6768 4.54164 11.2875C2.85474 14.0125 1.94641 16.6077 1.81665 19.2029C2.72497 19.3327 3.50354 19.3327 4.28211 19.3327C4.93091 19.3327 5.44996 19.3327 6.22852 19.4624C6.48805 19.4624 6.74757 19.722 6.87733 19.9815C7.13685 21.9279 7.6559 24.0041 8.56423 26.0803C8.69399 26.3398 8.56423 26.5993 8.43447 26.8588C7.78566 27.5076 7.26661 28.0267 6.74757 28.6755C6.22853 29.3243 5.70948 29.8433 5.06067 30.3624C5.969 32.3088 7.39638 34.1254 9.21303 35.5528C10.3809 34.2552 11.1594 33.4766 12.1975 32.4385C12.3273 32.3088 12.7166 32.179 12.8463 32.3088L13.3654 32.5683C14.9225 33.2171 16.9987 33.9957 18.5558 34.1254C18.8153 34.1254 19.0749 34.385 19.0749 34.6445C19.4642 36.4611 19.5939 37.4992 19.8534 39.0564ZM21.0213 27.6374C19.8534 27.6374 18.5558 27.2481 16.4796 25.8207C15.7011 25.3017 14.2737 23.8743 13.8844 21.6684C13.6249 19.722 14.144 17.7755 15.7011 15.9589C16.9987 14.272 19.2046 13.3637 21.151 13.753C23.2272 14.1422 24.6546 14.6613 25.6927 15.5696C27.5093 17.1267 28.2879 19.722 27.7689 22.1874C27.2498 24.5231 25.4332 26.4695 23.0975 27.2481C22.3189 27.3779 21.7999 27.6374 21.0213 27.6374ZM20.2427 15.0506C18.9451 15.0506 17.5177 15.6994 16.6094 16.8672C15.3118 18.4243 14.9225 19.9815 15.182 21.5386C15.4416 23.0958 16.4796 24.3934 17.1285 24.7826C20.2427 26.8588 21.4106 26.4695 22.5784 25.9505C24.3951 25.3017 25.9522 23.6148 26.3415 21.7981C26.8605 19.8517 26.2117 17.7755 24.6546 16.4779C23.7463 15.6994 22.5784 15.3101 20.7618 15.0506C20.632 15.0506 20.5022 15.0506 20.2427 15.0506Z" fill="#F4A28C"/>
</svg>
