<svg width="21" height="21" viewBox="0 0 21 21" fill="none" xmlns="http://www.w3.org/2000/svg">
<g opacity="0.5">
<circle cx="10.1265" cy="10.0823" r="9.65" stroke="white" stroke-width="0.7"/>
<path fill-rule="evenodd" clip-rule="evenodd" d="M3.97168 7.87507C3.97168 7.63564 4.06679 7.40601 4.2361 7.23671C4.4054 7.0674 4.63503 6.97229 4.87446 6.97229H10.893C11.1324 6.97229 11.362 7.0674 11.5313 7.23671C11.7006 7.40601 11.7958 7.63564 11.7958 7.87507V8.47692H13.5164C13.7434 8.47694 13.9621 8.56247 14.1288 8.71646L15.7183 10.1835C15.8099 10.268 15.883 10.3706 15.933 10.4848C15.983 10.599 16.0087 10.7224 16.0087 10.847V13.2917H14.2032V12.6899H15.4069V10.847C15.4069 10.8055 15.3983 10.7643 15.3816 10.7263C15.3649 10.6882 15.3405 10.654 15.31 10.6258L13.7205 9.15852C13.6649 9.10725 13.5921 9.07878 13.5164 9.07877H11.7958V12.6899H12.3976V13.2917H7.28186V12.6899H11.1939V7.87507C11.1939 7.79526 11.1622 7.71872 11.1058 7.66228C11.0493 7.60585 10.9728 7.57414 10.893 7.57414H4.87446C4.79465 7.57414 4.71811 7.60585 4.66167 7.66228C4.60524 7.71872 4.57353 7.79526 4.57353 7.87507V12.6899H5.47631V13.2917H3.97168V7.87507Z" fill="white"/>
<path fill-rule="evenodd" clip-rule="evenodd" d="M6.37924 13.5927C6.53886 13.5927 6.69195 13.5293 6.80481 13.4164C6.91768 13.3035 6.98109 13.1504 6.98109 12.9908C6.98109 12.8312 6.91768 12.6781 6.80481 12.5652C6.69195 12.4524 6.53886 12.389 6.37924 12.389C6.21962 12.389 6.06654 12.4524 5.95367 12.5652C5.8408 12.6781 5.77739 12.8312 5.77739 12.9908C5.77739 13.1504 5.8408 13.3035 5.95367 13.4164C6.06654 13.5293 6.21962 13.5927 6.37924 13.5927ZM6.37924 14.1945C6.69848 14.1945 7.00465 14.0677 7.23039 13.842C7.45613 13.6162 7.58294 13.3101 7.58294 12.9908C7.58294 12.6716 7.45613 12.3654 7.23039 12.1397C7.00465 11.9139 6.69848 11.7871 6.37924 11.7871C6.06 11.7871 5.75383 11.9139 5.52809 12.1397C5.30236 12.3654 5.17554 12.6716 5.17554 12.9908C5.17554 13.3101 5.30236 13.6162 5.52809 13.842C5.75383 14.0677 6.06 14.1945 6.37924 14.1945V14.1945Z" fill="white"/>
<path fill-rule="evenodd" clip-rule="evenodd" d="M13.3004 13.5927C13.46 13.5927 13.6131 13.5293 13.726 13.4164C13.8388 13.3035 13.9022 13.1504 13.9022 12.9908C13.9022 12.8312 13.8388 12.6781 13.726 12.5652C13.6131 12.4524 13.46 12.389 13.3004 12.389C13.1408 12.389 12.9877 12.4524 12.8748 12.5652C12.7619 12.6781 12.6985 12.8312 12.6985 12.9908C12.6985 13.1504 12.7619 13.3035 12.8748 13.4164C12.9877 13.5293 13.1408 13.5927 13.3004 13.5927ZM13.3004 14.1945C13.6196 14.1945 13.9258 14.0677 14.1515 13.842C14.3773 13.6162 14.5041 13.3101 14.5041 12.9908C14.5041 12.6716 14.3773 12.3654 14.1515 12.1397C13.9258 11.9139 13.6196 11.7871 13.3004 11.7871C12.9811 11.7871 12.675 11.9139 12.4492 12.1397C12.2235 12.3654 12.0967 12.6716 12.0967 12.9908C12.0967 13.3101 12.2235 13.6162 12.4492 13.842C12.675 14.0677 12.9811 14.1945 13.3004 14.1945V14.1945Z" fill="white"/>
<path fill-rule="evenodd" clip-rule="evenodd" d="M15.7078 11.1852H11.4949V10.5834H15.7078V11.1852Z" fill="white"/>
<path fill-rule="evenodd" clip-rule="evenodd" d="M7.58276 10.8843V8.47693H8.18462V10.8843H7.58276Z" fill="white"/>
<path fill-rule="evenodd" clip-rule="evenodd" d="M12.6986 7.5741C12.7784 7.5741 12.855 7.6058 12.9114 7.66224C12.9679 7.71867 12.9996 7.79521 12.9996 7.87502V8.7778H12.3977V7.87502C12.3977 7.79521 12.4294 7.71867 12.4858 7.66224C12.5423 7.6058 12.6188 7.5741 12.6986 7.5741Z" fill="white"/>
<path fill-rule="evenodd" clip-rule="evenodd" d="M9.08734 9.98149H6.67993V9.37964H9.08734V9.98149Z" fill="white"/>
<path fill-rule="evenodd" clip-rule="evenodd" d="M13.3004 8.77788H12.0967V8.17603H13.3004V8.77788Z" fill="white"/>
</g>
</svg>
