<svg width="301" height="282" viewBox="0 0 301 282" fill="none" xmlns="http://www.w3.org/2000/svg">
<path d="M229.691 93.7195C229.432 105.658 236.698 117.855 247.987 121.878C254.086 124.084 260.834 123.694 267.192 125.381C273.55 127.068 279.909 131.74 279.909 138.228C279.909 142.51 277.443 152.372 290.419 158.081C301.06 162.882 298.594 188.445 265.505 199.345C255.384 202.589 261.872 194.284 251.361 192.727C240.98 191.17 231.508 185.201 224.371 177.545C217.234 169.889 212.044 160.417 208.151 150.685C203.609 139.395 200.365 127.068 203.22 115.26C206.075 103.452 216.456 92.6814 229.691 93.7195Z" fill="#B8CE1B"/>
<path d="M164.94 66.4697C168.444 83.4684 171.818 101.765 164.811 117.596C162.605 122.786 159.231 127.457 157.414 132.778C155.208 139.136 155.079 146.013 155.727 152.631C156.895 165.218 160.658 178.194 169.482 187.277C178.306 196.361 193.228 200.253 204.128 193.895C213.731 188.315 218.142 176.248 217.494 165.218C216.845 154.058 212.173 143.678 207.113 133.816C195.305 109.94 181.29 86.972 164.94 66.4697Z" fill="#B8CE1B"/>
<path d="M189.595 149.387C189.855 140.304 188.816 135.243 188.427 128.495C192.061 126.679 196.083 125.381 200.106 124.732C201.922 124.473 203.999 124.343 205.426 125.381C206.334 126.03 210.487 122.397 210.876 123.435C213.86 130.312 214.12 140.174 216.975 147.181C217.234 147.7 227.485 146.792 227.745 147.311C228.653 149.517 227.875 168.332 227.226 168.851C189.465 194.025 171.169 158.081 171.169 158.081C171.169 158.081 177.917 153.669 189.595 149.387Z" fill="white"/>
<path d="M201.663 178.324C198.938 178.324 196.213 177.934 193.618 177.286C178.176 173.263 170.52 158.34 170.52 158.211C170.39 157.951 170.52 157.562 170.78 157.302C170.909 157.302 177.657 153.15 188.946 148.868C189.076 143.158 188.687 139.006 188.297 134.983C188.038 132.907 187.908 130.831 187.778 128.495C187.778 128.236 187.908 127.976 188.168 127.847C191.931 126.03 195.824 124.732 199.976 124.084C201.793 123.824 203.999 123.565 205.685 124.862C206.075 124.862 207.243 124.213 207.891 123.824C209.319 122.916 210.227 122.526 210.876 122.786C211.135 122.916 211.395 123.045 211.395 123.305C212.952 126.809 213.731 131.091 214.509 135.243C215.288 139.266 216.066 143.288 217.494 146.662C218.272 146.792 220.608 146.662 222.425 146.532C227.875 146.273 228.264 146.402 228.523 146.922C229.172 148.479 229.042 156.264 228.913 158.6C228.523 168.592 228.004 168.981 227.745 169.24C218.402 175.339 209.838 178.324 201.663 178.324ZM171.948 158.081C173.505 160.806 180.771 172.484 194.007 175.988C203.999 178.583 214.898 175.988 226.707 168.202C227.356 166.256 228.004 150.555 227.226 147.7C226.447 147.57 224.112 147.7 222.425 147.83C216.975 148.089 216.715 147.96 216.456 147.441C214.898 143.937 214.12 139.655 213.341 135.503C212.563 131.48 211.784 127.457 210.357 124.084C209.968 124.213 209.189 124.732 208.54 124.992C206.983 125.9 205.685 126.679 204.907 126.03C203.609 124.992 201.663 125.251 200.106 125.511C196.213 126.16 192.58 127.328 189.076 129.014C189.206 131.091 189.336 133.037 189.595 134.983C189.984 139.136 190.374 143.418 190.244 149.517C190.244 149.776 190.114 150.036 189.855 150.166C180.252 153.539 173.764 157.043 171.948 158.081Z" fill="#B8CE1B"/>
<path d="M161.048 70.6223C162.215 79.0567 163.902 87.8805 161.696 96.1852C160.529 100.727 160.658 123.954 179.214 130.442C188.946 133.946 200.236 133.167 210.227 127.068C217.104 122.916 225.409 110.07 223.722 97.2233C229.432 98.7804 235.011 95.0174 235.011 89.8269C235.011 86.8424 231.767 83.2091 228.394 83.3389C225.798 83.4686 225.409 83.4686 223.463 85.0258C222.035 79.0568 221.257 72.958 221.387 66.0806C214.898 58.9438 204.647 55.4402 194.396 53.8831C191.022 53.3641 187.519 53.1045 184.015 53.4938C174.154 54.7914 159.88 62.0581 161.048 70.6223Z" fill="white"/>
<path d="M191.282 133.297C187.13 133.297 183.107 132.648 178.955 131.221C160.399 124.603 159.62 101.635 161.048 96.0554C162.864 88.7888 161.826 81.2626 160.788 73.8663C160.658 72.8282 160.529 71.7901 160.399 70.752C160.139 68.2865 160.788 65.9508 162.605 63.6151C167.017 57.9057 176.879 53.8831 183.886 52.9747C187.649 52.4557 191.541 52.9747 194.396 53.364C202.96 54.6616 214.639 57.7759 221.776 65.8211C221.906 65.9508 221.906 66.0806 221.906 66.2104C221.776 72.1794 222.425 77.8889 223.722 84.1174C225.15 83.0793 225.798 82.9495 228.264 82.9495C229.951 82.8198 231.767 83.5983 233.195 85.0257C234.752 86.4531 235.66 88.3995 235.53 90.0864C235.53 92.5518 234.233 94.8876 232.157 96.4447C229.951 98.1316 227.096 98.7804 224.371 98.2613C225.539 111.237 217.234 123.694 210.487 127.847C204.518 131.35 197.9 133.297 191.282 133.297ZM161.696 70.4925C161.826 71.5306 161.956 72.5686 162.086 73.6067C163.124 81.1329 164.162 88.9185 162.345 96.3149C161.567 99.4292 160.529 123.175 179.474 129.793C189.725 133.427 200.495 132.259 209.968 126.549C216.326 122.656 224.76 110.07 223.203 97.353C223.203 97.0935 223.203 96.9637 223.463 96.834C223.592 96.7042 223.852 96.5744 224.112 96.7042C226.707 97.4828 229.561 96.9637 231.767 95.2768C233.584 93.9792 234.622 92.0328 234.622 89.9566C234.622 88.659 233.844 87.1019 232.676 85.934C231.508 84.7662 230.08 84.1174 228.783 84.2471C226.188 84.3769 226.058 84.3769 224.241 85.8043C224.111 85.934 223.852 85.934 223.592 85.934C223.333 85.8043 223.203 85.6745 223.203 85.415C221.646 78.7972 220.997 72.6984 221.127 66.4699C214.12 58.9437 202.831 55.8295 194.656 54.6616C191.801 54.2724 188.168 53.7533 184.405 54.2723C177.657 55.0509 168.185 58.9437 164.032 64.3937C162.086 66.4699 161.437 68.5461 161.696 70.4925Z" fill="#B8CE1B"/>
<path d="M201.663 104.49C195.694 104.49 190.374 99.5588 189.465 92.8112C189.076 89.3077 189.855 85.8042 191.801 83.0792C193.747 80.3542 196.602 78.5375 199.716 78.1482C206.334 77.2399 212.433 82.5601 213.341 89.697C213.731 93.2005 212.952 96.7041 211.006 99.4291C209.059 102.154 206.204 103.971 203.09 104.36C202.571 104.49 202.182 104.49 201.663 104.49ZM201.144 79.4459C200.755 79.4459 200.365 79.4459 199.846 79.5756C196.991 79.9649 194.526 81.522 192.839 83.9875C191.152 86.453 190.374 89.5672 190.763 92.8112C191.541 99.2993 197.121 103.971 202.96 103.322C205.815 102.933 208.281 101.375 209.968 98.91C211.654 96.4446 212.433 93.3303 212.044 90.0863C211.265 83.8577 206.464 79.4459 201.144 79.4459Z" fill="#B8CE1B"/>
<path d="M168.055 106.047C162.086 106.047 156.765 101.116 155.857 94.3684C154.949 87.1018 159.49 80.4839 166.108 79.7054C172.726 78.797 178.825 84.1173 179.733 91.2541C180.122 94.7577 179.344 98.2612 177.398 100.986C175.451 103.711 172.596 105.528 169.482 105.917C169.093 106.047 168.574 106.047 168.055 106.047ZM167.536 80.8732C167.146 80.8732 166.757 80.8732 166.238 81.003C160.399 81.7816 156.246 87.7506 157.155 94.2386C157.933 100.727 163.383 105.398 169.352 104.749C172.207 104.36 174.673 102.803 176.359 100.337C178.046 97.8719 178.825 94.7577 178.436 91.5136C177.657 85.4149 172.856 80.8732 167.536 80.8732Z" fill="#B8CE1B"/>
<path d="M231.663 30.3666C234.283 18.8363 227.06 7.36493 215.53 4.74457C204 2.12421 192.528 9.34714 189.908 20.8774C187.288 32.4077 194.511 43.8791 206.041 46.4995C217.571 49.1198 229.043 41.8969 231.663 30.3666Z" fill="#B8CE1B"/>
<path d="M222.814 86.0637C217.364 77.6292 213.99 71.5304 212.303 61.2793C192.19 73.0876 173.245 71.1412 154.041 70.3626C153.651 67.1186 154.3 63.7448 155.727 60.6305C159.101 53.1044 163.254 46.4866 174.802 41.2961C182.977 37.6628 193.877 35.3271 202.701 36.495C211.395 37.7926 218.921 42.464 225.02 48.1735C229.951 52.7151 233.973 60.1115 235.401 67.3781C236.698 73.6066 235.141 78.278 232.286 84.6363C230.729 83.728 229.172 82.9494 227.356 83.3387C225.409 83.8577 224.241 84.7661 222.814 86.0637Z" fill="#B8CE1B"/>
<path d="M193.747 118.115C192.32 118.115 191.022 117.725 189.984 116.817C189.725 116.558 189.725 116.168 189.855 115.909C190.114 115.649 190.503 115.649 190.763 115.779C192.19 116.947 194.266 117.077 196.343 116.298C198.678 115.39 200.495 113.443 201.663 110.978C201.793 110.589 202.182 110.459 202.571 110.718C202.96 110.848 203.09 111.237 202.831 111.627C201.533 114.352 199.457 116.428 196.732 117.596C195.824 117.985 194.656 118.115 193.747 118.115Z" fill="#B8CE1B"/>
<path d="M200.884 91.903C200.754 90.8649 199.716 90.0863 198.678 90.2161C197.51 90.3458 196.732 91.3839 196.862 92.422C196.991 93.4601 198.03 94.2386 199.068 94.1089C200.235 93.8494 201.014 92.941 200.884 91.903Z" fill="#B8CE1B"/>
<path d="M170.909 93.4601C170.78 92.422 169.742 91.6434 168.704 91.7732C167.536 91.9029 166.757 92.941 166.887 93.9791C167.017 95.0172 168.055 95.7958 169.093 95.666C170.261 95.4065 171.039 94.4982 170.909 93.4601Z" fill="#B8CE1B"/>
<path d="M182.199 105.658C182.069 105.658 182.069 105.658 181.939 105.658L179.214 104.619C178.825 104.49 178.306 104.23 178.046 103.711C177.787 102.933 178.306 102.284 178.565 102.024C180.641 99.2993 181.29 95.666 180.382 92.4219C180.252 92.0326 180.512 91.7731 180.901 91.6434C181.29 91.5136 181.55 91.7731 181.68 92.1624C182.718 95.7957 181.939 99.8183 179.603 102.933C179.474 103.192 179.344 103.322 179.344 103.452C179.344 103.452 179.474 103.581 179.733 103.581L182.458 104.619C182.847 104.749 182.977 105.139 182.847 105.528C182.718 105.528 182.458 105.658 182.199 105.658Z" fill="#B8CE1B"/>
<path d="M178.565 89.3078C178.176 89.3078 177.917 89.0482 177.917 88.659C177.917 86.8423 179.733 85.5447 181.42 85.0256C184.405 84.2471 187.649 85.0256 189.984 86.9721C190.244 87.2316 190.244 87.6209 189.984 87.8804C189.725 88.1399 189.336 88.1399 189.076 87.8804C187.13 86.1935 184.275 85.5447 181.809 86.1935C180.512 86.5828 179.214 87.3613 179.214 88.5292C179.214 89.0482 178.955 89.3078 178.565 89.3078Z" fill="#B8CE1B"/>
<path d="M211.914 86.1934C211.525 86.1934 211.265 85.9338 211.265 85.5446C211.265 85.1553 211.525 84.8958 211.914 84.8958H221.776C222.165 84.8958 222.425 85.1553 222.425 85.5446C222.425 85.9338 222.165 86.1934 221.776 86.1934H211.914Z" fill="#B8CE1B"/>
<path d="M223.722 93.0708C223.333 93.0708 223.073 92.8112 223.073 92.422C223.073 89.9565 222.554 87.491 221.646 85.2851C221.516 84.8958 221.646 84.5065 222.035 84.3768C222.425 84.247 222.814 84.3768 222.944 84.7661C223.982 87.1018 224.501 89.8267 224.501 92.422C224.371 92.6815 223.982 93.0708 223.722 93.0708Z" fill="#B8CE1B"/>
<path d="M296.259 226.725C287.565 202.849 282.634 179.232 262.002 161.974C252.14 153.669 240.072 147.83 226.317 146.922C225.539 160.287 209.968 169.111 201.663 170.019C197.121 170.538 180.382 172.744 180.382 153.02C174.932 155.226 156.636 157.432 149.369 179.881C146.385 189.094 141.064 224.259 123.417 244.632C119.265 249.433 115.372 217.382 109.403 219.588C103.564 221.664 96.6862 225.168 96.2969 231.396C95.9076 236.197 99.9302 240.479 104.472 242.426C114.074 246.578 117.707 266.561 128.088 267.989C138.859 269.546 156.117 273.439 169.093 232.823C175.711 239.441 179.993 246.578 187.519 250.601C209.059 262.149 280.558 275.255 292.236 277.331C293.144 277.461 295.35 276.683 295.74 275.774C298.075 270.065 304.434 249.303 296.259 226.725Z" fill="#FFD42E"/>
<path d="M292.366 277.98C292.236 277.98 292.106 277.98 291.977 277.98C278.222 275.515 208.41 262.798 187 251.249C181.809 248.524 178.176 244.242 174.283 239.701C172.726 237.884 171.039 235.938 169.223 233.991C163.643 250.86 156.895 261.501 148.72 266.302C141.454 270.584 134.576 269.546 128.997 268.767C128.607 268.767 128.218 268.637 127.959 268.637C122.119 267.859 118.356 261.501 114.723 255.272C111.609 250.082 108.494 244.761 104.212 242.945C99.6706 240.998 95.2588 236.586 95.6481 231.266C96.0374 226.076 100.449 221.923 109.143 218.809C109.792 218.55 110.441 218.679 111.09 218.939C113.815 220.366 116.021 227.114 117.967 233.602C119.394 238.014 121.211 243.983 122.509 244.242C122.638 244.242 122.768 244.113 122.898 243.983C136.912 227.763 143.27 201.681 146.644 187.666C147.552 184.163 148.201 181.308 148.72 179.492C155.079 159.768 170.001 155.356 177.268 153.15C178.436 152.761 179.474 152.501 180.122 152.242C180.382 152.112 180.512 152.242 180.771 152.371C180.901 152.501 181.031 152.761 181.031 152.891C181.031 158.86 182.588 163.401 185.702 166.126C190.763 170.538 198.549 169.63 201.403 169.24H201.533C209.448 168.332 224.76 159.768 225.539 146.792C225.539 146.662 225.669 146.402 225.798 146.402C225.928 146.273 226.058 146.273 226.317 146.273C239.164 147.051 251.232 152.242 262.391 161.455C279.519 175.858 285.878 194.414 292.496 214.008C293.923 218.031 295.35 222.313 296.778 226.465C304.304 246.838 299.892 267.21 296.129 275.904C295.74 277.072 293.534 277.98 292.366 277.98ZM168.963 232.175C169.093 232.175 169.352 232.304 169.482 232.304C171.688 234.51 173.505 236.716 175.451 238.792C179.214 243.204 182.848 247.357 187.778 249.952C209.059 261.371 278.611 274.087 292.236 276.553C293.015 276.683 294.831 275.904 295.091 275.385C295.48 274.477 304.823 252.028 295.74 226.854C294.182 222.702 292.755 218.42 291.457 214.397C284.84 194.933 278.611 176.507 261.742 162.363C251.102 153.41 239.423 148.479 227.096 147.57C226.317 154.967 221.387 160.287 217.364 163.531C212.693 167.294 206.594 170.019 201.922 170.538H201.793C198.678 170.927 190.503 171.836 185.053 167.034C181.809 164.18 180.122 159.638 179.863 153.799C179.214 154.058 178.565 154.188 177.787 154.448C170.261 156.654 156.376 160.936 150.148 179.881C149.629 181.697 148.85 184.422 148.071 188.056C144.698 202.2 138.339 228.411 124.066 244.891C123.417 245.67 122.768 245.67 122.379 245.54C120.432 245.151 119.135 241.128 116.929 233.991C115.112 228.282 112.906 221.145 110.7 220.107C110.441 219.977 110.181 219.977 109.792 219.977C101.617 222.832 97.4647 226.595 97.0754 231.266C96.6861 235.938 100.838 239.96 104.861 241.647C109.532 243.594 112.777 249.173 116.021 254.493C119.654 260.592 123.157 266.431 128.348 267.21C128.737 267.21 129.126 267.34 129.386 267.34C140.026 268.897 156.117 271.233 168.574 232.434C168.704 232.175 168.833 232.045 169.093 232.045C168.833 232.175 168.833 232.175 168.963 232.175Z" fill="#B8CE1B"/>
<path d="M140.545 275.126C156.895 275.515 173.115 275.774 189.465 276.164V267.859L135.095 266.561L140.545 275.126Z" fill="#B8CE1B"/>
<path d="M270.566 249.822C250.972 248.784 231.119 247.357 211.395 246.059C209.578 245.8 200.884 244.502 198.678 244.242C196.862 243.983 195.045 243.334 193.358 242.555C187.519 239.831 174.932 234.51 172.077 236.067C165.589 238.014 159.75 242.685 155.079 248.524C152.483 251.898 150.407 257.348 151.445 258.257C152.094 258.905 153.132 259.165 153.911 258.516C157.025 252.028 162.475 246.578 168.963 243.594C165.849 245.28 162.994 247.357 160.529 249.822C157.933 252.288 155.598 255.142 154.949 258.776C154.949 259.035 154.819 259.295 155.079 259.554C155.468 260.073 156.376 259.814 156.895 259.424C157.933 258.646 171.429 247.616 174.024 247.876C170.65 249.173 158.712 258.905 158.712 259.943C158.712 260.462 158.842 260.982 159.101 261.371C159.49 261.89 160.269 262.02 160.918 262.02C161.567 262.02 162.216 261.501 162.735 261.241C166.627 258.905 170.131 255.921 174.283 254.234C176.359 253.326 178.955 252.807 180.771 254.104C177.008 255.532 173.505 257.608 170.65 260.203C170.131 260.592 169.742 261.111 169.482 261.63C168.963 262.409 168.444 263.577 169.093 264.355C170.131 265.523 171.039 264.874 171.948 264.355C175.581 262.02 179.214 260.073 182.977 258.516C184.145 257.997 185.572 257.608 186.611 258.257C187.519 258.905 192.061 261.63 201.274 262.149C204.388 262.279 207.502 263.188 211.395 264.226C263.429 278.629 279 284.339 291.587 278.889C294.053 277.85 294.831 276.553 294.053 272.271C291.977 260.852 289.9 254.494 270.566 249.822Z" fill="white"/>
<path d="M281.206 281.484C271.215 281.484 257.071 277.461 230.34 270.065C224.76 268.508 218.272 266.691 211.395 264.745C207.762 263.707 204.518 262.798 201.403 262.668C192.709 262.279 188.038 259.684 186.351 258.646C185.572 258.127 184.275 258.516 183.237 258.905C179.474 260.333 175.97 262.279 172.337 264.615H172.207C171.299 265.134 170.001 265.913 168.704 264.485C167.665 263.317 168.574 261.63 168.963 260.982C169.352 260.333 169.742 259.814 170.261 259.295C172.856 256.959 175.84 255.013 179.084 253.585C177.527 253.196 175.84 253.715 174.543 254.234C171.818 255.402 169.352 257.089 166.887 258.776C165.589 259.554 164.421 260.463 163.124 261.241C162.475 261.63 161.826 262.02 161.048 262.149C160.01 262.279 159.101 262.02 158.582 261.371C158.193 260.852 158.063 260.203 158.063 259.554C158.063 259.424 158.193 259.035 158.452 258.776C158.193 258.905 158.063 259.165 157.804 259.295C157.544 259.424 157.414 259.554 157.285 259.684C156.766 260.073 156.117 260.463 155.468 260.333C155.079 260.203 154.819 260.073 154.56 259.684C154.43 259.424 154.3 259.165 154.3 258.905C153.392 259.554 152.094 259.554 151.056 258.646C149.369 257.089 152.354 250.73 154.56 248.006C159.62 241.517 165.589 237.106 171.818 235.289C175.192 233.602 188.168 239.182 193.618 241.777C195.045 242.426 196.862 243.204 198.678 243.464C199.327 243.594 200.365 243.723 201.663 243.853C205.166 244.372 210.097 245.021 211.395 245.281C230.729 246.578 250.583 248.005 270.566 249.044H270.696C290.419 253.715 292.625 260.463 294.831 271.882C295.61 276.164 294.961 277.98 291.977 279.148C288.732 280.835 285.359 281.484 281.206 281.484ZM185.313 257.219C185.962 257.219 186.481 257.348 187 257.738C188.557 258.776 193.099 261.111 201.403 261.501C204.647 261.63 207.891 262.539 211.654 263.577C218.532 265.523 225.02 267.34 230.6 268.897C268.101 279.408 280.687 282.911 291.457 278.37C293.534 277.461 294.312 276.683 293.534 272.53C291.328 261.241 289.381 255.272 270.436 250.731C250.583 249.563 230.6 248.265 211.265 246.967C209.968 246.708 204.907 246.059 201.533 245.54C200.235 245.41 199.197 245.151 198.549 245.151C196.472 244.891 194.526 243.983 193.099 243.334C184.275 239.312 174.413 235.678 172.337 236.846H172.207C166.238 238.533 160.399 242.945 155.598 249.173C152.873 252.677 151.445 257.348 151.964 258.127C152.354 258.516 153.002 258.646 153.392 258.386C156.506 251.769 162.086 246.319 168.704 243.334C168.963 243.204 169.352 243.334 169.612 243.594C169.742 243.853 169.612 244.242 169.352 244.502C166.368 246.189 163.513 248.265 161.048 250.601C157.804 253.585 156.117 256.31 155.727 259.165C155.727 259.424 155.727 259.554 155.727 259.554C155.857 259.554 156.117 259.424 156.506 259.165C156.636 259.165 156.766 259.035 157.025 258.776C171.558 247.227 173.505 247.486 174.154 247.486C174.413 247.486 174.673 247.746 174.673 248.006C174.673 248.265 174.543 248.654 174.283 248.654C171.169 249.822 160.139 258.646 159.361 260.203C159.361 260.592 159.49 260.852 159.62 261.111C159.88 261.501 160.399 261.501 160.788 261.501C161.307 261.371 161.826 261.111 162.345 260.722C163.643 259.944 164.94 259.035 166.108 258.257C168.574 256.57 171.169 254.883 174.024 253.585C176.1 252.677 178.955 252.028 181.161 253.585C181.42 253.715 181.42 253.975 181.42 254.234C181.42 254.494 181.29 254.623 181.031 254.753C177.268 256.18 173.894 258.257 171.169 260.722C170.78 261.111 170.39 261.501 170.131 262.02C169.612 262.928 169.482 263.707 169.742 263.966C170.39 264.615 170.78 264.485 171.688 263.966C175.321 261.501 179.084 259.554 182.848 258.127C183.496 257.478 184.405 257.219 185.313 257.219Z" fill="#B8CE1B"/>
<path d="M1.57135 199.345L107.846 199.864L144.438 275.125L39.2021 274.866L1.57135 199.345Z" fill="white"/>
<path d="M144.438 275.774L39.0723 275.515C38.8127 275.515 38.5532 275.385 38.4235 275.126L0.792755 199.605C0.662994 199.345 0.662994 199.215 0.792755 198.956C0.922516 198.826 1.18203 198.696 1.31179 198.696L107.586 199.215C107.846 199.215 108.105 199.345 108.235 199.605L144.827 274.866C144.957 275.126 144.957 275.255 144.827 275.515C144.957 275.774 144.698 275.774 144.438 275.774ZM39.5913 274.217L143.4 274.477L107.456 200.513L2.6094 199.994L39.5913 274.217Z" fill="#B8CE1B"/>
<path d="M68.7875 229.969C65.803 229.709 62.4293 230.488 61.2614 233.213C60.0936 235.938 61.0019 239.441 63.2078 241.518C65.4138 243.594 68.7875 244.243 71.772 243.594C73.3292 243.205 75.0161 242.426 75.9244 241.128C76.5732 240.22 76.8327 239.052 76.8327 237.884C76.703 234.121 75.0161 230.618 68.7875 229.969Z" fill="white"/>
<path d="M69.4364 244.502C66.9709 244.502 64.5054 243.594 62.6888 242.037C60.2233 239.701 59.315 235.938 60.6126 232.953C61.7805 230.228 64.8947 228.931 68.7876 229.32C75.9244 229.969 77.3518 234.381 77.3518 237.884C77.3518 239.312 76.9625 240.479 76.3137 241.518C75.1458 243.204 73.1994 243.983 71.772 244.242C70.9935 244.372 70.2149 244.502 69.4364 244.502ZM67.6197 230.618C65.8031 230.618 62.9483 231.007 61.7805 233.602C60.7424 236.068 61.3912 239.182 63.5971 241.128C65.5435 242.945 68.6578 243.723 71.5125 242.945C73.1994 242.556 74.497 241.777 75.2756 240.739C75.9244 239.831 76.0542 238.663 76.0542 237.884C76.0542 233.472 73.7185 231.137 68.6578 230.618C68.528 230.618 68.1388 230.618 67.6197 230.618Z" fill="#B8CE1B"/>
<path d="M258.758 249.822C258.498 249.822 258.239 249.692 258.109 249.433C250.713 226.984 246.56 212.84 246.56 182.217C246.56 181.827 246.82 181.568 247.209 181.568C247.598 181.568 247.858 181.827 247.858 182.217C247.858 212.711 252.01 226.854 259.407 249.044C259.536 249.433 259.277 249.822 259.017 249.822C258.887 249.822 258.888 249.822 258.758 249.822Z" fill="#B8CE1B"/>
<path d="M168.963 233.472C168.704 233.472 168.574 233.343 168.444 233.213C158.971 219.458 161.437 209.466 164.032 199.734C165.33 194.933 166.627 189.873 166.368 184.293C166.368 183.904 166.627 183.644 167.017 183.644C167.406 183.644 167.665 183.904 167.665 184.293C167.925 190.002 166.498 195.063 165.33 200.124C162.735 209.986 160.399 219.328 169.612 232.564C169.871 232.823 169.742 233.213 169.482 233.472C169.223 233.343 169.093 233.472 168.963 233.472Z" fill="#B8CE1B"/>
<path d="M199.976 199.734C190.374 199.734 180.642 198.826 171.299 196.49C171.169 196.49 171.169 196.361 171.169 196.231C171.169 196.101 171.299 196.101 171.429 196.101C195.175 202.07 220.868 198.437 243.576 195.323C243.705 195.323 243.835 195.452 243.835 195.452C243.835 195.582 243.705 195.712 243.705 195.712C229.821 197.658 214.898 199.734 199.976 199.734Z" fill="#B8CE1B"/>
<path d="M208.67 218.29C194.526 218.29 180.252 216.603 166.627 213.23C166.498 213.23 166.498 213.1 166.498 212.97C166.498 212.84 166.627 212.84 166.757 212.84C191.931 218.939 218.661 219.458 244.095 214.268C244.224 214.268 244.354 214.268 244.354 214.397C244.354 214.527 244.354 214.657 244.224 214.657C232.546 217.122 220.608 218.29 208.67 218.29Z" fill="#B8CE1B"/>
<path d="M297.816 255.921C297.816 255.921 297.686 255.921 297.686 255.791C288.733 245.281 274.329 240.09 260.704 242.296C260.574 242.296 260.445 242.296 260.445 242.166C260.445 242.037 260.445 241.907 260.574 241.907C274.329 239.571 288.992 244.891 297.945 255.532C298.075 255.661 298.075 255.791 297.945 255.791C297.945 255.921 297.816 255.921 297.816 255.921Z" fill="#B8CE1B"/>
<path d="M296.259 246.319C296.129 246.319 296.129 246.189 296.259 246.319C294.701 245.67 293.534 244.632 292.366 243.723C291.976 243.334 291.587 242.945 291.198 242.685C288.733 240.609 285.618 239.311 282.374 238.792C282.244 238.792 282.115 238.663 282.244 238.533C282.244 238.403 282.374 238.273 282.504 238.403C285.878 238.922 288.992 240.22 291.457 242.426C291.847 242.815 292.236 243.075 292.625 243.464C293.793 244.502 294.831 245.54 296.259 246.059C296.388 246.059 296.388 246.189 296.388 246.319C296.388 246.189 296.259 246.319 296.259 246.319Z" fill="#B8CE1B"/>
</svg>
