<svg width="12" height="11" viewBox="0 0 12 11" fill="none" xmlns="http://www.w3.org/2000/svg">
<path d="M5.56033 0.881592C3.74368 0.881592 2.05678 2.30896 1.6675 4.12562C1.27822 5.94227 2.05678 8.01845 3.61392 9.05654C5.17105 10.0946 7.24726 10.0946 8.67463 9.05654C9.84248 8.14821 10.7508 6.72084 10.7508 5.03395C10.7508 3.47682 9.84246 1.91968 8.41509 1.27088C7.63652 1.01136 6.72818 0.881592 5.56033 0.881592Z" fill="white"/>
<path d="M6.07942 10.4839C5.04133 10.4839 4.00322 10.2244 3.22466 9.57559C1.53776 8.40774 0.499661 5.94228 1.0187 3.8661C1.53775 1.66016 3.35444 0.103027 5.43061 0.103027C5.43061 0.103027 5.43058 0.103027 5.56034 0.103027C6.72819 0.103027 7.76631 0.23279 8.67464 0.622073C10.2318 1.40064 11.2698 3.08754 11.3996 5.03395C11.3996 6.85061 10.4913 8.5375 9.0639 9.57559C8.15558 10.2244 7.11751 10.4839 6.07942 10.4839ZM5.43061 1.5304C4.00324 1.5304 2.57584 2.69824 2.31632 4.25538C1.92703 5.81251 2.70566 7.62917 4.00327 8.53749C5.30088 9.44582 6.98776 9.44582 8.28537 8.53749C9.32346 7.75893 10.102 6.46132 9.97225 5.16371C9.97225 3.73634 9.19368 2.43873 8.02583 1.91968C7.50679 1.66016 6.59846 1.5304 5.43061 1.5304Z" fill="#F4A28C"/>
</svg>
