<svg width="109" height="123" viewBox="0 0 109 123" fill="none" xmlns="http://www.w3.org/2000/svg">
<path d="M107.181 78.2353C107.181 78.2353 85.1216 83.4258 80.8394 82.5175C74.7407 81.2199 69.9395 79.9222 63.8407 81.8687C60.7265 82.9068 56.7039 85.3722 53.9789 87.0591C48.3992 90.5627 48.6587 89.9138 44.8956 91.2114C40.2242 89.9138 34.7743 88.227 30.4922 85.7615C24.9124 82.5175 19.3327 78.6246 17.7756 77.7163C13.4935 75.1211 12.1958 77.5865 10.3792 79.0139C8.0435 77.4568 2.46378 77.4568 2.98282 81.9984C3.11258 83.4258 1.29593 82.777 1.03641 85.502C0.776883 90.1734 11.2875 101.073 19.8518 107.821C27.8969 111.843 41.3921 119.11 52.9408 121.705C58.261 122.873 79.9311 113.271 93.556 108.47C101.471 105.615 99.525 107.691 105.494 106.653C108.219 103.928 107.181 78.2353 107.181 78.2353Z" fill="white"/>
<path d="M53.9789 122.484C53.5896 122.484 53.2003 122.484 52.811 122.354C42.4302 120.018 30.3624 113.92 22.447 109.897C21.4089 109.378 20.5006 108.859 19.5922 108.47C19.5922 108.47 19.4625 108.47 19.4625 108.34C11.4173 101.982 0.128065 90.6923 0.387587 85.3721C0.517348 83.4257 1.42567 82.7769 1.94472 82.3876C2.334 82.1281 2.334 82.1281 2.334 81.8686C2.07448 79.6626 3.11257 78.4948 4.0209 77.9758C5.83755 76.9377 8.56253 77.0674 10.3792 77.9758C10.5089 77.846 10.6387 77.7162 10.8982 77.5864C12.3256 76.2888 14.1423 74.4722 18.1648 76.9376C18.8137 77.3269 19.8517 77.9757 21.2791 78.8841C23.8743 80.5709 27.3779 82.9067 31.0112 84.9828C35.0338 87.3185 40.0945 89.0054 45.0254 90.303C45.8039 90.0435 46.323 89.9138 46.842 89.6542C48.6587 89.0054 49.4372 88.8757 53.7194 86.1507L54.2384 85.8911C56.9634 84.2042 60.7265 81.8686 63.8407 80.9602C69.5502 79.0138 74.3514 80.0519 79.8013 81.2198C80.1906 81.3495 80.7097 81.3495 81.2287 81.4793C84.4727 82.1281 99.6548 79.0138 107.311 77.1972C107.44 77.1972 107.7 77.1972 107.83 77.3269C107.959 77.4567 108.089 77.5865 108.089 77.846C108.219 80.4412 108.998 103.928 106.143 106.783C106.013 106.912 105.883 106.912 105.754 106.912C103.288 107.302 102.12 107.302 101.212 107.302C99.7845 107.172 98.7465 107.172 94.0751 108.859C90.312 110.156 86.0299 111.843 81.3585 113.66C70.0693 118.202 58.9098 122.484 53.9789 122.484ZM20.1113 107.302C21.0196 107.691 21.9279 108.21 22.966 108.729C30.8814 112.752 42.8194 118.85 53.0706 121.056C56.7039 121.835 69.4205 116.904 80.5799 112.622C85.1216 110.805 89.5334 109.118 93.2965 107.821C98.2274 106.134 99.3953 106.134 100.952 106.264C101.861 106.264 102.899 106.393 104.975 106.004C106.662 103.668 106.792 88.6161 106.402 79.0138C102.38 79.9222 84.4727 83.9448 80.5799 83.0364C80.0609 82.9067 79.6716 82.7769 79.1525 82.7769C73.7026 81.609 69.2907 80.7007 63.8407 82.5174C60.986 83.4257 57.2229 85.7614 54.6277 87.3185L54.1087 87.5781C49.567 90.303 48.7885 90.5625 46.842 91.2114C46.323 91.3411 45.6742 91.6006 44.8956 91.8602C44.7659 91.8602 44.6361 91.8602 44.5063 91.8602C39.4457 90.4328 34.1255 88.8757 29.9731 86.2804C26.3398 84.2043 22.8363 81.8686 20.241 80.0519C18.9434 79.1436 17.7756 78.4948 17.2565 78.1055C14.0125 76.1591 12.9744 77.1972 11.547 78.6246C11.2875 78.8841 11.028 79.1436 10.6387 79.4031C10.3792 79.5329 10.1197 79.6626 9.86015 79.4031C8.56254 78.4948 5.96731 78.2353 4.53994 79.1436C3.63161 79.6626 3.37208 80.571 3.50184 81.7388C3.63161 82.6471 2.9828 83.1662 2.59352 83.4257C2.07448 83.815 1.68519 84.0745 1.55543 85.3721C1.42567 89.6542 11.028 100.165 20.1113 107.302Z" fill="#F4A28C"/>
<path d="M40.2242 104.317C37.3695 104.317 35.0338 103.539 33.2172 101.333C31.2707 98.8673 32.6981 96.6614 34.1255 94.8447C35.2933 93.5471 39.0564 92.3793 43.9873 90.9519C45.6742 90.4328 47.2313 90.0435 47.8801 89.784C48.2694 89.6542 48.6587 89.784 48.7885 90.1733C48.9182 90.5626 48.7885 90.9519 48.3992 91.0816C47.6206 91.4709 46.0635 91.8602 44.3766 92.3792C41.1326 93.2876 36.0719 94.7149 35.1636 95.8828C33.3469 97.959 33.0874 99.2566 34.2552 100.684C36.9802 104.188 41.5218 103.409 48.2694 102.111C52.4218 101.333 57.742 100.424 63.711 100.424C64.1003 100.424 64.3598 100.684 64.3598 101.073C64.3598 101.463 64.1003 101.722 63.711 101.722C57.8718 101.722 52.8111 102.63 48.5289 103.409C45.2849 103.798 42.5599 104.317 40.2242 104.317Z" fill="#F4A28C"/>
<path d="M35.2933 103.02C35.1635 103.02 35.0338 103.02 35.0338 102.89C27.1183 98.997 19.8517 94.3256 14.1422 89.3947C13.8827 89.1352 13.4934 88.7459 12.9744 88.3566C10.6387 86.1507 6.09706 82.1281 2.9828 83.2959C2.59351 83.4257 2.20423 83.2959 2.07447 82.9067C1.94471 82.5174 2.07446 82.1281 2.46374 81.9983C6.35657 80.4412 11.028 84.7233 13.753 87.3185C14.1423 87.7078 14.5315 88.0971 14.791 88.3566C20.5005 93.2876 27.6374 97.8292 35.4231 101.722C35.8123 101.852 35.9421 102.241 35.6826 102.63C35.6826 102.89 35.423 103.02 35.2933 103.02Z" fill="#F4A28C"/>
<path d="M35.2933 95.234H35.1636C28.8053 93.6769 22.1875 88.6163 16.8672 84.4639C14.1423 82.3877 11.8066 80.571 9.98991 79.533C9.73039 79.4032 9.60063 79.0139 9.73039 78.6246C9.86015 78.3651 10.2494 78.2354 10.6387 78.3651C12.5851 79.4032 14.9208 81.2198 17.6458 83.4258C22.8363 87.4484 29.3243 92.5091 35.4231 93.9364C35.8124 94.0662 35.9421 94.3257 35.9421 94.715C35.8124 94.9745 35.5528 95.234 35.2933 95.234Z" fill="#F4A28C"/>
<path d="M101.471 102.241C101.342 102.241 101.212 102.111 101.212 101.982C101.99 97.6995 102.38 93.4173 102.12 89.1352C102.12 89.0055 102.25 88.8757 102.38 88.8757C102.51 88.8757 102.639 89.0055 102.639 89.1352C102.899 93.4173 102.639 97.8292 101.731 102.111C101.731 102.111 101.601 102.241 101.471 102.241Z" fill="#F4A28C"/>
<path d="M96.9298 102.501C96.8 102.501 96.6703 102.371 96.6703 102.241C97.1893 100.814 97.4489 99.2566 97.4489 97.6994C97.4489 97.5697 97.5786 97.4399 97.7084 97.4399C97.8381 97.4399 97.9679 97.5697 97.9679 97.6994C97.9679 99.2566 97.7084 100.943 97.1893 102.371C97.1893 102.501 97.0596 102.501 96.9298 102.501Z" fill="#F4A28C"/>
<path d="M35.5528 63.0533L75.0002 62.7937V33.5975H87.587L54.8872 1.15723L20.7601 33.338H35.2933L35.5528 63.0533Z" fill="white"/>
<path d="M35.5528 63.8317C35.423 63.8317 35.1635 63.702 35.0338 63.702C34.904 63.5722 34.904 63.4425 34.7743 63.1829L34.6445 34.1165H20.7601C20.5005 34.1165 20.241 33.9867 20.1112 33.7272C19.9815 33.4677 20.1113 33.2081 20.241 32.9486L54.3682 0.767884C54.6277 0.508362 55.017 0.508362 55.2765 0.767884L88.106 33.2081C88.2358 33.3379 88.3656 33.7272 88.2358 33.9867C88.106 34.2462 87.8465 34.376 87.587 34.376H75.649V62.9234C75.649 63.3127 75.3895 63.5722 75.0002 63.5722L35.5528 63.8317ZM22.447 32.6891H35.4231C35.8123 32.6891 36.0719 32.9486 36.0719 33.3379L36.2016 62.4044L74.3514 62.1449V33.5974C74.3514 33.2081 74.6109 32.9486 75.0002 32.9486H86.0299L54.8872 2.06549L22.447 32.6891Z" fill="#F4A28C"/>
<path d="M60.5967 37.4905H49.4373V49.4285H60.5967V37.4905Z" fill="#FFD42E"/>
<path d="M60.5967 50.0772H49.4373C49.048 50.0772 48.7885 49.8177 48.7885 49.4284V37.4904C48.7885 37.1011 49.048 36.8416 49.4373 36.8416H60.5967C60.986 36.8416 61.2455 37.1011 61.2455 37.4904V49.4284C61.2455 49.8177 60.8562 50.0772 60.5967 50.0772ZM50.0861 48.7796H59.9479V38.1392H50.0861V48.7796Z" fill="#F4A28C"/>
</svg>
