<svg width="42" height="41" viewBox="0 0 42 41" fill="none" xmlns="http://www.w3.org/2000/svg">
<path d="M24.0127 40.4839C23.6234 40.4839 23.3639 40.2243 23.3639 39.9648C23.3639 39.5755 23.6235 39.316 23.883 39.1862C25.5699 38.9267 27.2568 38.5374 28.8139 37.8886C29.2032 37.7589 29.5925 37.8886 29.7222 38.2779C29.852 38.6672 29.7223 39.0565 29.333 39.1862C27.6461 39.8351 25.8294 40.2243 24.0127 40.4839ZM18.8223 40.4839C18.6925 40.4839 18.6925 40.4839 18.8223 40.4839C16.8759 40.2243 15.189 39.835 13.5021 39.0565C13.1128 38.9267 12.9831 38.5374 13.1129 38.1482C13.2426 37.7589 13.6319 37.6291 14.0212 37.7589C15.5783 38.4077 17.2652 38.797 18.9521 39.0565C19.3414 39.0565 19.6009 39.4458 19.4711 39.8351C19.3413 40.2243 19.0818 40.4839 18.8223 40.4839ZM33.6151 36.591C33.3556 36.591 33.2258 36.4612 33.096 36.3315C32.8365 36.072 32.9663 35.6827 33.2258 35.4232C34.5234 34.3851 35.821 33.2172 36.8591 31.7899C37.1186 31.5303 37.5079 31.4006 37.7675 31.6601C38.027 31.9196 38.1567 32.3089 37.8972 32.5684C36.8591 33.9958 35.5615 35.2934 34.0043 36.3315C33.8746 36.4612 33.7448 36.591 33.6151 36.591ZM9.09021 36.4613C8.96045 36.4613 8.83071 36.4612 8.70095 36.3315C7.27357 35.1636 5.97601 33.866 4.93792 32.4387C4.6784 32.1791 4.80813 31.7899 5.06765 31.5303C5.32717 31.2708 5.71647 31.4006 5.976 31.6601C7.01408 32.9577 8.18192 34.2553 9.60929 35.2934C9.86881 35.5529 9.99854 35.9422 9.73902 36.2017C9.60926 36.4613 9.34973 36.4613 9.09021 36.4613ZM39.9734 28.2863C39.8436 28.2863 39.8436 28.2863 39.7139 28.2863C39.3246 28.1565 39.1948 27.7673 39.3246 27.378C39.9734 25.8209 40.3626 24.134 40.4924 22.4471C40.4924 22.0578 40.8817 21.7983 41.271 21.7983C41.6603 21.7983 41.9198 22.1875 41.9198 22.5768C41.7901 24.3935 41.271 26.2101 40.6222 27.897C40.4924 28.1565 40.2329 28.2863 39.9734 28.2863ZM2.8617 28.1566C2.60218 28.1566 2.34265 28.0268 2.21289 27.7673C1.56409 26.0804 1.17481 24.2637 0.915283 22.4471C0.915283 22.0578 1.17481 21.7983 1.56409 21.7983C1.95337 21.7983 2.21289 22.0578 2.21289 22.4471C2.34265 24.134 2.73197 25.8209 3.38077 27.378C3.51054 27.7673 3.38079 28.1565 2.99151 28.2863C3.12127 28.1565 2.99146 28.1566 2.8617 28.1566ZM1.6939 21.409C1.30461 21.409 1.04509 21.1494 1.04509 20.7602C1.04509 18.9435 1.30458 17.1269 1.82363 15.44C1.95339 15.0507 2.34264 14.9209 2.60216 15.0507C2.99144 15.1804 3.12127 15.5697 2.99151 15.8293C2.47246 17.3864 2.3427 19.0733 2.3427 20.8899C2.3427 21.1495 1.95342 21.409 1.6939 21.409ZM40.8817 18.0352C40.6221 18.0352 40.2329 17.7757 40.2329 17.5161C39.9733 15.8292 39.3246 14.2721 38.6758 12.715C38.546 12.4555 38.6757 11.9364 38.9353 11.8067C39.1948 11.6769 39.7138 11.8067 39.8436 12.0662C40.6222 13.7531 41.271 15.44 41.5305 17.2566C41.6602 17.5161 41.4007 17.9054 40.8817 18.0352C41.0114 18.0352 41.0114 18.0352 40.8817 18.0352ZM4.54858 11.4174C4.41882 11.4174 4.28907 11.4174 4.15931 11.2876C3.89979 11.1579 3.77001 10.6388 3.89977 10.3793C4.8081 8.82215 5.97596 7.39478 7.40334 6.22693C7.66286 5.96741 8.05216 5.96741 8.31168 6.22693C8.5712 6.48645 8.5712 6.87573 8.31168 7.13525C7.01407 8.3031 5.97598 9.60071 5.06765 11.0281C4.93789 11.4174 4.67834 11.4174 4.54858 11.4174ZM36.2103 8.6924C36.0805 8.6924 35.821 8.56262 35.6912 8.43286C34.5234 7.13525 33.2258 6.09716 31.7984 5.18884C31.5389 5.05908 31.4092 4.54004 31.5389 4.28051C31.6687 4.02099 32.1877 3.89123 32.4472 4.021C34.0043 5.05908 35.4317 6.22693 36.5996 7.52454C36.8591 7.78406 36.8591 8.17334 36.5996 8.43286C36.5996 8.69238 36.4698 8.6924 36.2103 8.6924ZM12.2045 4.41028C11.945 4.41028 11.6855 4.28052 11.5557 4.021C11.4259 3.76147 11.5557 3.24243 11.8152 3.11267C13.3724 2.33411 15.189 1.68529 16.8759 1.29601C17.2652 1.16624 17.5247 1.42578 17.6545 1.81506C17.7843 2.20434 17.5247 2.46385 17.1354 2.59362C15.4485 2.9829 13.8914 3.50195 12.3342 4.28051C12.3342 4.41027 12.3343 4.41028 12.2045 4.41028ZM27.5163 3.11267C27.5163 3.11267 27.3865 3.11267 27.2568 3.11267C25.6996 2.59363 24.0128 2.33411 22.1961 2.20435C21.8068 2.20435 21.5473 1.94483 21.5473 1.55554C21.5473 1.16626 21.8068 0.906738 22.1961 0.906738C24.0128 1.0365 25.8294 1.29602 27.5163 1.81506C27.9056 1.94482 28.0353 2.33409 27.9056 2.59362C28.0353 2.9829 27.7758 3.11267 27.5163 3.11267Z" fill="#F4A28C"/>
</svg>
