<svg width="98" height="107" viewBox="0 0 98 107" fill="none" xmlns="http://www.w3.org/2000/svg">
<path d="M46.0753 8.9036C46.0753 7.34647 46.3349 5.65957 46.8539 4.23219C47.2432 3.32387 47.6325 2.28578 48.4111 1.63697C49.1896 0.988168 50.2277 0.469128 51.136 0.72865C52.0444 0.988172 52.8229 1.76674 53.2122 2.67507C53.6015 3.58339 53.7312 4.62149 53.861 5.65957C53.9907 6.82742 54.1205 7.99527 54.3801 9.16312L46.0753 8.9036Z" fill="white"/>
<path d="M54.5098 9.68222L46.2051 9.55246C45.8159 9.55246 45.5563 9.29294 45.5563 8.90366C45.5563 7.21676 45.8158 5.52987 46.3349 3.97273C46.7242 2.67512 47.3729 1.7668 48.0217 1.118C48.9301 0.209668 50.2277 -0.179619 51.3956 0.0799033C52.4337 0.339425 53.4718 1.118 53.9908 2.41561C54.5098 3.45369 54.6396 4.49177 54.7693 5.52986L55.2884 9.03342C55.2884 9.16318 55.2884 9.4227 55.1586 9.55246C54.7693 9.55246 54.6396 9.68222 54.5098 9.68222ZM46.7241 8.25485L53.6015 8.38461L53.2122 5.65963C53.0824 4.7513 52.9527 3.71321 52.5634 2.93464C52.1741 2.15608 51.5253 1.50727 50.8765 1.37751C50.2277 1.24775 49.3194 1.50727 48.6706 2.15608C48.1515 2.67512 47.6325 3.45369 47.3729 4.49178C46.9837 5.65963 46.8539 6.95724 46.7241 8.25485Z" fill="#F4A28C"/>
<path d="M96.6822 52.5034C94.8655 36.8023 87.3394 22.6584 74.7526 13.5751C62.1658 4.49181 45.0374 3.32396 30.8934 9.68225C20.253 14.4834 6.4983 26.6809 1.1781 52.6332C6.10902 46.1451 14.4137 43.5499 20.1232 53.0224C26.3517 42.2523 35.3052 45.2368 40.4957 52.2439C42.3123 48.4808 47.2432 45.6261 51.2658 45.7558C55.2884 45.7558 59.1812 48.351 60.9979 52.1141C62.2955 48.4808 65.9288 45.8856 69.6919 45.8856C73.455 45.8856 77.0883 48.6106 78.3859 52.2439C79.8133 48.4808 83.5764 45.8856 87.4692 46.0153C91.2323 46.1451 94.606 47.9617 96.6822 52.5034Z" fill="white"/>
<path d="M19.9934 53.801C19.7339 53.801 19.6041 53.6712 19.4743 53.5415C17.2684 49.7784 14.4137 47.7022 11.2994 47.5725C7.92563 47.4427 4.42208 49.3891 1.56734 53.1522C1.43758 53.4117 1.04833 53.5415 0.788803 53.4117C0.529281 53.2819 0.399536 53.0224 0.399536 52.6331C2.865 40.8249 7.14711 30.8333 13.3756 22.9179C19.4744 15.1322 26.0922 11.2394 30.504 9.16319C37.6409 5.91916 45.5564 4.62155 53.342 5.27036C61.2574 5.91916 68.7836 8.64414 75.0121 13.056C87.4692 21.8798 95.3846 35.894 97.331 52.3736C97.331 52.6331 97.2013 53.0224 96.812 53.0224C96.5525 53.1522 96.1631 53.0224 96.0334 52.6331C94.2167 48.6105 91.362 46.6641 87.3394 46.4046C83.7061 46.2748 80.2025 48.7403 78.7752 52.1141C78.6454 52.3736 78.3859 52.5034 78.1264 52.5034C77.8668 52.5034 77.6073 52.3736 77.4775 52.1141C76.3097 48.7403 72.9359 46.2749 69.4323 46.2749C65.9288 46.2749 62.5551 48.7403 61.3872 52.1141C61.2575 52.3736 61.1277 52.5034 60.7384 52.5034C60.4789 52.5034 60.2194 52.3736 60.0896 52.1141C58.4027 48.6106 54.7694 46.2748 51.0063 46.1451C47.1135 46.1451 42.442 48.9998 40.8849 52.3736C40.7552 52.6331 40.6254 52.7629 40.3659 52.7629C40.1064 52.7629 39.9766 52.6331 39.7171 52.5034C36.6029 48.4808 32.8397 46.2748 29.2064 46.5344C25.8326 46.7939 22.8481 49.1296 20.3827 53.2819C20.5124 53.6712 20.2529 53.801 19.9934 53.801ZM10.9101 46.2749C11.0399 46.2749 11.1697 46.2749 11.4292 46.2749C13.7649 46.4046 17.1386 47.4427 20.1232 51.9843C23.3672 46.9236 27.0005 45.626 29.466 45.4963C33.229 45.2368 37.2516 47.3129 40.4957 51.2058C42.5718 47.832 47.2432 45.2368 51.2658 45.2368C55.1586 45.2368 58.792 47.4427 60.8681 50.6867C62.555 47.4427 66.0586 45.2368 69.5622 45.2368C73.0657 45.2368 76.5693 47.4427 78.2562 50.557C80.0728 47.3129 83.7061 45.2367 87.4692 45.3665C90.8429 45.4963 93.5679 46.9237 95.6441 49.5189C93.1786 34.7261 85.6525 22.3988 74.3633 14.2239C62.2956 5.52988 45.2968 4.10251 31.1528 10.4608C24.535 13.4453 8.70424 23.1774 2.34595 50.4272C4.94117 47.7022 7.92564 46.2749 10.9101 46.2749Z" fill="#F4A28C"/>
<path d="M57.2348 106.484C56.9753 106.484 56.7157 106.484 56.4562 106.484C53.3419 106.095 50.4872 103.5 49.1896 99.8662C48.0218 96.6222 48.1515 93.1186 48.2813 90.0044L49.5789 46.1451C49.5789 45.7559 49.8384 45.4963 50.2277 45.4963C50.617 45.4963 50.8765 45.7559 50.8765 46.1451L49.5789 90.0044C49.4491 93.1186 49.4491 96.4924 50.4872 99.4769C51.6551 102.721 53.9908 104.927 56.586 105.316C60.4789 105.835 63.9824 101.683 64.6312 97.79C64.6312 97.4008 65.0205 97.1412 65.4098 97.271C65.799 97.271 66.0586 97.6603 65.9288 98.0496C65.28 102.202 61.6467 106.484 57.2348 106.484Z" fill="#F4A28C"/>
<path d="M19.8637 52.5033C19.7339 52.5033 19.6041 52.3735 19.6041 52.2438C21.8101 23.307 39.5873 10.5905 50.098 5.52979H50.2277C73.7144 13.9643 76.5692 35.3748 78.7751 50.9461C78.7751 51.0759 78.6454 51.2057 78.6454 51.2057C78.5156 51.2057 78.3859 51.0759 78.3859 51.0759C76.3097 35.6344 73.3252 14.3535 50.2277 6.04883C39.8468 11.1095 22.1993 23.6963 20.1231 52.3735C19.9934 52.3735 19.9934 52.5033 19.8637 52.5033Z" fill="#F4A28C"/>
<path d="M40.1063 52.633C39.9766 52.633 39.8468 52.5033 39.8468 52.3735C41.0147 37.1915 42.442 20.063 49.8384 5.65955C49.8384 5.52979 49.9681 5.52979 49.9681 5.52979C50.0979 5.52979 50.098 5.52979 50.098 5.65955C58.0134 19.9333 59.5705 36.932 60.8681 51.8545C60.8681 51.9842 60.7383 52.114 60.6086 52.114C60.4788 52.114 60.349 51.9842 60.349 51.8545C59.0514 37.0617 57.4943 20.3225 49.8384 6.17859C42.5718 20.4523 41.2742 37.451 40.1063 52.3735C40.2361 52.5033 40.2361 52.633 40.1063 52.633Z" fill="#F4A28C"/>
<path d="M8.44464 43.8095C8.31488 43.8095 8.18518 43.6797 8.18518 43.5499C8.70422 40.5654 9.61254 37.5809 11.1697 34.9857C11.1697 34.856 11.2994 34.856 11.4292 34.856C11.559 34.856 11.5589 34.9857 11.5589 35.1155C10.1316 37.7107 9.09349 40.5654 8.57445 43.5499C8.70421 43.6797 8.5744 43.8095 8.44464 43.8095Z" fill="#F4A28C"/>
<path d="M13.1161 31.7416C12.8566 31.6118 12.8565 31.4821 12.9863 31.3523L14.0244 29.4059C14.0244 29.2761 14.1541 29.2761 14.2839 29.2761C14.4136 29.2761 14.4137 29.4059 14.4137 29.5356L13.3756 31.4821C13.2459 31.6118 13.2458 31.7416 13.1161 31.7416Z" fill="#F4A28C"/>
</svg>
