<svg width="33" height="32" viewBox="0 0 33 32" fill="none" xmlns="http://www.w3.org/2000/svg">
<path d="M14.2975 31.4837C12.3511 31.2242 10.6642 30.7051 8.97727 29.9266C8.58799 29.7968 8.45821 29.4075 8.71773 29.0182C8.84749 28.6289 9.23679 28.4992 9.62607 28.7587C11.1832 29.5373 12.7404 29.9266 14.4272 30.1861C14.8165 30.1861 15.076 30.5754 14.9463 30.9646C14.9463 31.2242 14.6868 31.4837 14.2975 31.4837ZM19.6177 31.2242C19.3582 31.2242 19.0986 30.9647 18.9689 30.7051C18.8391 30.3159 19.0986 30.0563 19.4879 29.9266C21.1748 29.5373 22.732 29.0182 24.1593 28.1099C24.4188 27.9802 24.9379 27.9801 25.0676 28.3694C25.1974 28.6289 25.1974 29.148 24.8081 29.2778C23.251 30.1861 21.5641 30.8349 19.7474 31.2242C19.6177 31.2242 19.6177 31.2242 19.6177 31.2242ZM5.08444 26.9421C4.95468 26.9421 4.69516 26.8123 4.5654 26.6825C3.26779 25.3849 2.22971 23.8278 1.45115 22.1409C1.32138 21.7516 1.45113 21.3623 1.84041 21.2326C2.2297 21.1028 2.61899 21.2326 2.74876 21.6219C3.39756 23.179 4.43563 24.4766 5.60347 25.7742C5.863 26.0337 5.863 26.423 5.60347 26.6825C5.47371 26.9421 5.2142 26.9421 5.08444 26.9421ZM28.4414 25.904C28.3117 25.904 28.1819 25.904 28.0522 25.7742C27.7926 25.5147 27.7926 25.1254 27.9224 24.8659C28.9605 23.5683 29.8688 22.1409 30.3878 20.454C30.5176 20.0647 30.9069 19.935 31.1664 20.0647C31.5557 20.1945 31.6854 20.5838 31.5557 20.8433C30.9069 22.5302 30.1283 24.2171 28.9605 25.6445C28.8307 25.904 28.5712 25.904 28.4414 25.904ZM0.932069 17.5993C0.542786 17.5993 0.283264 17.3397 0.283264 16.9505C0.283264 16.6909 0.283264 16.3016 0.283264 16.0421C0.283264 14.2255 0.672571 12.4088 1.32138 10.7219C1.45114 10.3327 1.8404 10.2029 2.22968 10.3326C2.61896 10.4624 2.74875 10.8517 2.61899 11.241C1.97018 12.7981 1.71064 14.485 1.71064 16.1719C1.71064 16.4314 1.71064 16.6909 1.71064 17.0802C1.58088 17.21 1.32135 17.4695 0.932069 17.5993ZM31.6854 16.1719C31.2962 16.1719 31.0366 15.9124 31.0366 15.5231C31.0366 13.8362 30.6474 12.1493 29.9986 10.5922C29.8688 10.2029 29.9986 9.8136 30.3878 9.68384C30.7771 9.55407 31.1664 9.68386 31.2962 10.0731C31.945 11.76 32.3343 13.5767 32.464 15.3933C32.3343 15.9124 32.0747 16.1719 31.6854 16.1719ZM4.43563 6.95885C4.30587 6.95885 4.17613 6.95888 4.04637 6.82912C3.78684 6.56959 3.78684 6.1803 3.9166 5.92077C5.08445 4.4934 6.5118 3.32554 8.19869 2.41721C8.45822 2.28745 8.97728 2.28746 9.10704 2.67675C9.2368 2.93627 9.23678 3.45533 8.8475 3.58509C7.42013 4.36366 6.12252 5.5315 4.95467 6.69935C4.82491 6.95887 4.69515 6.95885 4.43563 6.95885ZM27.7926 6.69935C27.6629 6.69935 27.4033 6.56957 27.2736 6.43981C26.1057 5.1422 24.8081 4.23388 23.251 3.32555C22.9915 3.19579 22.8617 2.80649 22.9914 2.41721C23.1212 2.15769 23.5105 2.02795 23.8998 2.15771C25.5867 3.06604 27.014 4.10413 28.1819 5.53151C28.4414 5.79103 28.4414 6.18029 28.1819 6.43981C28.1819 6.56957 27.9224 6.69935 27.7926 6.69935ZM13.5189 1.89817C13.2594 1.89817 12.8701 1.63866 12.8701 1.37914C12.8701 0.989854 12.9999 0.730324 13.3891 0.600563C14.2975 0.470802 15.3356 0.341064 16.3737 0.341064C17.1522 0.341064 18.0605 0.341033 18.8391 0.470794C19.2284 0.470794 19.4879 0.860085 19.3582 1.24937C19.3582 1.63865 18.9689 1.89817 18.5796 1.7684C17.801 1.63864 17.0225 1.63867 16.2439 1.63867C15.3356 1.63867 14.4272 1.76841 13.5189 1.89817Z" fill="#F4A28C"/>
</svg>
