<svg width="107" height="87" viewBox="0 0 107 87" fill="none" xmlns="http://www.w3.org/2000/svg">
<path d="M106.624 74.8302L82.9887 62.0086C91.874 60.7259 97.7554 59.38 97.7554 59.38L77.8744 46.4379C84.532 45.1968 88.8866 43.9485 88.8866 43.9485L72.1453 30.2846C76.9165 29.0019 80.0159 27.7435 80.0159 27.7435L53.4057 0.672668L26.7992 27.7435C26.7992 27.7435 29.8987 29.0019 34.668 30.2846L17.9304 43.9485C17.9304 43.9485 22.2832 45.1968 28.9389 46.4365L9.05975 59.38C9.05975 59.38 14.9411 60.7259 23.8246 62.0086L0.190918 74.8302C0.190918 74.8302 18.6387 78.3542 40.9897 79.4346V86.7622H65.8254V79.4346C88.1746 78.3542 106.624 74.8302 106.624 74.8302Z" fill="black"/>
</svg>
