<svg width="209" height="107" viewBox="0 0 209 107" fill="none" xmlns="http://www.w3.org/2000/svg">
<path d="M5.01237 45.841C-0.5718 49.7016 -0.28544 59.4312 3.99814 63.9561C6.52773 66.6288 10.8232 68.9967 18.0421 69.9502C38.6606 72.6698 35.7611 80.4847 34.3173 84.9861C32.8736 89.4875 44.4476 97.7792 62.8944 92.5666C81.3413 87.354 90.6483 105.602 90.6483 105.602L118.605 106.774C118.605 106.774 121.85 86.4084 146.812 88.0652C171.774 89.722 175.747 83.0636 178.635 71.349C181.522 59.6344 218.07 62.0102 205.41 42.3477C192.75 22.6853 175.747 34.0561 169.614 19.1295C163.481 4.20296 140.297 -3.37754 126.528 2.78064C112.758 8.93883 100.802 8.53245 94.3114 4.03104C87.8204 -0.470376 63.7774 -1.04868 55.8188 13.409C47.8601 27.8666 29.115 2.46804 16.4432 22.9198C12.7204 28.8513 25.4161 31.7507 5.01237 45.841Z" fill="#8E8E8E"/>
</svg>
