<svg width="22" height="17" viewBox="0 0 22 17" fill="none" xmlns="http://www.w3.org/2000/svg">
<path d="M10.571 16.2433C10.5144 16.2358 10.4613 16.2198 10.4159 16.1964L6.47831 14.8523C3.81043 13.8806 1.8276 12.2649 0.952609 10.3495C0.0776205 8.43404 0.379703 6.37053 1.79444 4.5989C3.20917 2.82726 5.62462 1.48769 8.52577 0.865794C11.4269 0.243903 14.5842 0.388895 17.3245 1.26986L21.262 2.62186C21.3913 2.66599 21.506 2.72636 21.5997 2.79953C21.6933 2.87271 21.7641 2.95723 21.8078 3.04831C21.8516 3.13938 21.8675 3.23521 21.8548 3.33032C21.842 3.42544 21.8007 3.51796 21.7333 3.60262C21.666 3.68729 21.5738 3.76244 21.4621 3.82378C21.3503 3.88511 21.2213 3.93144 21.0822 3.9601C20.9432 3.98877 20.7969 3.99921 20.6516 3.99084C20.5064 3.98247 20.3652 3.95545 20.2359 3.91132L16.2983 2.55934C14.0672 1.80844 11.4744 1.66295 9.08068 2.15434C6.687 2.64572 4.68485 3.73449 3.50724 5.18516C2.34432 6.64244 2.11209 8.34245 2.86157 9.91179C3.61105 11.4811 5.28093 12.7915 7.50444 13.555L11.442 14.907C11.7046 14.986 11.9098 15.1291 12.0138 15.3057C12.1178 15.4823 12.1126 15.6786 11.9991 15.8527C11.8856 16.0268 11.6729 16.165 11.4062 16.238C11.1395 16.3109 10.8398 16.3128 10.571 16.2433Z" fill="#FFD200"/>
</svg>
