<svg width="19" height="7" viewBox="0 0 19 7" fill="none" xmlns="http://www.w3.org/2000/svg">
<path d="M10.7098 5.85662C9.38802 5.30941 8.16689 4.66434 7.0705 3.93415C7.05512 4.47253 6.7995 4.9962 6.33516 5.44058C5.87083 5.88496 5.21807 6.23061 4.45739 6.43493C3.72749 6.64361 2.9096 6.67976 2.14351 6.53722C1.37742 6.39467 0.71069 6.08228 0.257324 5.65343L3.99204 2.17578C4.5035 1.66327 5.21725 1.25098 6.05755 0.982684C6.89785 0.714382 7.83336 0.600073 8.76484 0.651869C9.56721 0.696108 10.3644 0.774413 11.1512 0.886308C13.12 1.16765 14.7308 2.85568 16.7712 2.79316C16.9887 2.77575 17.2094 2.79791 17.4089 2.85721C17.6085 2.9165 17.7793 3.01066 17.9025 3.12933C18.0258 3.248 18.0967 3.3866 18.1077 3.52995C18.1186 3.67329 18.069 3.81584 17.9644 3.94196C17.0934 5.12201 15.0411 6.66937 12.2251 6.28644C11.6849 6.20348 11.1717 6.05792 10.7098 5.85662Z" fill="#24285B"/>
</svg>
