<svg width="42" height="29" viewBox="0 0 42 29" fill="none" xmlns="http://www.w3.org/2000/svg">
<path d="M7.05927 5.89839C7.05927 5.89839 -2.28346 6.60955 0.699533 12.1503C3.68253 17.6911 13.3832 14.9872 9.11157 20.9812C4.83992 26.9753 17.8816 30.5233 22.3203 27.3817C26.759 24.2401 23.3345 19.0666 32.713 19.6683C42.0916 20.2701 45.1939 9.30571 36.5194 8.59455C27.8448 7.88339 32.9398 1.13127 24.8499 0.427923C23.4063 0.269463 21.9232 0.401201 20.5962 0.805774C19.2692 1.21035 18.1605 1.86877 17.4162 2.69426C16.2785 3.7836 14.7213 4.65661 12.9025 5.22479C11.0837 5.79297 9.06782 6.03614 7.05927 5.92965V5.89839Z" fill="#C4C4C4"/>
</svg>
