<svg width="28" height="67" viewBox="0 0 28 67" fill="none" xmlns="http://www.w3.org/2000/svg">
<path d="M27.9747 57.246L21.7784 47.5026C24.1078 46.5278 25.6496 45.5051 25.6496 45.5051L20.4377 35.67C22.183 34.7269 23.3246 33.7782 23.3246 33.7782L18.9357 23.3947C20.1865 22.42 20.9991 21.4637 20.9991 21.4637L14.023 0.891907L7.04787 21.4637C7.04787 21.4637 7.8604 22.42 9.11072 23.3947L4.72283 33.7782C4.72283 33.7782 5.86394 34.7269 7.6088 35.6689L2.39731 45.5051C2.39731 45.5051 3.93915 46.5278 6.26804 47.5026L0.0722656 57.246C0.0722656 57.246 4.90852 59.924 10.768 60.745V66.3135H17.2789V60.745C23.1379 59.924 27.9747 57.246 27.9747 57.246Z" fill="black"/>
</svg>
