<svg width="43" height="30" viewBox="0 0 43 30" fill="none" xmlns="http://www.w3.org/2000/svg">
<path d="M7.67176 6.39369C7.67176 6.39369 -1.67099 7.10485 1.32394 12.6457C4.31887 18.1865 13.9957 15.4747 9.67633 21.4687C5.35695 27.4628 18.4583 31.0186 22.885 27.8692C27.3118 24.7198 23.8993 19.5619 33.2778 20.1558C42.6563 20.7498 45.7587 9.80101 37.0841 9.08985C28.4096 8.37869 33.5045 1.62657 25.4146 0.915409C23.973 0.759731 22.4931 0.892794 21.1689 1.29718C19.8446 1.70156 18.7377 2.35842 17.9929 3.18175C16.8498 4.26026 15.2958 5.12415 13.4852 5.68761C11.6746 6.25106 9.67043 6.49448 7.67176 6.39369Z" fill="#C4C4C4"/>
</svg>
