<svg width="108" height="87" viewBox="0 0 108 87" fill="none" xmlns="http://www.w3.org/2000/svg">
<path d="M107.223 74.8302L83.5878 62.0086C92.4732 60.7259 98.3545 59.38 98.3545 59.38L78.4735 46.4379C85.1311 45.1968 89.4857 43.9485 89.4857 43.9485L72.7445 30.2846C77.5156 29.0019 80.615 27.7435 80.615 27.7435L54.0049 0.672668L27.3984 27.7435C27.3984 27.7435 30.4978 29.0019 35.2671 30.2846L18.5295 43.9485C18.5295 43.9485 22.8823 45.1968 29.538 46.4365L9.65887 59.38C9.65887 59.38 15.5402 60.7259 24.4237 62.0086L0.790039 74.8302C0.790039 74.8302 19.2379 78.3542 41.5889 79.4346V86.7622H66.4245V79.4346C88.7737 78.3542 107.223 74.8302 107.223 74.8302Z" fill="black"/>
</svg>
