<svg width="29" height="67" viewBox="0 0 29 67" fill="none" xmlns="http://www.w3.org/2000/svg">
<path d="M28.5845 57.246L22.3883 47.5026C24.7176 46.5278 26.2595 45.5051 26.2595 45.5051L21.0475 35.67C22.7929 34.7269 23.9345 33.7782 23.9345 33.7782L19.5456 23.3947C20.7964 22.42 21.6089 21.4637 21.6089 21.4637L14.6329 0.891907L7.65773 21.4637C7.65773 21.4637 8.47027 22.42 9.72058 23.3947L5.33269 33.7782C5.33269 33.7782 6.4738 34.7269 8.21867 35.6689L3.00717 45.5051C3.00717 45.5051 4.54902 46.5278 6.87791 47.5026L0.682129 57.246C0.682129 57.246 5.51839 59.924 11.3779 60.745V66.3135H17.8888V60.745C23.7478 59.924 28.5845 57.246 28.5845 57.246Z" fill="black"/>
</svg>
